<svg width="65" height="65" viewBox="0 0 65 65" fill="none" xmlns="http://www.w3.org/2000/svg">
<g clip-path="url(#clip0_6332_12580)">
<mask id="mask0_6332_12580" style="mask-type:luminance" maskUnits="userSpaceOnUse" x="0" y="0" width="65" height="65">
<path d="M64.04 0H0V64.04H64.04V0Z" fill="white"/>
</mask>
<g mask="url(#mask0_6332_12580)">
<path d="M43.3204 32.0197C43.3204 34.9697 40.9404 37.3497 37.9904 37.3497C35.0404 37.3497 32.6504 34.9697 32.6504 32.0197C32.6504 29.0697 35.0404 26.6797 37.9904 26.6797C40.9404 26.6797 43.3204 29.0697 43.3204 32.0197Z" fill="white"/>
<path d="M31.3795 32.0197C31.3795 34.9697 28.9995 37.3497 26.0495 37.3497C23.0995 37.3497 20.7095 34.9697 20.7095 32.0197C20.7095 29.0697 23.0995 26.6797 26.0495 26.6797C28.9995 26.6797 31.3795 29.0697 31.3795 32.0197Z" fill="#212121"/>
</g>
</g>
<defs>
<clipPath id="clip0_6332_12580">
<rect width="64.04" height="64.04" fill="white"/>
</clipPath>
</defs>
</svg>
