<svg width="32" height="32" viewBox="0 0 32 32" fill="none" xmlns="http://www.w3.org/2000/svg">
<path d="M25.8729 15.6096C25.6942 15.3652 21.4371 9.625 15.9999 9.625C10.5627 9.625 6.30539 15.3652 6.12691 15.6094C5.9577 15.8413 5.9577 16.1558 6.12691 16.3876C6.30539 16.632 10.5627 22.3723 15.9999 22.3723C21.4371 22.3723 25.6942 16.632 25.8729 16.3878C26.0423 16.156 26.0423 15.8413 25.8729 15.6096ZM15.9999 21.0536C11.9949 21.0536 8.52606 17.2437 7.49922 15.9982C8.52473 14.7516 11.9863 10.9437 15.9999 10.9437C20.0048 10.9437 23.4733 14.7529 24.5006 15.9991C23.4751 17.2456 20.0135 21.0536 15.9999 21.0536Z" fill="white"/>
<path d="M15.999 12.0449C13.8177 12.0449 12.043 13.8197 12.043 16.001C12.043 18.1823 13.8177 19.957 15.999 19.957C18.1804 19.957 19.9551 18.1823 19.9551 16.001C19.9551 13.8197 18.1804 12.0449 15.999 12.0449ZM15.999 18.6383C14.5447 18.6383 13.3617 17.4552 13.3617 16.001C13.3617 14.5467 14.5448 13.3636 15.999 13.3636C17.4533 13.3636 18.6364 14.5467 18.6364 16.001C18.6364 17.4552 17.4533 18.6383 15.999 18.6383Z" fill="white"/>
</svg>
