<svg width="32" height="32" viewBox="0 0 32 32" fill="none" xmlns="http://www.w3.org/2000/svg">
<g clip-path="url(#clip0_13769_46722)">
<path d="M16.612 19.0598L14.1639 21.508C14.1639 21.508 14.1639 21.508 14.1638 21.508C14.1638 21.508 14.1638 21.5081 14.1638 21.5081C13.1514 22.5205 11.5041 22.5206 10.4916 21.5081C10.0012 21.0176 9.73111 20.3655 9.73111 19.672C9.73111 18.9785 10.0012 18.3265 10.4915 17.836C10.4915 17.836 10.4916 17.8359 10.4916 17.8358L12.9397 15.3877C13.2777 15.0497 13.2777 14.5016 12.9397 14.1636C12.6017 13.8257 12.0536 13.8257 11.7156 14.1636L9.26752 16.6118C9.26734 16.6119 9.26717 16.6122 9.267 16.6123C8.44997 17.4297 8 18.5163 8 19.672C8 20.8279 8.45015 21.9147 9.26758 22.7322C10.1113 23.5758 11.2195 23.9977 12.3278 23.9977C13.436 23.9977 14.5443 23.5758 15.3879 22.7322C15.388 22.7322 15.388 22.732 15.388 22.732L17.836 20.2839C18.174 19.9459 18.174 19.3979 17.836 19.0598C17.4981 18.7219 16.9501 18.7219 16.612 19.0598Z" fill="white"/>
<path d="M23.9999 12.3277C23.9999 11.1717 23.5497 10.0849 22.7323 9.26746C21.0448 7.58009 18.2992 7.58015 16.6119 9.26746C16.6119 9.26757 16.6118 9.26763 16.6117 9.26775L14.1637 11.7157C13.8256 12.0537 13.8256 12.6018 14.1637 12.9398C14.3327 13.1088 14.5542 13.1933 14.7757 13.1933C14.9972 13.1933 15.2188 13.1088 15.3877 12.9398L17.8358 10.4918C17.8358 10.4917 17.8359 10.4916 17.8361 10.4915C18.8484 9.47917 20.4957 9.47912 21.5082 10.4915C21.9986 10.982 22.2688 11.6341 22.2688 12.3277C22.2688 13.0211 21.9987 13.6731 21.5084 14.1636L21.5082 14.1638L19.0601 16.6119C18.7221 16.9499 18.7221 17.498 19.0602 17.836C19.2292 18.005 19.4507 18.0895 19.6722 18.0895C19.8937 18.0895 20.1152 18.005 20.2842 17.836L22.7323 15.3878C22.7325 15.3877 22.7327 15.3874 22.7328 15.3873C23.5499 14.57 23.9999 13.4833 23.9999 12.3277Z" fill="white"/>
<path d="M12.9391 19.0613C13.1081 19.2303 13.3296 19.3149 13.5511 19.3149C13.7726 19.3149 13.9941 19.2303 14.1631 19.0613L19.0594 14.165C19.3974 13.8271 19.3974 13.279 19.0594 12.941C18.7214 12.603 18.1734 12.603 17.8353 12.941L12.9391 17.8372C12.601 18.1753 12.601 18.7233 12.9391 19.0613Z" fill="white"/>
</g>
<defs>
<clipPath id="clip0_13769_46722">
<rect width="16" height="16" fill="white" transform="translate(8 8)"/>
</clipPath>
</defs>
</svg>
