<svg width="32" height="32" viewBox="0 0 32 32" fill="none" xmlns="http://www.w3.org/2000/svg">
<path d="M16 18.6813C15.9 18.6813 15.8063 18.6658 15.7188 18.6348C15.6312 18.6038 15.55 18.5505 15.475 18.475L12.775 15.775C12.625 15.625 12.553 15.45 12.559 15.25C12.565 15.05 12.637 14.875 12.775 14.725C12.925 14.575 13.1033 14.497 13.3098 14.491C13.5163 14.485 13.6943 14.5568 13.8438 14.7063L15.25 16.1125V10.75C15.25 10.5375 15.322 10.3595 15.466 10.216C15.61 10.0725 15.788 10.0005 16 10C16.212 9.9995 16.3903 10.0715 16.5347 10.216C16.6793 10.3605 16.751 10.5385 16.75 10.75V16.1125L18.1562 14.7063C18.3062 14.5563 18.4845 14.4843 18.691 14.4903C18.8975 14.4963 19.0755 14.5745 19.225 14.725C19.3625 14.875 19.4345 15.05 19.441 15.25C19.4475 15.45 19.3755 15.625 19.225 15.775L16.525 18.475C16.45 18.55 16.3688 18.6033 16.2812 18.6348C16.1937 18.6663 16.1 18.6818 16 18.6813ZM11.5 22C11.0875 22 10.7345 21.8533 10.441 21.5598C10.1475 21.2663 10.0005 20.913 10 20.5V19C10 18.7875 10.072 18.6095 10.216 18.466C10.36 18.3225 10.538 18.2505 10.75 18.25C10.962 18.2495 11.1402 18.3215 11.2847 18.466C11.4292 18.6105 11.501 18.7885 11.5 19V20.5H20.5V19C20.5 18.7875 20.572 18.6095 20.716 18.466C20.86 18.3225 21.038 18.2505 21.25 18.25C21.462 18.2495 21.6402 18.3215 21.7847 18.466C21.9292 18.6105 22.001 18.7885 22 19V20.5C22 20.9125 21.8533 21.2658 21.5597 21.5598C21.2662 21.8538 20.913 22.0005 20.5 22H11.5Z" fill="white"/>
</svg>
