<svg width="17" height="16" viewBox="0 0 17 16" fill="none" xmlns="http://www.w3.org/2000/svg">
<rect width="16" height="16" transform="translate(0.970703)" fill="black"/>
<path d="M3 14V2H15V14H3ZM11.5917 2.56255C11.5868 2.5626 11.582 2.56416 11.5781 2.56704C11.5742 2.5699 11.5712 2.57394 11.5697 2.57857C11.5682 2.58317 11.5682 2.58818 11.5698 2.59281C11.5713 2.59742 11.5744 2.60141 11.5784 2.60415C12.0118 2.90594 12.3658 3.30806 12.6102 3.77617C12.8547 4.2443 12.9824 4.7646 12.9824 5.29271C12.9824 5.82082 12.8547 6.34109 12.6102 6.80923C12.3658 7.27736 12.0118 7.67945 11.5784 7.98127C11.5754 7.98335 11.5729 7.98616 11.5713 7.98942C11.5696 7.9927 11.5687 7.99632 11.5688 8C11.5687 8.00369 11.5695 8.00735 11.5711 8.01063C11.5728 8.01389 11.5753 8.0167 11.5784 8.01873C12.0118 8.32052 12.3658 8.72264 12.6102 9.19075C12.8547 9.65889 12.9824 10.1792 12.9824 10.7073C12.9824 11.2354 12.8547 11.7557 12.6102 12.2238C12.3658 12.6919 12.0118 13.094 11.5784 13.3958C11.5744 13.3986 11.5714 13.4026 11.5698 13.4073C11.5683 13.4119 11.5682 13.4169 11.5697 13.4215C11.5712 13.4262 11.5741 13.4302 11.5781 13.4331C11.582 13.4359 11.5868 13.4375 11.5917 13.4374H14.4155C14.4216 13.4374 14.4274 13.435 14.4316 13.4307C14.4359 13.4264 14.4383 13.4206 14.4383 13.4146V2.58358C14.4383 2.57753 14.4359 2.57172 14.4316 2.56742C14.4274 2.56314 14.4216 2.56073 14.4155 2.56073L11.5917 2.56255ZM3.58542 10.03C3.57935 10.03 3.57354 10.0324 3.56926 10.0367C3.56497 10.041 3.56257 10.0468 3.56257 10.0528V13.4146C3.56257 13.4206 3.56497 13.4264 3.56926 13.4307C3.57354 13.435 3.57935 13.4374 3.58542 13.4374H9.76318C10.3621 13.4207 10.9388 13.2072 11.4042 12.83C11.8697 12.4527 12.198 11.9327 12.3384 11.3503C12.4788 10.7678 12.4235 10.1554 12.1811 9.60748C11.9387 9.0596 11.5226 8.60677 10.9971 8.31899C10.872 8.24928 10.7415 8.18982 10.6068 8.14121C10.4236 8.07474 10.2338 8.02802 10.0406 8.00182C10.2324 7.97609 10.421 7.93015 10.6031 7.86472H10.6068C10.7415 7.81585 10.872 7.75622 10.9971 7.68649C11.5226 7.39868 11.9387 6.94588 12.1811 6.398C12.4235 5.85009 12.4788 5.23762 12.3384 4.65518C12.198 4.07276 11.8697 3.55275 11.4042 3.17551C10.9388 2.79827 10.3621 2.5848 9.76318 2.56806H3.58542C3.57937 2.56815 3.57364 2.57061 3.56938 2.57486C3.56512 2.57913 3.56269 2.58488 3.56257 2.5909V5.93158C3.56257 5.93765 3.56497 5.94347 3.56926 5.94774C3.57354 5.95204 3.57935 5.95445 3.58542 5.95445H9.49903C9.69407 5.95445 9.88108 5.87697 10.019 5.73907C10.1569 5.60119 10.2344 5.41415 10.2344 5.21913C10.2344 5.02411 10.1569 4.83707 10.019 4.69916C9.88108 4.56128 9.69407 4.48381 9.49903 4.48381H6.3457V3.92123H9.49903C9.66948 3.92123 9.83826 3.9548 9.99573 4.02004C10.1532 4.08526 10.2963 4.18086 10.4168 4.30137C10.5373 4.42189 10.6329 4.56497 10.6981 4.72243C10.7634 4.87992 10.7969 5.04867 10.7969 5.21913C10.7969 5.38956 10.7634 5.55834 10.6981 5.7158C10.6329 5.87328 10.5373 6.01636 10.4168 6.13688C10.2963 6.2574 10.1532 6.353 9.99573 6.41822C9.83826 6.48344 9.66948 6.51703 9.49903 6.51703H3.58542C3.57937 6.51714 3.57364 6.51958 3.56938 6.52383C3.56512 6.5281 3.56269 6.53384 3.56257 6.53987V9.44459C3.56269 9.45061 3.56512 9.45635 3.56938 9.46061C3.57364 9.46488 3.57937 9.46731 3.58542 9.46743H9.49903C9.84326 9.46743 10.1734 9.60418 10.4168 9.84758C10.6602 10.091 10.7969 10.4211 10.7969 10.7653C10.7969 11.1095 10.6602 11.4397 10.4168 11.6831C10.1734 11.9265 9.84326 12.0632 9.49903 12.0632H6.3457V11.5007H9.49903C9.69407 11.5007 9.88108 11.4232 10.019 11.2853C10.1569 11.1474 10.2344 10.9603 10.2344 10.7653C10.2344 10.5703 10.1569 10.3833 10.019 10.2454C9.88108 10.1075 9.69407 10.03 9.49903 10.03H3.58542Z" fill="white"/>
<path d="M14.9545 2.04553V13.9545H3.04553V2.04553H14.9545ZM11.5809 13.4396H14.394C14.4061 13.4396 14.4177 13.4348 14.4262 13.4262C14.4348 13.4177 14.4396 13.4061 14.4396 13.394V2.60414C14.4396 2.59207 14.4348 2.58049 14.4262 2.57195C14.4177 2.56341 14.4061 2.55861 14.394 2.55861H11.5809C11.5709 2.55816 11.561 2.56103 11.5527 2.56679C11.5445 2.57256 11.5384 2.58089 11.5354 2.59049C11.5325 2.59972 11.5326 2.60965 11.5357 2.6188C11.5388 2.62798 11.5448 2.63591 11.5527 2.64149C11.9814 2.94004 12.3316 3.33783 12.5735 3.80091C12.8153 4.26403 12.9416 4.77872 12.9416 5.30116C12.9416 5.8236 12.8153 6.33831 12.5735 6.8014C12.3316 7.26451 11.9814 7.66228 11.5527 7.96085C11.5468 7.96509 11.5419 7.97069 11.5386 7.97719C11.5353 7.98368 11.5335 7.99088 11.5336 7.99818C11.5335 8.00547 11.5353 8.01267 11.5386 8.01917C11.5419 8.02568 11.5468 8.03129 11.5527 8.03552C11.9814 8.33407 12.3316 8.73186 12.5735 9.19495C12.8153 9.65806 12.9416 10.1728 12.9416 10.6952C12.9416 11.2176 12.8153 11.7323 12.5735 12.1954C12.3316 12.6586 11.9814 13.0563 11.5527 13.3549C11.5447 13.3604 11.5387 13.3684 11.5356 13.3776C11.5325 13.3868 11.5324 13.3968 11.5354 13.406C11.5383 13.4153 11.5442 13.4234 11.552 13.4291C11.5599 13.4348 11.5694 13.4378 11.5791 13.4377M3.60597 5.98498H9.49716C9.69748 5.98498 9.88957 5.90539 10.0312 5.76375C10.1729 5.62211 10.2524 5.43 10.2524 5.22969C10.2524 5.02936 10.1729 4.83725 10.0312 4.69561C9.88957 4.55397 9.69748 4.47438 9.49716 4.47438H6.37901V3.95766H9.49716C9.83403 3.95766 10.1571 4.09149 10.3953 4.3297C10.6335 4.5679 10.7674 4.89099 10.7674 5.22786C10.7674 5.56474 10.6335 5.88781 10.3953 6.12603C10.1571 6.36425 9.83403 6.49807 9.49716 6.49807H3.60597C3.5939 6.49807 3.5823 6.50285 3.57376 6.51139C3.56522 6.51993 3.56043 6.53151 3.56043 6.54358V9.4391C3.56043 9.45119 3.56522 9.46277 3.57376 9.47129C3.5823 9.47983 3.5939 9.48463 3.60597 9.48463H9.49716C9.66395 9.48463 9.82912 9.51748 9.98325 9.58132C10.1373 9.64517 10.2774 9.73871 10.3953 9.85667C10.5133 9.97462 10.6068 10.1146 10.6707 10.2687C10.7345 10.4229 10.7674 10.588 10.7674 10.7548C10.7674 10.9216 10.7345 11.0868 10.6707 11.2409C10.6068 11.395 10.5133 11.5351 10.3953 11.653C10.2774 11.7709 10.1373 11.8645 9.98325 11.9283C9.82912 11.9922 9.66395 12.025 9.49716 12.025H6.37901V11.5101H9.49716C9.69748 11.5101 9.88957 11.4305 10.0312 11.2889C10.1729 11.1473 10.2524 10.9552 10.2524 10.7548C10.2524 10.5545 10.1729 10.3624 10.0312 10.2208C9.88957 10.0791 9.69748 9.99954 9.49716 9.99954H3.60597C3.5939 9.99954 3.5823 10.0043 3.57376 10.0129C3.56522 10.0214 3.56043 10.033 3.56043 10.0451V13.394C3.56043 13.4061 3.56522 13.4177 3.57376 13.4262C3.5823 13.4348 3.5939 13.4396 3.60597 13.4396H9.76166C10.3643 13.4241 10.9451 13.2103 11.4139 12.8313C11.8827 12.4523 12.2135 11.9292 12.3548 11.3432C12.4962 10.7571 12.4404 10.1408 12.1959 9.5897C11.9515 9.03863 11.5321 8.58356 11.0027 8.29501C10.8771 8.22505 10.746 8.16535 10.6107 8.11654C10.471 8.06588 10.3275 8.02658 10.1814 7.99909C10.3254 7.97187 10.4669 7.93334 10.6048 7.8839H10.6107C10.7459 7.83475 10.877 7.77493 11.0027 7.70499C11.5321 7.41639 11.9516 6.96119 12.196 6.40999C12.4404 5.85878 12.4962 5.24233 12.3546 4.65619C12.2131 4.07007 11.8821 3.54703 11.4131 3.16811C10.944 2.7892 10.3631 2.5756 9.7603 2.56044H3.60597C3.5939 2.56044 3.5823 2.56524 3.57376 2.57376C3.56522 2.5823 3.56043 2.59388 3.56043 2.60595V5.93944C3.56043 5.95152 3.56522 5.96309 3.57376 5.97164C3.5823 5.98018 3.5939 5.98498 3.60597 5.98498ZM15 2H3V14H15V2ZM11.5809 13.394C12.0156 13.0912 12.3706 12.6878 12.6158 12.2182C12.8609 11.7486 12.9889 11.2268 12.9889 10.697C12.9889 10.1673 12.8609 9.6454 12.6158 9.17579C12.3706 8.70621 12.0156 8.30282 11.5809 7.99999C12.0156 7.69718 12.3706 7.29379 12.6158 6.8242C12.8609 6.3546 12.9889 5.83273 12.9889 5.30297C12.9889 4.77324 12.8609 4.25137 12.6158 3.78176C12.3706 3.31218 12.0156 2.90879 11.5809 2.60595H14.394V13.3959L11.5809 13.394ZM3.60597 5.93944V2.60595H9.7603C11.2172 2.65469 12.3845 3.84612 12.3845 5.30297C12.3838 5.7863 12.2531 6.26052 12.0061 6.67598C11.7592 7.09144 11.4051 7.43286 10.9809 7.66447C10.8572 7.73323 10.7283 7.79201 10.5953 7.8402C10.3277 7.93742 10.0463 7.99135 9.76166 7.99999C10.0467 8.00879 10.3286 8.06289 10.5966 8.16027C10.7297 8.20827 10.8587 8.26703 10.9822 8.33598C11.4059 8.56758 11.7596 8.9088 12.0063 9.32391C12.253 9.73901 12.3836 10.2128 12.3845 10.6956C12.3845 12.1525 11.2158 13.3444 9.7603 13.3927H3.60597V10.0451H9.49716C9.68539 10.0451 9.86593 10.1199 9.99904 10.253C10.1321 10.3861 10.2069 10.5666 10.2069 10.7548C10.2069 10.9431 10.1321 11.1236 9.99904 11.2567C9.86593 11.3898 9.68539 11.4646 9.49716 11.4646H6.33348V12.0706H9.49716C9.84611 12.0706 10.1808 11.9319 10.4275 11.6852C10.6743 11.4385 10.8129 11.1038 10.8129 10.7548C10.8129 10.4059 10.6743 10.0712 10.4275 9.82448C10.1808 9.57772 9.84611 9.4391 9.49716 9.4391H3.60597V6.54542H9.49716C9.84611 6.54542 10.1808 6.40679 10.4275 6.16003C10.6743 5.9133 10.8129 5.57863 10.8129 5.22969C10.8129 4.88073 10.6743 4.54606 10.4275 4.29932C10.1808 4.05257 9.84611 3.91396 9.49716 3.91396H6.33348V4.51992H9.49716C9.68539 4.51992 9.86593 4.5947 9.99904 4.7278C10.1321 4.86092 10.2069 5.04143 10.2069 5.22969C10.2069 5.41793 10.1321 5.59846 9.99904 5.73156C9.86593 5.86466 9.68539 5.93944 9.49716 5.93944H3.60597Z" fill="white"/>
</svg>
