<svg width="90" height="24" viewBox="0 0 90 24" fill="none" xmlns="http://www.w3.org/2000/svg">
<g filter="url(#filter0_d_14461_62675)">
<path d="M31.7754 18.9882L32.1516 18.956C32.1621 19.0865 32.204 19.2127 32.2739 19.3238C32.3502 19.4286 32.4553 19.5092 32.5767 19.5563C32.7228 19.6168 32.8801 19.6468 33.0384 19.6443C33.1756 19.6467 33.3121 19.6241 33.4409 19.5775C33.5435 19.543 33.6338 19.4798 33.7009 19.3954C33.7565 19.3214 33.7863 19.2316 33.7859 19.1393C33.7868 19.0515 33.758 18.966 33.704 18.8965C33.6313 18.8145 33.5376 18.7535 33.433 18.7199C33.2571 18.6623 33.0782 18.6139 32.8972 18.5748C32.697 18.5341 32.5018 18.4714 32.3155 18.3879C32.1854 18.3253 32.0745 18.2294 31.9944 18.1099C31.9238 17.9986 31.887 17.8694 31.8886 17.7379C31.8882 17.5866 31.9334 17.4386 32.0182 17.313C32.1102 17.1774 32.2419 17.0731 32.3957 17.0144C32.5706 16.9448 32.7576 16.9101 32.9461 16.9124C33.1484 16.9085 33.3493 16.945 33.537 17.0198C33.6971 17.0828 33.8342 17.1924 33.9303 17.3343C34.0224 17.4744 34.0734 17.6373 34.0776 17.8046L33.696 17.8331C33.6918 17.7517 33.6711 17.6717 33.6353 17.5983C33.5994 17.5248 33.5492 17.4592 33.4874 17.4052C33.3688 17.3088 33.1944 17.2608 32.9626 17.2608C32.7217 17.2608 32.5461 17.3051 32.436 17.3925C32.3853 17.4287 32.3439 17.4762 32.3152 17.5313C32.2865 17.5864 32.2713 17.6474 32.2708 17.7093C32.2696 17.7592 32.2794 17.8088 32.2996 17.8546C32.3198 17.9003 32.3498 17.9411 32.3876 17.974C32.4647 18.0432 32.6648 18.1148 32.9883 18.187C33.2157 18.231 33.4388 18.2948 33.655 18.3776C33.8099 18.4415 33.944 18.5465 34.0428 18.6811C34.1272 18.8067 34.171 18.9549 34.1681 19.1059C34.1679 19.2658 34.12 19.4221 34.0305 19.555C33.9336 19.7002 33.7964 19.8142 33.6355 19.8834C33.4528 19.9637 33.2547 20.0034 33.055 20C32.8211 20.007 32.5883 19.967 32.3705 19.8822C32.1936 19.8091 32.0426 19.6853 31.9369 19.5265C31.8328 19.3659 31.7768 19.1791 31.7754 18.9882Z" fill="white"/>
<path d="M40.1445 19.9445V17.3097H39.1523V16.957H41.5378V17.3097H40.5426V19.9445H40.1445Z" fill="white"/>
<path d="M46.5215 19.9445L47.6775 16.957H48.1056L49.3375 19.9445H48.8836L48.5326 19.0395H47.275L46.9441 19.9445H46.5215ZM47.39 18.7172H48.4102L48.0965 17.8899C48.0006 17.6386 47.9295 17.4323 47.883 17.2708C47.8439 17.4649 47.7894 17.6557 47.7203 17.8414L47.39 18.7172Z" fill="white"/>
<path d="M55.8289 18.7769V18.4267H57.1041V19.5332C56.9217 19.6804 56.7172 19.7983 56.498 19.8828C56.2934 19.9601 56.0765 19.9997 55.8576 19.9993C55.5774 20.0032 55.3005 19.9385 55.0514 19.8111C54.8155 19.6909 54.6239 19.4997 54.504 19.2649C54.3792 19.0178 54.3163 18.7444 54.3205 18.468C54.3181 18.1865 54.3809 17.9083 54.504 17.6547C54.6142 17.4155 54.7996 17.2182 55.0325 17.0926C55.2782 16.9672 55.5515 16.9047 55.8276 16.9105C56.0293 16.9079 56.2297 16.9435 56.4179 17.0156C56.5791 17.0754 56.7217 17.1763 56.8313 17.3081C56.9407 17.4524 57.0185 17.6177 57.0595 17.7937L56.6998 17.8914C56.666 17.7629 56.609 17.6416 56.5316 17.5333C56.456 17.4398 56.3568 17.3677 56.2442 17.3245C56.1126 17.2708 55.9716 17.2439 55.8294 17.2456C55.668 17.2419 55.5075 17.2702 55.3572 17.3287C55.235 17.3761 55.125 17.4502 55.0356 17.5454C54.9558 17.6325 54.8917 17.7325 54.8459 17.841C54.7678 18.0317 54.7288 18.236 54.7309 18.4419C54.7231 18.6722 54.7705 18.901 54.8692 19.1095C54.9558 19.2831 55.0977 19.4235 55.2729 19.5089C55.4476 19.5953 55.6403 19.64 55.8356 19.6394C56.0088 19.6392 56.1803 19.6058 56.3408 19.5411C56.4761 19.4915 56.6024 19.4201 56.7145 19.3298V18.7733L55.8289 18.7769Z" fill="white"/>
<path d="M62.0859 19.9445V16.957H62.4841V19.9445H62.0859Z" fill="white"/>
<path d="M67.4668 19.9445V16.957H67.8754L69.4565 19.3022V16.957H69.8381V19.9445H69.4296L67.8485 17.5967V19.9445H67.4668Z" fill="white"/>
<path d="M76.3282 18.7769V18.4267H77.6036V19.5332C77.4212 19.6802 77.2169 19.7981 76.998 19.8828C76.7933 19.9601 76.5761 19.9997 76.357 19.9993C76.077 20.0031 75.8004 19.9384 75.5515 19.8111C75.3153 19.6912 75.1236 19.4999 75.0041 19.2649C74.8789 19.0178 74.816 18.7444 74.8205 18.468C74.8185 18.1865 74.8813 17.9083 75.0041 17.6547C75.1144 17.4153 75.3 17.2181 75.5331 17.0926C75.7788 16.9672 76.0521 16.9047 76.3282 16.9105C76.53 16.9078 76.7304 16.9433 76.9185 17.0156C77.08 17.0754 77.2228 17.1763 77.3326 17.3081C77.4416 17.4525 77.5191 17.6179 77.5601 17.7937L77.2011 17.8914C77.166 17.7638 77.1079 17.6435 77.0298 17.5363C76.9543 17.4427 76.8551 17.3706 76.7423 17.3275C76.6109 17.2737 76.4698 17.2469 76.3277 17.2486C76.1663 17.245 76.0057 17.2733 75.8555 17.3318C75.7334 17.3792 75.6237 17.4532 75.5344 17.5485C75.4544 17.6355 75.3901 17.7354 75.3441 17.844C75.2663 18.0349 75.2273 18.2391 75.2291 18.4449C75.2215 18.6752 75.2692 18.9041 75.368 19.1125C75.4546 19.286 75.5962 19.4263 75.7711 19.5119C75.9458 19.5983 76.1385 19.643 76.3338 19.6424C76.507 19.6424 76.6786 19.6089 76.839 19.5441C76.9745 19.4946 77.1008 19.4232 77.2127 19.3329V18.7763L76.3282 18.7769Z" fill="white"/>
<path d="M4.03125 19.9665V4.0293H20.0918V19.9665H4.03125ZM15.5302 4.77645C15.5236 4.7765 15.5173 4.77858 15.5121 4.78239C15.5068 4.7862 15.5028 4.79155 15.5008 4.79769C15.4988 4.80384 15.4988 4.81048 15.5009 4.81662C15.503 4.82276 15.507 4.82804 15.5124 4.83168C16.0925 5.23251 16.5663 5.76654 16.8934 6.38825C17.2206 7.00998 17.3915 7.70097 17.3915 8.40235C17.3915 9.10374 17.2206 9.79473 16.8934 10.4164C16.5663 11.0382 16.0925 11.5722 15.5124 11.973C15.5084 11.9758 15.5051 11.9795 15.5028 11.9839C15.5006 11.9882 15.4995 11.9931 15.4996 11.9979C15.4994 12.0028 15.5005 12.0077 15.5028 12.012C15.505 12.0164 15.5083 12.0201 15.5124 12.0228C16.0925 12.4236 16.5663 12.9577 16.8934 13.5793C17.2206 14.2011 17.3915 14.892 17.3915 15.5935C17.3915 16.2948 17.2206 16.9859 16.8934 17.6075C16.5663 18.2293 16.0925 18.7633 15.5124 19.1641C15.5071 19.1678 15.5031 19.1731 15.501 19.1793C15.4989 19.1855 15.4988 19.192 15.5008 19.1982C15.5028 19.2044 15.5067 19.2098 15.512 19.2136C15.5173 19.2174 15.5236 19.2194 15.5302 19.2193H19.3095C19.3177 19.2193 19.3254 19.2162 19.3312 19.2105C19.3369 19.2048 19.3401 19.1971 19.3401 19.189V4.80437C19.3401 4.79632 19.3369 4.7886 19.3312 4.78291C19.3254 4.77722 19.3177 4.77402 19.3095 4.77402L15.5302 4.77645ZM4.81477 14.6939C4.80666 14.6939 4.79888 14.6972 4.79314 14.7029C4.78741 14.7086 4.78419 14.7163 4.78419 14.7243V19.189C4.78419 19.1971 4.78741 19.2048 4.79314 19.2105C4.79888 19.2162 4.80666 19.2193 4.81477 19.2193H13.083C13.8845 19.1972 14.6564 18.9136 15.2793 18.4125C15.9023 17.9116 16.3417 17.2209 16.5296 16.4475C16.7175 15.6739 16.6435 14.8604 16.3191 14.1328C15.9946 13.4052 15.4377 12.8038 14.7344 12.4216C14.567 12.329 14.3924 12.25 14.2121 12.1855C13.9668 12.0972 13.7128 12.0351 13.4543 12.0004C13.711 11.9662 13.9634 11.9052 14.2071 11.8183H14.2121C14.3923 11.7533 14.567 11.6742 14.7344 11.5815C15.4377 11.1993 15.9946 10.5979 16.3191 9.87027C16.6435 9.14263 16.7175 8.32921 16.5296 7.55568C16.3417 6.78213 15.9023 6.09152 15.2793 5.59051C14.6564 5.0895 13.8845 4.80598 13.083 4.78373H4.81477C4.80671 4.78388 4.79902 4.78713 4.79331 4.79279C4.78762 4.79845 4.78434 4.80608 4.78419 4.81408V9.25087C4.78419 9.25891 4.78741 9.26663 4.79314 9.27232C4.79888 9.27801 4.80666 9.28121 4.81477 9.28121H12.7295C12.9904 9.28121 13.2408 9.17832 13.4253 8.99518C13.6099 8.81203 13.7136 8.56364 13.7136 8.30463C13.7136 8.04562 13.6099 7.79723 13.4253 7.61409C13.2408 7.43094 12.9904 7.32806 12.7295 7.32806H8.5091V6.5809H12.7295C12.9576 6.5809 13.1834 6.62549 13.3942 6.71212C13.605 6.79874 13.7964 6.92571 13.9577 7.08577C14.1191 7.24584 14.247 7.43586 14.3343 7.64499C14.4216 7.85412 14.4665 8.07827 14.4665 8.30463C14.4665 8.53099 14.4216 8.75514 14.3343 8.96427C14.247 9.1734 14.1191 9.36343 13.9577 9.5235C13.7964 9.68355 13.605 9.81053 13.3942 9.89715C13.1834 9.98377 12.9576 10.0284 12.7295 10.0284H4.81477C4.80671 10.0285 4.79902 10.0318 4.79331 10.0374C4.78762 10.0431 4.78434 10.0507 4.78419 10.0587V13.9165C4.78434 13.9244 4.78762 13.9321 4.79331 13.9378C4.79902 13.9434 4.80671 13.9466 4.81477 13.9468H12.7295C13.1901 13.9468 13.632 14.1284 13.9577 14.4517C14.2835 14.7749 14.4665 15.2134 14.4665 15.6706C14.4665 16.1277 14.2835 16.5661 13.9577 16.8894C13.632 17.2126 13.1901 17.3943 12.7295 17.3943H8.5091V16.6471H12.7295C12.9904 16.6471 13.2408 16.5443 13.4253 16.3611C13.6099 16.178 13.7136 15.9296 13.7136 15.6706C13.7136 15.4115 13.6099 15.1632 13.4253 14.98C13.2408 14.7969 12.9904 14.6939 12.7295 14.6939H4.81477Z" fill="white"/>
<path d="M20.0605 4.0607V19.9372H4.06117V4.0607H20.0605ZM15.5283 19.2508H19.3077C19.3239 19.2508 19.3394 19.2444 19.3509 19.233C19.3624 19.2216 19.3688 19.2062 19.3688 19.1901V4.80542C19.3688 4.78932 19.3624 4.77389 19.3509 4.7625C19.3394 4.75112 19.3239 4.74473 19.3077 4.74473H15.5283C15.5148 4.74411 15.5014 4.74794 15.4904 4.75564C15.4793 4.76332 15.4712 4.77442 15.4672 4.78721C15.4632 4.79952 15.4634 4.81275 15.4676 4.82497C15.4717 4.8372 15.4797 4.84778 15.4904 4.85519C16.0664 5.25322 16.5369 5.78352 16.8617 6.40091C17.1866 7.0183 17.3563 7.70448 17.3563 8.40097C17.3563 9.09747 17.1866 9.78365 16.8617 10.401C16.5369 11.0184 16.0664 11.5487 15.4904 11.9468C15.4824 11.9524 15.4758 11.9599 15.4714 11.9686C15.4669 11.9772 15.4646 11.9868 15.4647 11.9965C15.4646 12.0062 15.4669 12.0158 15.4714 12.0245C15.4758 12.0332 15.4824 12.0407 15.4904 12.0463C16.0664 12.4444 16.5369 12.9747 16.8617 13.592C17.1866 14.2094 17.3563 14.8956 17.3563 15.5921C17.3563 16.2886 17.1866 16.9748 16.8617 17.5921C16.5369 18.2095 16.0664 18.7398 15.4904 19.1379C15.4797 19.1453 15.4717 19.1559 15.4674 19.1682C15.4632 19.1804 15.4631 19.1938 15.4671 19.2061C15.4711 19.2185 15.4789 19.2292 15.4895 19.2368C15.5001 19.2444 15.5127 19.2484 15.5258 19.2483M4.8141 9.31261H12.7287C12.9979 9.31261 13.256 9.20652 13.4463 9.01768C13.6366 8.82885 13.7435 8.57273 13.7435 8.30568C13.7435 8.03863 13.6366 7.78251 13.4463 7.59368C13.256 7.40485 12.9979 7.29876 12.7287 7.29876H8.53963V6.60987H12.7287C13.1814 6.60987 13.6154 6.78828 13.9355 7.10585C14.2555 7.42342 14.4353 7.85414 14.4353 8.30325C14.4353 8.75237 14.2555 9.18309 13.9355 9.50066C13.6154 9.81823 13.1814 9.99664 12.7287 9.99664H4.8141C4.79787 9.99664 4.78232 10.003 4.77085 10.0144C4.75938 10.0258 4.75294 10.0412 4.75294 10.0573V13.9175C4.75294 13.9336 4.75938 13.9491 4.77085 13.9605C4.78232 13.9718 4.79787 13.9782 4.8141 13.9782H12.7287C12.9529 13.9782 13.1748 14.022 13.3818 14.1071C13.5888 14.1922 13.777 14.3169 13.9355 14.4742C14.0939 14.6314 14.2196 14.8181 14.3054 15.0236C14.3911 15.229 14.4353 15.4493 14.4353 15.6716C14.4353 15.8939 14.3911 16.1141 14.3054 16.3196C14.2196 16.525 14.0939 16.7118 13.9355 16.869C13.777 17.0263 13.5888 17.1509 13.3818 17.2361C13.1748 17.3212 12.9529 17.365 12.7287 17.365H8.53963V16.6786H12.7287C12.9979 16.6786 13.256 16.5724 13.4463 16.3836C13.6366 16.1948 13.7435 15.9386 13.7435 15.6716C13.7435 15.4045 13.6366 15.1484 13.4463 14.9596C13.256 14.7707 12.9979 14.6646 12.7287 14.6646H4.8141C4.79787 14.6646 4.78232 14.6711 4.77085 14.6824C4.75938 14.6938 4.75294 14.7092 4.75294 14.7254V19.1901C4.75294 19.2062 4.75938 19.2216 4.77085 19.233C4.78232 19.2444 4.79787 19.2508 4.8141 19.2508H13.0841C13.8938 19.2302 14.674 18.9451 15.3039 18.4399C15.9338 17.9346 16.3781 17.2372 16.568 16.4559C16.7579 15.6746 16.6829 14.853 16.3545 14.1183C16.0261 13.3836 15.4626 12.777 14.7515 12.3923C14.5828 12.299 14.4066 12.2194 14.2249 12.1543C14.0372 12.0867 13.8443 12.0344 13.6481 11.9977C13.8414 11.9615 14.0316 11.9101 14.2169 11.8442H14.2249C14.4065 11.7787 14.5826 11.6989 14.7515 11.6057C15.4627 11.2209 16.0263 10.6141 16.3547 9.87921C16.683 9.14435 16.7579 8.32253 16.5677 7.54114C16.3776 6.75974 15.933 6.06242 15.3028 5.55727C14.6726 5.05213 13.8922 4.76737 13.0823 4.74716H4.8141C4.79787 4.74716 4.78232 4.75355 4.77085 4.76493C4.75938 4.77631 4.75294 4.79175 4.75294 4.80784V9.25191C4.75294 9.26801 4.75938 9.28345 4.77085 9.29483C4.78232 9.30621 4.79787 9.31261 4.8141 9.31261ZM20.1218 4H4V19.9979H20.1218V4ZM15.5283 19.1901C16.1122 18.7864 16.5892 18.2486 16.9185 17.6225C17.2479 16.9965 17.42 16.3007 17.42 15.5945C17.42 14.8883 17.2479 14.1925 16.9185 13.5665C16.5892 12.9405 16.1122 12.4027 15.5283 11.9989C16.1122 11.5953 16.5892 11.0575 16.9185 10.4314C17.2479 9.80539 17.42 9.10962 17.42 8.4034C17.42 7.69718 17.2479 7.00142 16.9185 6.37538C16.5892 5.74933 16.1122 5.21156 15.5283 4.80784H19.3077V19.1925L15.5283 19.1901ZM4.8141 9.25191V4.80784H13.0823C15.0396 4.87279 16.6078 6.46117 16.6078 8.4034C16.6068 9.04773 16.4313 9.67994 16.0995 10.2338C15.7678 10.7877 15.2921 11.2428 14.7221 11.5516C14.556 11.6433 14.3828 11.7216 14.2041 11.7859C13.8445 11.9155 13.4665 11.9874 13.0841 11.9989C13.4671 12.0107 13.8458 12.0828 14.2059 12.2126C14.3848 12.2766 14.558 12.3549 14.7239 12.4469C15.2932 12.7557 15.7684 13.2105 16.0998 13.764C16.4312 14.3173 16.6067 14.9489 16.6078 15.5927C16.6078 17.535 15.0378 19.1239 13.0823 19.1882H4.8141V14.7254H12.7287C12.9817 14.7254 13.2242 14.8251 13.403 15.0025C13.5819 15.1799 13.6823 15.4207 13.6823 15.6716C13.6823 15.9225 13.5819 16.1632 13.403 16.3407C13.2242 16.5181 12.9817 16.6178 12.7287 16.6178H8.47847V17.4256H12.7287C13.1976 17.4256 13.6472 17.2409 13.9787 16.9119C14.3102 16.583 14.4964 16.1368 14.4964 15.6716C14.4964 15.2064 14.3102 14.7602 13.9787 14.4313C13.6472 14.1023 13.1976 13.9175 12.7287 13.9175H4.8141V10.0598H12.7287C13.1976 10.0598 13.6472 9.87495 13.9787 9.546C14.3102 9.21705 14.4964 8.77089 14.4964 8.30568C14.4964 7.84047 14.3102 7.39432 13.9787 7.06536C13.6472 6.73641 13.1976 6.55161 12.7287 6.55161H8.47847V7.35945H12.7287C12.9817 7.35945 13.2242 7.45914 13.403 7.6366C13.5819 7.81405 13.6823 8.05473 13.6823 8.30568C13.6823 8.55664 13.5819 8.79732 13.403 8.97477C13.2242 9.15222 12.9817 9.25191 12.7287 9.25191H4.8141Z" fill="white"/>
<path d="M23.9141 13.4301V4H27.4793C28.2056 4 28.788 4.09549 29.2268 4.28648C29.6538 4.46761 30.0138 4.77547 30.2574 5.16777C30.4982 5.53899 30.6274 5.97057 30.6299 6.41201C30.6309 6.81461 30.5172 7.2093 30.3021 7.55064C30.0814 7.90631 29.7486 8.19381 29.3033 8.41311C29.8782 8.58023 30.3202 8.86529 30.6293 9.2683C30.9408 9.67931 31.1041 10.1823 31.093 10.6965C31.0962 11.1233 30.9997 11.545 30.811 11.9285C30.6517 12.2717 30.4128 12.5724 30.1137 12.8062C29.8016 13.0284 29.4482 13.1871 29.0739 13.2729C28.6568 13.3774 28.1458 13.4297 27.5411 13.4301H23.9141ZM25.1716 7.96276H27.2267C27.7837 7.96276 28.1836 7.92634 28.4262 7.85351C28.7463 7.75882 28.987 7.60223 29.1485 7.38373C29.31 7.16523 29.3915 6.89068 29.3932 6.5601C29.3991 6.26864 29.3204 5.98164 29.1663 5.73344C29.0168 5.49875 28.7863 5.32613 28.5179 5.24788C28.2373 5.15968 27.7556 5.11577 27.0726 5.11617H25.1716V7.96276ZM25.1716 12.3176H27.5381C27.8242 12.3248 28.1106 12.3098 28.3943 12.2727C28.6506 12.2332 28.8969 12.1459 29.1204 12.0153C29.3238 11.8852 29.4891 11.7043 29.5999 11.491C29.729 11.2461 29.7936 10.9728 29.7877 10.6965C29.7955 10.3703 29.7003 10.0498 29.5155 9.77996C29.3321 9.51942 29.0663 9.32716 28.7601 9.2337C28.4384 9.1289 27.975 9.0763 27.3699 9.0759H25.1716V12.3176Z" fill="white"/>
<path d="M37.8887 13.4301V4H44.029V5.11314H39.0135V8.00099H43.7109V9.10746H39.0135V12.3152H44.2266V13.4277L37.8887 13.4301Z" fill="white"/>
<path d="M51.0312 13.4301V4H52.2888V12.3152H56.9709V13.4277L51.0312 13.4301Z" fill="white"/>
<path d="M63.7695 13.4301V4H65.0271V12.3152H69.7074V13.4277L63.7695 13.4301Z" fill="white"/>
<path d="M81.667 5.4324V5.43119L80.9869 4L80.3061 5.43119L76.5078 13.4301H77.8669L80.9869 6.86236L84.1044 13.4301H85.4654L81.667 5.4324Z" fill="white"/>
</g>
<defs>
<filter id="filter0_d_14461_62675" x="0" y="0" width="89.4648" height="24" filterUnits="userSpaceOnUse" color-interpolation-filters="sRGB">
<feFlood flood-opacity="0" result="BackgroundImageFix"/>
<feColorMatrix in="SourceAlpha" type="matrix" values="0 0 0 0 0 0 0 0 0 0 0 0 0 0 0 0 0 0 127 0" result="hardAlpha"/>
<feOffset/>
<feGaussianBlur stdDeviation="2"/>
<feComposite in2="hardAlpha" operator="out"/>
<feColorMatrix type="matrix" values="0 0 0 0 0 0 0 0 0 0 0 0 0 0 0 0 0 0 0.25 0"/>
<feBlend mode="normal" in2="BackgroundImageFix" result="effect1_dropShadow_14461_62675"/>
<feBlend mode="normal" in="SourceGraphic" in2="effect1_dropShadow_14461_62675" result="shape"/>
</filter>
</defs>
</svg>
