<svg width="272" height="100" viewBox="0 0 272 100" fill="none" xmlns="http://www.w3.org/2000/svg">
<path d="M23.1191 71.5891V26.6328H67.781V71.5891H23.1191ZM55.0958 28.7403C55.0776 28.7405 55.06 28.7464 55.0454 28.7571C55.0308 28.7679 55.0198 28.783 55.0141 28.8003C55.0084 28.8176 55.0084 28.8364 55.0143 28.8537C55.0201 28.871 55.0314 28.8859 55.0464 28.8962C56.6594 30.0268 57.9769 31.5333 58.8867 33.287C59.7965 35.0408 60.2717 36.99 60.2717 38.9685C60.2717 40.947 59.7965 42.8961 58.8867 44.6499C57.9769 46.4037 56.6594 47.9101 55.0464 49.0408C55.0352 49.0486 55.0261 49.0591 55.0199 49.0713C55.0137 49.0836 55.0105 49.0971 55.0107 49.111C55.0102 49.1248 55.0132 49.1385 55.0194 49.1508C55.0257 49.163 55.035 49.1735 55.0464 49.1811C56.6594 50.3118 57.9769 51.8182 58.8867 53.5719C59.7965 55.3257 60.2717 57.2749 60.2717 59.2534C60.2717 61.2319 59.7965 63.181 58.8867 64.9348C57.9769 66.6886 56.6594 68.195 55.0464 69.3256C55.0316 69.3362 55.0204 69.3511 55.0145 69.3685C55.0087 69.3857 55.0086 69.4045 55.0141 69.4218C55.0196 69.4393 55.0305 69.4545 55.0452 69.4652C55.0599 69.4759 55.0776 69.4817 55.0958 69.4815H65.6055C65.6281 69.4815 65.6497 69.4725 65.6657 69.4564C65.6816 69.4403 65.6906 69.4186 65.6906 69.3959V28.8191C65.6906 28.7964 65.6816 28.7747 65.6657 28.7586C65.6497 28.7425 65.6281 28.7335 65.6055 28.7335L55.0958 28.7403ZM25.298 56.7161C25.2754 56.7161 25.2538 56.7251 25.2378 56.7411C25.2219 56.7572 25.2129 56.779 25.2129 56.8017V69.3959C25.2129 69.4186 25.2219 69.4403 25.2378 69.4564C25.2538 69.4725 25.2754 69.4815 25.298 69.4815H48.2905C50.5195 69.4187 52.6659 68.6189 54.3983 67.2057C56.1305 65.7925 57.3523 63.8443 57.875 61.6623C58.3975 59.4802 58.1918 57.1857 57.2895 55.1332C56.3872 53.0806 54.8386 51.3841 52.8829 50.306C52.4174 50.0448 51.9316 49.8221 51.4304 49.64C50.7483 49.391 50.0419 49.2159 49.3229 49.1178C50.0369 49.0214 50.7387 48.8493 51.4167 48.6041H51.4304C51.9315 48.421 52.4173 48.1977 52.8829 47.9364C54.8386 46.8582 56.3872 45.1618 57.2895 43.1093C58.1918 41.0566 58.3975 38.7621 57.875 36.5801C57.3523 34.3981 56.1305 32.45 54.3983 31.0367C52.6659 29.6234 50.5195 28.8237 48.2905 28.761H25.298C25.2755 28.7613 25.2541 28.7705 25.2383 28.7864C25.2224 28.8025 25.2134 28.824 25.2129 28.8465V41.3619C25.2129 41.3847 25.2219 41.4064 25.2378 41.4225C25.2538 41.4386 25.2754 41.4476 25.298 41.4476H47.3074C48.0333 41.4476 48.7293 41.1573 49.2426 40.6407C49.7558 40.1241 50.0441 39.4234 50.0441 38.6928C50.0441 37.9622 49.7558 37.2615 49.2426 36.7448C48.7293 36.2283 48.0333 35.938 47.3074 35.938H35.5712V33.8304H47.3074C47.9418 33.8304 48.5699 33.9562 49.156 34.2006C49.742 34.4449 50.2746 34.8031 50.7231 35.2546C51.1716 35.7061 51.5275 36.2421 51.7702 36.832C52.013 37.422 52.1379 38.0542 52.1379 38.6928C52.1379 39.3313 52.013 39.9636 51.7702 40.5535C51.5275 41.1435 51.1716 41.6795 50.7231 42.131C50.2746 42.5825 49.742 42.9407 49.156 43.185C48.5699 43.4294 47.9418 43.5552 47.3074 43.5552H25.298C25.2755 43.5556 25.2541 43.5648 25.2383 43.5807C25.2224 43.5967 25.2134 43.6182 25.2129 43.6408V54.5229C25.2134 54.5455 25.2224 54.567 25.2383 54.5829C25.2541 54.5989 25.2755 54.608 25.298 54.6085H47.3074C48.5885 54.6085 49.8172 55.1208 50.7231 56.0326C51.629 56.9445 52.1379 58.1813 52.1379 59.4709C52.1379 60.7604 51.629 61.9971 50.7231 62.9091C49.8172 63.8209 48.5885 64.3332 47.3074 64.3332H35.5712V62.2256H47.3074C48.0333 62.2256 48.7293 61.9354 49.2426 61.4187C49.7558 60.9021 50.0441 60.2015 50.0441 59.4709C50.0441 58.7402 49.7558 58.0395 49.2426 57.5229C48.7293 57.0064 48.0333 56.7161 47.3074 56.7161H25.298Z" fill="white"/>
<path d="M67.697 26.7181V71.5032H23.2053V26.7181H67.697ZM55.0935 69.5668H65.6032C65.6483 69.5668 65.6917 69.5487 65.7236 69.5166C65.7555 69.4846 65.7734 69.441 65.7734 69.3955V28.8188C65.7734 28.7734 65.7555 28.7299 65.7236 28.6978C65.6917 28.6656 65.6483 28.6476 65.6032 28.6476H55.0935C55.0559 28.6459 55.0189 28.6567 54.9882 28.6784C54.9574 28.7001 54.9346 28.7314 54.9234 28.7675C54.9125 28.8022 54.9129 28.8395 54.9245 28.874C54.9362 28.9085 54.9584 28.9383 54.988 28.9593C56.5898 30.082 57.8981 31.5779 58.8016 33.3194C59.705 35.061 60.1769 36.9966 60.1769 38.9613C60.1769 40.926 59.705 42.8617 58.8016 44.6032C57.8981 46.3448 56.5898 47.8406 54.988 48.9634C54.9658 48.9794 54.9478 49.0004 54.9353 49.0248C54.9229 49.0493 54.9165 49.0763 54.9166 49.1038C54.9165 49.1312 54.9229 49.1583 54.9353 49.1827C54.9478 49.2072 54.9658 49.2283 54.988 49.2442C56.5898 50.367 57.8981 51.8629 58.8016 53.6044C59.705 55.346 60.1769 57.2816 60.1769 59.2463C60.1769 61.2109 59.705 63.1465 58.8016 64.8881C57.8981 66.6297 56.5898 68.1255 54.988 69.2484C54.9582 69.2693 54.9359 69.2992 54.9243 69.3339C54.9126 69.3685 54.9123 69.4059 54.9233 69.4408C54.9344 69.4755 54.9562 69.5059 54.9855 69.5273C55.0149 69.5488 55.0504 69.5602 55.0867 69.56M25.299 41.5329H47.3085C48.0569 41.5329 48.7746 41.2336 49.3038 40.7009C49.833 40.1683 50.1303 39.4458 50.1303 38.6925C50.1303 37.9392 49.833 37.2167 49.3038 36.684C48.7746 36.1514 48.0569 35.8521 47.3085 35.8521H35.6591V33.9089H47.3085C48.5671 33.9089 49.7741 34.4122 50.6641 35.308C51.554 36.2038 52.054 37.4188 52.054 38.6856C52.054 39.9525 51.554 41.1675 50.6641 42.0633C49.7741 42.9592 48.5671 43.4625 47.3085 43.4625H25.299C25.254 43.4625 25.2106 43.4804 25.1787 43.5125C25.1468 43.5447 25.1289 43.5882 25.1289 43.6336V54.5225C25.1289 54.568 25.1468 54.6116 25.1787 54.6436C25.2106 54.6757 25.254 54.6938 25.299 54.6938H47.3085C47.9317 54.6938 48.5488 54.8173 49.1246 55.0574C49.7003 55.2975 50.2234 55.6493 50.6641 56.0929C51.1048 56.5364 51.4543 57.063 51.6928 57.6425C51.9312 58.2221 52.054 58.8432 52.054 59.4705C52.054 60.0978 51.9312 60.719 51.6928 61.2986C51.4543 61.8781 51.1048 62.4047 50.6641 62.8482C50.2234 63.2917 49.7003 63.6436 49.1246 63.8837C48.5488 64.1238 47.9317 64.2473 47.3085 64.2473H35.6591V62.3109H47.3085C48.0569 62.3109 48.7746 62.0117 49.3038 61.479C49.833 60.9463 50.1303 60.2239 50.1303 59.4705C50.1303 58.7172 49.833 57.9947 49.3038 57.4621C48.7746 56.9294 48.0569 56.6301 47.3085 56.6301H25.299C25.254 56.6301 25.2106 56.6482 25.1787 56.6803C25.1468 56.7124 25.1289 56.756 25.1289 56.8014V69.3955C25.1289 69.441 25.1468 69.4846 25.1787 69.5166C25.2106 69.5487 25.254 69.5668 25.299 69.5668H48.2967C50.5483 69.5086 52.718 68.7047 54.4695 67.2794C56.221 65.854 57.4566 63.887 57.9849 61.6831C58.5131 59.4791 58.3043 57.1613 57.3911 55.0889C56.4778 53.0165 54.911 51.3052 52.9334 50.2201C52.464 49.957 51.9743 49.7324 51.4689 49.5489C50.947 49.3584 50.4106 49.2106 49.865 49.1072C50.4027 49.0048 50.9316 48.86 51.4468 48.674H51.4689C51.974 48.4892 52.4637 48.2642 52.9334 48.0012C54.9113 46.9159 56.4782 45.204 57.3914 43.1312C58.3045 41.0583 58.5128 38.7401 57.9841 36.5358C57.4552 34.3317 56.2187 32.3647 54.4664 30.9397C52.714 29.5148 50.5437 28.7115 48.2916 28.6545H25.299C25.254 28.6545 25.2106 28.6725 25.1787 28.7046C25.1468 28.7367 25.1289 28.7802 25.1289 28.8256V41.3617C25.1289 41.4071 25.1468 41.4506 25.1787 41.4827C25.2106 41.5148 25.254 41.5329 25.299 41.5329ZM67.8671 26.5469H23.0352V71.6744H67.8671V26.5469ZM55.0935 69.3955C56.7174 68.2568 58.0437 66.7398 58.9596 64.9739C59.8755 63.2078 60.3538 61.2453 60.3538 59.2531C60.3538 57.2609 59.8755 55.2984 58.9596 53.5324C58.0437 51.7664 56.7174 50.2494 55.0935 49.1106C56.7174 47.9718 58.0437 46.4548 58.9596 44.6889C59.8755 42.9229 60.3538 40.9603 60.3538 38.9681C60.3538 36.976 59.8755 35.0134 58.9596 33.2474C58.0437 31.4815 56.7174 29.9645 55.0935 28.8256H65.6032V69.4025L55.0935 69.3955ZM25.299 41.3617V28.8256H48.2916C53.7345 29.0089 58.0955 33.4894 58.0955 38.9681C58.0929 40.7857 57.6046 42.5691 56.682 44.1315C55.7595 45.6939 54.4365 46.9778 52.8517 47.8488C52.3898 48.1074 51.908 48.3285 51.411 48.5097C50.4113 48.8753 49.36 49.0781 48.2967 49.1106C49.3617 49.1437 50.4147 49.3471 51.4162 49.7133C51.9134 49.8939 52.3952 50.1148 52.8568 50.3741C54.4397 51.2451 55.7612 52.5283 56.6827 54.0894C57.6043 55.6504 58.0922 57.4321 58.0955 59.2479C58.0955 64.7267 53.7293 69.209 48.2916 69.3904H25.299V56.8014H47.3085C48.0118 56.8014 48.6863 57.0826 49.1836 57.5832C49.6808 58.0837 49.9602 58.7626 49.9602 59.4705C49.9602 60.1785 49.6808 60.8574 49.1836 61.3579C48.6863 61.8585 48.0118 62.1397 47.3085 62.1397H35.489V64.4186H47.3085C48.6122 64.4186 49.8625 63.8972 50.7844 62.9693C51.7062 62.0414 52.2241 60.7828 52.2241 59.4705C52.2241 58.1583 51.7062 56.8997 50.7844 55.9718C49.8625 55.0439 48.6122 54.5225 47.3085 54.5225H25.299V43.6405H47.3085C48.6122 43.6405 49.8625 43.1192 50.7844 42.1912C51.7062 41.2633 52.2241 40.0048 52.2241 38.6925C52.2241 37.3802 51.7062 36.1217 50.7844 35.1938C49.8625 34.2658 48.6122 33.7446 47.3085 33.7446H35.489V36.0233H47.3085C48.0118 36.0233 48.6863 36.3046 49.1836 36.8051C49.6808 37.3057 49.9602 37.9846 49.9602 38.6925C49.9602 39.4004 49.6808 40.0794 49.1836 40.5799C48.6863 41.0804 48.0118 41.3617 47.3085 41.3617H25.299Z" fill="white"/>
<path d="M67.697 26.7181V71.5032H23.2053V26.7181H67.697ZM55.0935 69.5668H65.6032C65.6483 69.5668 65.6917 69.5487 65.7236 69.5166C65.7555 69.4846 65.7734 69.441 65.7734 69.3955V28.8188C65.7734 28.7734 65.7555 28.7299 65.7236 28.6978C65.6917 28.6656 65.6483 28.6476 65.6032 28.6476H55.0935C55.0559 28.6459 55.0189 28.6567 54.9882 28.6784C54.9574 28.7001 54.9346 28.7314 54.9234 28.7675C54.9125 28.8022 54.9129 28.8395 54.9245 28.874C54.9362 28.9085 54.9584 28.9383 54.988 28.9593C56.5898 30.082 57.8981 31.5779 58.8016 33.3194C59.705 35.061 60.1769 36.9966 60.1769 38.9613C60.1769 40.926 59.705 42.8617 58.8016 44.6032C57.8981 46.3448 56.5898 47.8406 54.988 48.9634C54.9658 48.9794 54.9478 49.0004 54.9353 49.0248C54.9229 49.0493 54.9165 49.0763 54.9166 49.1038C54.9165 49.1312 54.9229 49.1583 54.9353 49.1827C54.9478 49.2072 54.9658 49.2283 54.988 49.2442C56.5898 50.367 57.8981 51.8629 58.8016 53.6044C59.705 55.346 60.1769 57.2816 60.1769 59.2463C60.1769 61.2109 59.705 63.1465 58.8016 64.8881C57.8981 66.6297 56.5898 68.1255 54.988 69.2484C54.9582 69.2693 54.9359 69.2992 54.9243 69.3339C54.9126 69.3685 54.9123 69.4059 54.9233 69.4408C54.9344 69.4755 54.9562 69.5059 54.9855 69.5273C55.0149 69.5488 55.0504 69.5602 55.0867 69.56M25.299 41.5329H47.3085C48.0569 41.5329 48.7746 41.2336 49.3038 40.7009C49.833 40.1683 50.1303 39.4458 50.1303 38.6925C50.1303 37.9392 49.833 37.2167 49.3038 36.684C48.7746 36.1514 48.0569 35.8521 47.3085 35.8521H35.6591V33.9089H47.3085C48.5671 33.9089 49.7741 34.4122 50.6641 35.308C51.554 36.2038 52.054 37.4188 52.054 38.6856C52.054 39.9525 51.554 41.1675 50.6641 42.0633C49.7741 42.9592 48.5671 43.4625 47.3085 43.4625H25.299C25.254 43.4625 25.2106 43.4804 25.1787 43.5125C25.1468 43.5447 25.1289 43.5882 25.1289 43.6336V54.5225C25.1289 54.568 25.1468 54.6116 25.1787 54.6436C25.2106 54.6757 25.254 54.6938 25.299 54.6938H47.3085C47.9317 54.6938 48.5488 54.8173 49.1246 55.0574C49.7003 55.2975 50.2234 55.6493 50.6641 56.0929C51.1048 56.5364 51.4543 57.063 51.6928 57.6425C51.9312 58.2221 52.054 58.8432 52.054 59.4705C52.054 60.0978 51.9312 60.719 51.6928 61.2986C51.4543 61.8781 51.1048 62.4047 50.6641 62.8482C50.2234 63.2917 49.7003 63.6436 49.1246 63.8837C48.5488 64.1238 47.9317 64.2473 47.3085 64.2473H35.6591V62.3109H47.3085C48.0569 62.3109 48.7746 62.0117 49.3038 61.479C49.833 60.9463 50.1303 60.2239 50.1303 59.4705C50.1303 58.7172 49.833 57.9947 49.3038 57.4621C48.7746 56.9294 48.0569 56.6301 47.3085 56.6301H25.299C25.254 56.6301 25.2106 56.6482 25.1787 56.6803C25.1468 56.7124 25.1289 56.756 25.1289 56.8014V69.3955C25.1289 69.441 25.1468 69.4846 25.1787 69.5166C25.2106 69.5487 25.254 69.5668 25.299 69.5668H48.2967C50.5483 69.5086 52.718 68.7047 54.4695 67.2794C56.221 65.854 57.4566 63.887 57.9849 61.6831C58.5131 59.4791 58.3043 57.1613 57.3911 55.0889C56.4778 53.0165 54.911 51.3052 52.9334 50.2201C52.464 49.957 51.9743 49.7324 51.4689 49.5489C50.947 49.3584 50.4106 49.2106 49.865 49.1072C50.4027 49.0048 50.9316 48.86 51.4468 48.674H51.4689C51.974 48.4892 52.4637 48.2642 52.9334 48.0012C54.9113 46.9159 56.4782 45.204 57.3914 43.1312C58.3045 41.0583 58.5128 38.7401 57.9841 36.5358C57.4552 34.3317 56.2187 32.3647 54.4664 30.9397C52.714 29.5148 50.5437 28.7115 48.2916 28.6545H25.299C25.254 28.6545 25.2106 28.6725 25.1787 28.7046C25.1468 28.7367 25.1289 28.7802 25.1289 28.8256V41.3617C25.1289 41.4071 25.1468 41.4506 25.1787 41.4827C25.2106 41.5148 25.254 41.5329 25.299 41.5329ZM67.8671 26.5469H23.0352V71.6744H67.8671V26.5469ZM55.0935 69.3955C56.7174 68.2568 58.0437 66.7398 58.9596 64.9739C59.8755 63.2078 60.3538 61.2453 60.3538 59.2531C60.3538 57.2609 59.8755 55.2984 58.9596 53.5324C58.0437 51.7664 56.7174 50.2494 55.0935 49.1106C56.7174 47.9718 58.0437 46.4548 58.9596 44.6889C59.8755 42.9229 60.3538 40.9603 60.3538 38.9681C60.3538 36.976 59.8755 35.0134 58.9596 33.2474C58.0437 31.4815 56.7174 29.9645 55.0935 28.8256H65.6032V69.4025L55.0935 69.3955ZM25.299 41.3617V28.8256H48.2916C53.7345 29.0089 58.0955 33.4894 58.0955 38.9681C58.0929 40.7857 57.6046 42.5691 56.682 44.1315C55.7595 45.6939 54.4365 46.9778 52.8517 47.8488C52.3898 48.1074 51.908 48.3285 51.411 48.5097C50.4113 48.8753 49.36 49.0781 48.2967 49.1106C49.3617 49.1437 50.4147 49.3471 51.4162 49.7133C51.9134 49.8939 52.3952 50.1148 52.8568 50.3741C54.4397 51.2451 55.7612 52.5283 56.6827 54.0894C57.6043 55.6504 58.0922 57.4321 58.0955 59.2479C58.0955 64.7267 53.7293 69.209 48.2916 69.3904H25.299V56.8014H47.3085C48.0118 56.8014 48.6863 57.0826 49.1836 57.5832C49.6808 58.0837 49.9602 58.7626 49.9602 59.4705C49.9602 60.1785 49.6808 60.8574 49.1836 61.3579C48.6863 61.8585 48.0118 62.1397 47.3085 62.1397H35.489V64.4186H47.3085C48.6122 64.4186 49.8625 63.8972 50.7844 62.9693C51.7062 62.0414 52.2241 60.7828 52.2241 59.4705C52.2241 58.1583 51.7062 56.8997 50.7844 55.9718C49.8625 55.0439 48.6122 54.5225 47.3085 54.5225H25.299V43.6405H47.3085C48.6122 43.6405 49.8625 43.1192 50.7844 42.1912C51.7062 41.2633 52.2241 40.0048 52.2241 38.6925C52.2241 37.3802 51.7062 36.1217 50.7844 35.1938C49.8625 34.2658 48.6122 33.7446 47.3085 33.7446H35.489V36.0233H47.3085C48.0118 36.0233 48.6863 36.3046 49.1836 36.8051C49.6808 37.3057 49.9602 37.9846 49.9602 38.6925C49.9602 39.4004 49.6808 40.0794 49.1836 40.5799C48.6863 41.0804 48.0118 41.3617 47.3085 41.3617H25.299Z" fill="white"/>
<path d="M78.4102 53.1478V26.5469H88.3246C90.3445 26.5469 91.9641 26.8163 93.1841 27.355C94.3713 27.8659 95.3725 28.7343 96.0503 29.8409C96.7192 30.8881 97.0789 32.1055 97.086 33.3508C97.0887 34.4864 96.7724 35.5998 96.1743 36.5626C95.5603 37.566 94.6354 38.3769 93.3967 38.9955C94.9951 39.467 96.2248 40.271 97.0842 41.4079C97.9507 42.5673 98.4044 43.9861 98.3734 45.4364C98.3831 46.6404 98.1147 47.8301 97.5893 48.912C97.1463 49.8799 96.4818 50.7283 95.6507 51.3878C94.7824 52.0146 93.7999 52.4621 92.7588 52.7043C91.5991 52.9988 90.1779 53.1466 88.4964 53.1478H78.4102ZM81.9072 37.7252H87.6222C89.1714 37.7252 90.2834 37.6224 90.9576 37.417C91.848 37.1499 92.5169 36.7082 92.9661 36.0918C93.4153 35.4755 93.6422 34.701 93.6466 33.7685C93.6634 32.9463 93.4446 32.1368 93.0158 31.4366C92.6002 30.7746 91.9588 30.2877 91.2128 30.067C90.4322 29.8181 89.0926 29.6943 87.1935 29.6955H81.9072V37.7252ZM81.9072 50.0094H88.4879C89.284 50.0298 90.0796 49.9875 90.869 49.8828C91.5813 49.7713 92.2671 49.525 92.8882 49.1569C93.4534 48.7898 93.9133 48.2797 94.2216 47.6776C94.5804 46.9869 94.7603 46.2159 94.7434 45.4364C94.7656 44.5163 94.5007 43.6124 93.9868 42.8512C93.4765 42.1163 92.7376 41.574 91.8861 41.3103C90.9913 41.0147 89.703 40.8663 88.0202 40.8652H81.9072V50.0094Z" fill="white"/>
<path d="M117.279 53.1478V26.5469H134.354V29.6869H120.408V37.8331H133.47V40.9542H120.408V50.0026H134.904V53.1409L117.279 53.1478Z" fill="white"/>
<path d="M153.812 53.1478V26.5469H157.31V50.0026H170.33V53.1409L153.812 53.1478Z" fill="white"/>
<path d="M189.242 53.1478V26.5469H192.739V50.0026H205.754V53.1409L189.242 53.1478Z" fill="white"/>
<path d="M239.011 30.5874V30.584L237.12 26.5469L235.227 30.584L224.664 53.1478H228.444L237.12 34.6211L245.79 53.1478H249.574L239.011 30.5874Z" fill="white"/>
<path d="M87.8804 71.6804L84.0352 63.0078H85.0275L88.6242 71.1724H88.0788L91.7004 63.0078H92.6307L88.7855 71.6804H87.8804ZM111.257 71.6804V63.0078H112.175V71.6804H111.257ZM132.365 71.6804V63.0078H135.615C136.351 63.0078 136.984 63.1276 137.512 63.3671C138.042 63.5983 138.447 63.937 138.728 64.383C139.018 64.8208 139.162 65.3536 139.162 65.9813C139.162 66.5925 139.018 67.1211 138.728 67.5671C138.447 68.0049 138.042 68.3435 137.512 68.583C136.984 68.8143 136.351 68.9299 135.615 68.9299H132.873L133.283 68.5087V71.6804H132.365ZM138.294 71.6804L136.061 68.5335H137.054L139.299 71.6804H138.294ZM133.283 68.583L132.873 68.1494H135.59C136.458 68.1494 137.116 67.9594 137.562 67.5795C138.018 67.1996 138.244 66.6668 138.244 65.9813C138.244 65.2875 138.018 64.7506 137.562 64.3706C137.116 63.9907 136.458 63.8007 135.59 63.8007H132.873L133.283 63.3671V68.583ZM160.26 71.6804V63.8007H157.209V63.0078H164.23V63.8007H161.178V71.6804H160.26ZM186.389 71.7547C185.282 71.7547 184.409 71.4368 183.772 70.8007C183.136 70.1647 182.817 69.2231 182.817 67.976V63.0078H183.735V67.9388C183.735 68.963 183.967 69.7187 184.429 70.206C184.893 70.6934 185.546 70.937 186.389 70.937C187.242 70.937 187.899 70.6934 188.361 70.206C188.825 69.7187 189.056 68.963 189.056 67.9388V63.0078H189.949V67.976C189.949 69.2231 189.631 70.1647 188.994 70.8007C188.366 71.4368 187.498 71.7547 186.389 71.7547ZM208.51 71.6804L212.479 63.0078H213.385L217.354 71.6804H216.386L212.74 63.5406H213.112L209.465 71.6804H208.51ZM210.073 69.3636L210.346 68.6202H215.394L215.667 69.3636H210.073ZM236.155 71.6804V63.0078H237.073V70.8875H241.936V71.6804H236.155Z" fill="white"/>
</svg>
