<svg width="272" height="100" viewBox="0 0 272 100" fill="none" xmlns="http://www.w3.org/2000/svg">
<path d="M183.734 67.9385C183.734 68.9626 183.967 69.7187 184.43 70.2061C184.893 70.6933 185.546 70.9375 186.39 70.9375C187.242 70.9374 187.899 70.6933 188.361 70.2061C188.825 69.7187 189.056 68.9626 189.056 67.9385V63.0078H189.949V67.9756C189.949 69.2227 189.631 70.1648 188.994 70.8008C188.366 71.4367 187.498 71.7548 186.39 71.7549C185.282 71.7549 184.409 71.4368 183.771 70.8008C183.135 70.1648 182.816 69.2226 182.816 67.9756V63.0078H183.734V67.9385ZM88.3516 70.5557L91.7002 63.0078H92.6309L88.7852 71.6807H87.8799L84.0352 63.0078H85.0273L88.3516 70.5557ZM112.175 71.6807H111.257V63.0078H112.175V71.6807ZM135.614 63.0078C136.351 63.0078 136.984 63.1276 137.513 63.3672C138.042 63.5984 138.448 63.9369 138.729 64.3828C139.018 64.8206 139.162 65.3538 139.162 65.9814C139.162 66.5926 139.018 67.1214 138.729 67.5674C138.448 68.0051 138.042 68.3435 137.513 68.583C137.406 68.6298 137.293 68.6697 137.178 68.707L139.299 71.6807H138.294L136.314 68.8896C136.093 68.9152 135.859 68.9297 135.614 68.9297H133.283V71.6807H132.365V63.0078H135.614ZM164.229 63.8008H161.179V71.6807H160.261V63.8008H157.209V63.0078H164.229V63.8008ZM217.354 71.6807H216.387L215.349 69.3633H210.503L209.465 71.6807H208.51L212.479 63.0078H213.385L217.354 71.6807ZM237.073 70.8877H241.936V71.6807H236.155V63.0078H237.073V70.8877ZM67.8672 71.6748H23.0352V26.5469H67.8672V71.6748ZM55.0938 28.8252C56.7176 29.964 58.044 31.4812 58.96 33.2471C59.8758 35.013 60.3535 36.9758 60.3535 38.9678C60.3535 40.9598 59.8757 42.9226 58.96 44.6885C58.0441 46.4543 56.7175 47.9716 55.0938 49.1104C56.7176 50.2492 58.044 51.7663 58.96 53.5322C59.8758 55.2982 60.3535 57.2609 60.3535 59.2529C60.3535 61.245 59.8757 63.2077 58.96 64.9736C58.0441 66.7395 56.7175 68.2568 55.0938 69.3955L65.6035 69.4023V28.8252H55.0938ZM25.2988 41.3613H47.3086C48.0117 41.3613 48.6863 41.0805 49.1836 40.5801C49.6808 40.0795 49.96 39.4003 49.96 38.6924C49.9599 37.9845 49.6808 37.3053 49.1836 36.8047C48.7484 36.3668 48.1773 36.0967 47.5703 36.0361L47.3086 36.0234H35.4893V33.7441H47.3086C48.6121 33.7442 49.8623 34.2656 50.7842 35.1934C51.7059 36.1212 52.2246 37.3801 52.2246 38.6924C52.2246 40.0046 51.706 41.2635 50.7842 42.1914C49.8623 43.1192 48.6121 43.6406 47.3086 43.6406H25.2988V54.5225H47.3086L47.5527 54.5283C48.7674 54.5891 49.92 55.1019 50.7842 55.9717C51.706 56.8996 52.2246 58.1585 52.2246 59.4707C52.2246 60.7829 51.7059 62.0419 50.7842 62.9697C49.8623 63.8975 48.6121 64.4189 47.3086 64.4189H35.4893V62.1396H47.3086C48.0117 62.1396 48.6863 61.8588 49.1836 61.3584C49.6808 60.8579 49.9599 60.1786 49.96 59.4707C49.96 58.7628 49.6808 58.0835 49.1836 57.583C48.6863 57.0825 48.0118 56.8018 47.3086 56.8018H25.2988V69.3906H48.292C53.7295 69.209 58.0956 64.7266 58.0957 59.248C58.0924 57.4322 57.6042 55.6499 56.6826 54.0889C55.7611 52.528 54.4392 51.2449 52.8564 50.374C52.3949 50.1148 51.9131 49.8934 51.416 49.7129C50.4146 49.3468 49.3618 49.1435 48.2969 49.1104C49.3601 49.0779 50.4114 48.8753 51.4111 48.5098C51.9081 48.3285 52.3897 48.1072 52.8516 47.8486C54.4363 46.9777 55.7592 45.694 56.6816 44.1318C57.6042 42.5694 58.093 40.7854 58.0957 38.9678C58.0955 33.4894 53.7346 29.0086 48.292 28.8252H25.2988V41.3613ZM210.836 68.6201H215.016L212.925 63.9561L210.836 68.6201ZM133.283 68.1494H135.59C136.458 68.1494 137.116 67.959 137.562 67.5791C138.018 67.1992 138.244 66.6667 138.244 65.9814C138.244 65.2879 138.018 64.751 137.562 64.3711C137.116 63.9912 136.458 63.8008 135.59 63.8008H133.283V68.1494ZM88.3242 26.5469C90.3441 26.5469 91.9646 26.8167 93.1846 27.3555C94.3714 27.8663 95.3721 28.7345 96.0498 29.8408C96.7187 30.8879 97.0788 32.1054 97.0859 33.3506C97.0886 34.4861 96.7727 35.5997 96.1748 36.5625C95.5608 37.5659 94.6351 38.3764 93.3965 38.9951C94.9948 39.4665 96.2246 40.2713 97.084 41.4082C97.9505 42.5676 98.4041 43.9862 98.373 45.4365C98.3828 46.6405 98.1142 47.8303 97.5889 48.9121C97.1459 49.8799 96.4814 50.7283 95.6504 51.3877C94.7822 52.0144 93.7998 52.4619 92.7588 52.7041C91.599 52.9986 90.1776 53.1463 88.4961 53.1475H78.4102V26.5469H88.3242ZM134.354 29.6865H120.408V37.833H133.47V40.9541H120.408V50.0029H134.904V53.1406L117.279 53.1475V26.5469H134.354V29.6865ZM157.31 50.0029H170.33V53.1406L153.812 53.1475V26.5469H157.31V50.0029ZM192.739 50.0029H205.755V53.1406L189.242 53.1475V26.5469H192.739V50.0029ZM239.011 30.584V30.5879L249.574 53.1475H245.79L237.12 34.6211L228.443 53.1475H224.664L235.227 30.584L237.12 26.5469L239.011 30.584ZM81.9072 50.0098H88.4883C89.2842 50.0301 90.0799 49.9875 90.8691 49.8828C91.5812 49.7713 92.2668 49.5252 92.8877 49.1572C93.4529 48.7902 93.9134 48.2798 94.2217 47.6777C94.5805 46.9871 94.76 46.216 94.7432 45.4365C94.7653 44.5164 94.5002 43.6127 93.9863 42.8516C93.476 42.1166 92.7372 41.5742 91.8857 41.3105C90.991 41.015 89.703 40.8664 88.0205 40.8652H81.9072V50.0098ZM81.9072 37.7256H87.6221C89.1713 37.7256 90.2838 37.6225 90.958 37.417C91.8482 37.1499 92.5167 36.708 92.9658 36.0918C93.415 35.4754 93.642 34.7011 93.6465 33.7686C93.6633 32.9464 93.4444 32.1367 93.0156 31.4365C92.6001 30.7746 91.9588 30.2881 91.2129 30.0674C90.4323 29.8185 89.0924 29.6942 87.1934 29.6953H81.9072V37.7256Z" fill="#000B14"/>
</svg>
