<svg width="204" height="40" viewBox="0 0 204 40" fill="none" xmlns="http://www.w3.org/2000/svg">
<path d="M69.4336 37.4713L70.374 37.3909C70.4004 37.7172 70.5052 38.0325 70.6799 38.3103C70.8707 38.5722 71.1334 38.7739 71.4368 38.8914C71.8021 39.0429 72.1952 39.1178 72.5911 39.1115C72.9341 39.1176 73.2752 39.061 73.5972 38.9446C73.8538 38.8583 74.0795 38.7004 74.2471 38.4894C74.3863 38.3044 74.4607 38.0798 74.4597 37.849C74.462 37.6297 74.3899 37.4159 74.2549 37.2421C74.0732 37.0372 73.8391 36.8847 73.5774 36.8006C73.1377 36.6567 72.6906 36.5357 72.2379 36.438C71.7374 36.3361 71.2496 36.1793 70.7839 35.9706C70.4585 35.8142 70.1813 35.5744 69.9812 35.2757C69.8046 34.9973 69.7127 34.6745 69.7166 34.3456C69.7156 33.9675 69.8285 33.5975 70.0407 33.2834C70.2705 32.9445 70.5999 32.6838 70.9842 32.537C71.4215 32.363 71.8891 32.2763 72.3603 32.282C72.8659 32.2722 73.3683 32.3636 73.8375 32.5506C74.2377 32.708 74.5804 32.9821 74.8207 33.3366C75.0511 33.6871 75.1786 34.0942 75.189 34.5125L74.235 34.5837C74.2244 34.3801 74.1728 34.1803 74.0832 33.9967C73.9936 33.813 73.868 33.6489 73.7135 33.5141C73.417 33.2728 72.9811 33.153 72.4016 33.153C71.7992 33.153 71.3603 33.2637 71.0851 33.4822C70.9582 33.5727 70.8549 33.6915 70.7831 33.8292C70.7115 33.9669 70.6734 34.1194 70.6722 34.2743C70.6691 34.399 70.6937 34.523 70.744 34.6373C70.7945 34.7517 70.8696 34.8536 70.9642 34.9358C71.1569 35.1088 71.657 35.2879 72.4659 35.4684C73.0343 35.5785 73.5921 35.7379 74.1325 35.9448C74.5197 36.1046 74.855 36.3671 75.102 36.7036C75.313 37.0175 75.4225 37.3881 75.4153 37.7655C75.4147 38.1653 75.295 38.556 75.0713 38.8884C74.8291 39.2512 74.4859 39.5363 74.0836 39.7093C73.6269 39.9099 73.1317 40.0092 72.6324 40.0007C72.0478 40.0184 71.4659 39.9183 70.9214 39.7063C70.479 39.5235 70.1015 39.2141 69.8373 38.8171C69.577 38.4155 69.4371 37.9487 69.4336 37.4713Z" fill="#212121"/>
<path d="M90.3552 39.8629V33.2762H87.875V32.3945H93.8385V33.2762H91.3505V39.8629H90.3552Z" fill="#212121"/>
<path d="M106.297 39.8629L109.186 32.3945H110.257L113.336 39.8629H112.202L111.324 37.6005H108.18L107.353 39.8629H106.297ZM108.468 36.7948H111.018L110.234 34.7268C109.994 34.0985 109.817 33.5826 109.7 33.1789C109.602 33.6642 109.466 34.1412 109.294 34.6053L108.468 36.7948Z" fill="#212121"/>
<path d="M129.564 36.9403V36.0647H132.752V38.8309C132.296 39.1988 131.785 39.4936 131.237 39.7048C130.726 39.8981 130.183 39.997 129.636 39.9962C128.936 40.0057 128.243 39.8441 127.621 39.5257C127.031 39.2252 126.552 38.7472 126.252 38.1602C125.94 37.5423 125.783 36.8588 125.793 36.1679C125.788 35.4643 125.944 34.7686 126.252 34.1347C126.528 33.5367 126.991 33.0435 127.573 32.7296C128.188 32.4161 128.871 32.2598 129.561 32.2744C130.065 32.2677 130.566 32.3568 131.037 32.5369C131.44 32.6866 131.796 32.9388 132.07 33.2683C132.344 33.6289 132.538 34.0423 132.641 34.4821L131.742 34.7264C131.657 34.4052 131.514 34.102 131.321 33.8312C131.132 33.5974 130.884 33.4173 130.602 33.3093C130.274 33.1749 129.921 33.1079 129.566 33.112C129.162 33.1028 128.761 33.1735 128.385 33.3199C128.08 33.4383 127.805 33.6234 127.581 33.8616C127.382 34.0793 127.221 34.3292 127.107 34.6005C126.912 35.0773 126.814 35.5879 126.819 36.1027C126.8 36.6783 126.918 37.2503 127.165 37.7718C127.382 38.2057 127.736 38.5565 128.174 38.7701C128.611 38.9862 129.093 39.0979 129.581 39.0962C130.014 39.0958 130.443 39.0124 130.844 38.8506C131.182 38.7265 131.498 38.548 131.778 38.3224V36.9311L129.564 36.9403Z" fill="#212121"/>
<path d="M145.211 39.8629V32.3945H146.206V39.8629H145.211Z" fill="#212121"/>
<path d="M158.66 39.8629V32.3945H159.682L163.634 38.2574V32.3945H164.588V39.8629H163.567L159.614 33.9938V39.8629H158.66Z" fill="#212121"/>
<path d="M180.817 36.9403V36.0647H184.005V38.8309C183.549 39.1984 183.038 39.4932 182.491 39.7048C181.979 39.8981 181.436 39.997 180.889 39.9962C180.189 40.0055 179.497 39.8439 178.875 39.5257C178.284 39.2258 177.805 38.7476 177.506 38.1602C177.193 37.5425 177.036 36.859 177.047 36.1679C177.042 35.4643 177.199 34.7688 177.506 34.1347C177.782 33.5363 178.246 33.0433 178.829 32.7296C179.443 32.4161 180.126 32.2598 180.817 32.2744C181.321 32.2675 181.822 32.3564 182.292 32.5369C182.696 32.6866 183.053 32.9388 183.327 33.2683C183.6 33.6293 183.794 34.0427 183.896 34.4821L182.999 34.7264C182.911 34.4074 182.766 34.1067 182.57 33.8389C182.382 33.6048 182.134 33.4245 181.852 33.3168C181.523 33.1822 181.171 33.1152 180.815 33.1195C180.412 33.1105 180.01 33.1812 179.635 33.3274C179.33 33.446 179.055 33.631 178.832 33.8691C178.632 34.0868 178.471 34.3366 178.356 34.608C178.162 35.0852 178.064 35.5957 178.069 36.1102C178.05 36.686 178.169 37.258 178.416 37.7793C178.632 38.2128 178.986 38.5636 179.424 38.7777C179.861 38.9937 180.342 39.1054 180.83 39.104C181.263 39.1038 181.692 39.0201 182.093 38.8581C182.432 38.7344 182.748 38.5559 183.028 38.3301V36.9386L180.817 36.9403Z" fill="#212121"/>
<path d="M0.078125 39.92V0.078125H40.2284V39.92H0.078125ZM28.8247 1.94596C28.8083 1.94608 28.7925 1.95128 28.7794 1.9608C28.7661 1.97033 28.7563 1.98371 28.7512 1.99906C28.7461 2.01443 28.7461 2.03104 28.7514 2.04639C28.7567 2.06172 28.7668 2.07494 28.7803 2.08404C30.2304 3.08607 31.4148 4.4211 32.2326 5.97535C33.0505 7.52961 33.4778 9.25704 33.4778 11.0105C33.4778 12.7639 33.0505 14.4913 32.2326 16.0456C31.4148 17.5998 30.2304 18.9348 28.7803 19.9368C28.7702 19.9439 28.762 19.9531 28.7563 19.964C28.7508 19.9748 28.7479 19.987 28.7481 19.9992C28.7477 20.0113 28.7504 20.0235 28.7561 20.0343C28.7616 20.0452 28.77 20.0546 28.7803 20.0613C30.2304 21.0633 31.4148 22.3984 32.2326 23.9525C33.0505 25.5069 33.4778 27.2342 33.4778 28.9878C33.4778 30.7411 33.0505 32.4687 32.2326 34.0228C31.4148 35.5772 30.2304 36.9122 28.7803 37.9141C28.767 37.9234 28.7569 37.9366 28.7516 37.952C28.7465 37.9675 28.7463 37.9839 28.7512 37.9993C28.7561 38.0148 28.7659 38.0284 28.7792 38.0377C28.7923 38.0473 28.8083 38.0523 28.8247 38.0521H38.2727C38.2931 38.0521 38.3126 38.0442 38.3269 38.03C38.3412 38.0158 38.3492 37.9965 38.3492 37.9764V2.01575C38.3492 1.99563 38.3412 1.97634 38.3269 1.9621C38.3126 1.94787 38.2931 1.93989 38.2727 1.93989L28.8247 1.94596ZM2.03687 26.739C2.01659 26.739 1.99715 26.7471 1.9828 26.7613C1.96846 26.7755 1.96042 26.7948 1.96042 26.8149V37.9764C1.96042 37.9965 1.96846 38.0158 1.9828 38.03C1.99715 38.0442 2.01659 38.0521 2.03687 38.0521H22.7069C24.7105 37.9967 26.6403 37.2879 28.1975 36.0352C29.7549 34.7828 30.8533 33.0563 31.3231 31.1226C31.7929 29.1888 31.6079 27.1553 30.7968 25.3361C29.9857 23.5172 28.5934 22.0138 26.8353 21.0583C26.4169 20.8268 25.9802 20.6294 25.5294 20.468C24.9164 20.2473 24.2812 20.0922 23.635 20.0052C24.2767 19.9198 24.9078 19.7673 25.5172 19.55H25.5294C25.98 19.3876 26.4167 19.1898 26.8353 18.9581C28.5934 18.0026 29.9857 16.4992 30.7968 14.6802C31.6079 12.8611 31.7929 10.8276 31.3231 8.89383C30.8533 6.96002 29.7549 5.23354 28.1975 3.98105C26.6403 2.72856 24.7105 2.01977 22.7069 1.96415H2.03687C2.01671 1.96454 1.9975 1.97266 1.98323 1.98682C1.96899 2.00095 1.96081 2.02003 1.96042 2.04003V13.1317C1.96042 13.1518 1.96846 13.1711 1.9828 13.1853C1.99715 13.1995 2.01659 13.2075 2.03687 13.2075H21.8231C22.4755 13.2075 23.1014 12.9503 23.5626 12.4925C24.024 12.0346 24.2833 11.4137 24.2833 10.7662C24.2833 10.1187 24.024 9.4977 23.5626 9.03986C23.1014 8.582 22.4755 8.3248 21.8231 8.3248H11.2724V6.45696H21.8231C22.3934 6.45696 22.958 6.56842 23.4848 6.78499C24.0118 7.00154 24.4904 7.31895 24.8937 7.7191C25.297 8.11925 25.6168 8.59429 25.8349 9.1171C26.0533 9.63991 26.1656 10.2003 26.1656 10.7662C26.1656 11.332 26.0533 11.8924 25.8349 12.4152C25.6168 12.938 25.297 13.4131 24.8937 13.8132C24.4904 14.2134 24.0118 14.5308 23.4848 14.7474C22.958 14.9639 22.3934 15.0754 21.8231 15.0754H2.03687C2.01671 15.0758 1.9975 15.0839 1.98323 15.098C1.96899 15.1122 1.96081 15.1312 1.96042 15.1512V24.7954C1.96081 24.8153 1.96899 24.8344 1.98323 24.8486C1.9975 24.8628 2.01671 24.8707 2.03687 24.8711H21.8231C22.9747 24.8711 24.0793 25.3252 24.8937 26.1333C25.7081 26.9414 26.1656 28.0375 26.1656 29.1805C26.1656 30.3232 25.7081 31.4193 24.8937 32.2274C24.0793 33.0356 22.9747 33.4896 21.8231 33.4896H11.2724V31.6217H21.8231C22.4755 31.6217 23.1014 31.3647 23.5626 30.9068C24.024 30.4489 24.2833 29.828 24.2833 29.1805C24.2833 28.5329 24.024 27.912 23.5626 27.4541C23.1014 26.9963 22.4755 26.739 21.8231 26.739H2.03687Z" fill="#212121"/>
<path d="M40.1502 0.151739V39.8419H0.152914V0.151739H40.1502ZM28.8199 38.1259H38.2681C38.3086 38.1259 38.3475 38.1098 38.3762 38.0814C38.4048 38.053 38.421 38.0144 38.421 37.9742V2.01348C38.421 1.97324 38.4048 1.93466 38.3762 1.90619C38.3475 1.87775 38.3086 1.86177 38.2681 1.86177H28.8199C28.7862 1.86022 28.7528 1.86981 28.7252 1.88904C28.6976 1.90824 28.6771 1.936 28.6671 1.96798C28.6573 1.99874 28.6577 2.03182 28.6681 2.06238C28.6785 2.09294 28.6984 2.1194 28.7252 2.13791C30.1651 3.13296 31.3413 4.45867 32.1534 6.0021C32.9656 7.54554 33.3897 9.26093 33.3897 11.0021C33.3897 12.7433 32.9656 14.4587 32.1534 16.0021C31.3413 17.5456 30.1651 18.8713 28.7252 19.8664C28.7051 19.8804 28.6888 19.8991 28.6777 19.9208C28.6665 19.9424 28.6607 19.9665 28.6609 19.9907C28.6607 20.015 28.6665 20.039 28.6777 20.0607C28.6888 20.0825 28.7051 20.1011 28.7252 20.1151C30.1651 21.1103 31.3413 22.436 32.1534 23.9794C32.9656 25.5228 33.3897 27.2381 33.3897 28.9795C33.3897 30.7207 32.9656 32.436 32.1534 33.9794C31.3413 35.5228 30.1651 36.8485 28.7252 37.8436C28.6984 37.8621 28.6783 37.8887 28.6677 37.9194C28.6573 37.95 28.6571 37.9833 28.6669 38.0142C28.6769 38.0451 28.6963 38.0719 28.7229 38.091C28.7493 38.1098 28.7811 38.12 28.8138 38.1198M2.03519 13.2812H21.8213C22.4941 13.2812 23.1394 13.0159 23.6152 12.5439C24.0907 12.0718 24.3582 11.4315 24.3582 10.7639C24.3582 10.0963 24.0907 9.45602 23.6152 8.98395C23.1394 8.51188 22.4941 8.24667 21.8213 8.24667H11.3488V6.5245H21.8213C22.9528 6.5245 24.0379 6.9705 24.838 7.76441C25.6381 8.55831 26.0874 9.63509 26.0874 10.7578C26.0874 11.8806 25.6381 12.9574 24.838 13.7513C24.0379 14.5452 22.9528 14.9912 21.8213 14.9912H2.03519C1.99463 14.9912 1.95575 15.0072 1.92706 15.0356C1.8984 15.0641 1.88229 15.1027 1.88229 15.1429V24.793C1.88229 24.8334 1.8984 24.872 1.92706 24.9004C1.95575 24.9289 1.99463 24.9449 2.03519 24.9449H21.8213C22.3815 24.9449 22.9362 25.0543 23.4539 25.2671C23.9714 25.4797 24.4418 25.7916 24.838 26.1847C25.2341 26.5778 25.5482 27.0444 25.7627 27.5581C25.9771 28.0717 26.0874 28.6223 26.0874 29.1781C26.0874 29.734 25.9771 30.2845 25.7627 30.7982C25.5482 31.3117 25.2341 31.7785 24.838 32.1716C24.4418 32.5648 23.9714 32.8764 23.4539 33.0892C22.9362 33.302 22.3815 33.4115 21.8213 33.4115H11.3488V31.6955H21.8213C22.4941 31.6955 23.1394 31.4301 23.6152 30.9582C24.0907 30.4861 24.3582 29.8457 24.3582 29.1781C24.3582 28.5105 24.0907 27.8702 23.6152 27.3981C23.1394 26.9261 22.4941 26.6609 21.8213 26.6609H2.03519C1.99463 26.6609 1.95575 26.6769 1.92706 26.7053C1.8984 26.7338 1.88229 26.7723 1.88229 26.8128V37.9742C1.88229 38.0144 1.8984 38.053 1.92706 38.0814C1.95575 38.1098 1.99463 38.1259 2.03519 38.1259H22.7097C24.7338 38.0743 26.6843 37.3618 28.2591 36.0986C29.8336 34.8355 30.9443 33.0921 31.4192 31.1389C31.894 29.1858 31.7063 27.1317 30.8854 25.295C30.0644 23.4584 28.6558 21.9418 26.8781 20.9801C26.4561 20.7468 26.0158 20.5478 25.5615 20.3852C25.0923 20.2163 24.61 20.0855 24.1196 19.9937C24.6029 19.9032 25.0784 19.7746 25.5415 19.61H25.5615C26.0156 19.4461 26.4557 19.2467 26.8781 19.0136C28.656 18.0518 30.0648 16.5347 30.8858 14.6976C31.7065 12.8605 31.894 10.806 31.4184 8.85259C30.9431 6.89915 29.8316 5.15591 28.2562 3.89308C26.6808 2.63025 24.7297 1.91838 22.7052 1.86784H2.03519C1.99463 1.86784 1.95575 1.88382 1.92706 1.91226C1.8984 1.94073 1.88229 1.97931 1.88229 2.01956V13.1294C1.88229 13.1697 1.8984 13.2083 1.92706 13.2367C1.95575 13.2652 1.99463 13.2812 2.03519 13.2812ZM40.3033 0H0V39.9937H40.3033V0ZM28.8199 37.9742C30.2797 36.9648 31.472 35.6205 32.2954 34.0553C33.1188 32.4902 33.5489 30.7509 33.5489 28.9854C33.5489 27.2199 33.1188 25.4805 32.2954 23.9156C31.472 22.3505 30.2797 21.0061 28.8199 19.9968C30.2797 18.9876 31.472 17.6432 32.2954 16.0781C33.1188 14.5131 33.5489 12.7737 33.5489 11.0082C33.5489 9.24269 33.1188 7.50335 32.2954 5.93828C31.472 4.37321 30.2797 3.02882 28.8199 2.01956H38.2681V37.9801L28.8199 37.9742ZM2.03519 13.1294V2.01956H22.7052C27.5981 2.18191 31.5187 6.15276 31.5187 11.0082C31.5162 12.619 31.0773 14.1994 30.248 15.5841C29.4187 16.9688 28.2294 18.1066 26.8046 18.8786C26.3892 19.1078 25.9563 19.3036 25.5096 19.4642C24.6107 19.7882 23.6655 19.9679 22.7097 19.9968C23.6672 20.0262 24.6137 20.2065 25.5141 20.531C25.9612 20.691 26.3941 20.8867 26.8091 21.1166C28.2323 21.8886 29.4201 23.0257 30.2486 24.4093C31.0771 25.7926 31.5158 27.3715 31.5187 28.9809C31.5187 33.8365 27.5936 37.8087 22.7052 37.9695H2.03519V26.8128H21.8213C22.4535 26.8128 23.0598 27.0619 23.5069 27.5056C23.954 27.949 24.2051 28.5509 24.2051 29.1781C24.2051 29.8055 23.954 30.4071 23.5069 30.8508C23.0598 31.2945 22.4535 31.5436 21.8213 31.5436H11.1959V33.5631H21.8213C22.9933 33.5631 24.1173 33.1012 24.946 32.2789C25.7748 31.4565 26.2403 30.3412 26.2403 29.1781C26.2403 28.0152 25.7748 26.8999 24.946 26.0775C24.1173 25.2552 22.9933 24.793 21.8213 24.793H2.03519V15.149H21.8213C22.9933 15.149 24.1173 14.687 24.946 13.8646C25.7748 13.0423 26.2403 11.9269 26.2403 10.7639C26.2403 9.60091 25.7748 8.48556 24.946 7.66319C24.1173 6.84084 22.9933 6.37884 21.8213 6.37884H11.1959V8.39839H21.8213C22.4535 8.39839 23.0598 8.64762 23.5069 9.09124C23.954 9.53486 24.2051 10.1365 24.2051 10.7639C24.2051 11.3913 23.954 11.993 23.5069 12.4366C23.0598 12.8802 22.4535 13.1294 21.8213 13.1294H2.03519Z" fill="#212121"/>
<path d="M49.7812 23.5747V0H58.6942C60.5098 0 61.9658 0.238726 63.0628 0.716178C64.1301 1.169 65.0303 1.93862 65.6392 2.91933C66.241 3.84737 66.5641 4.9263 66.5704 6.02985C66.5729 7.03633 66.2887 8.02303 65.7509 8.87635C65.1993 9.76551 64.3671 10.4842 63.2539 11.0325C64.6912 11.4503 65.7962 12.1629 66.5688 13.1704C67.3476 14.1979 67.7558 15.4553 67.728 16.7407C67.7362 17.8077 67.4949 18.8619 67.0231 19.8207C66.6249 20.6786 66.0276 21.4305 65.2799 22.0149C64.4997 22.5704 63.6161 22.967 62.6806 23.1816C61.6376 23.4427 60.3604 23.5737 58.8486 23.5747H49.7812ZM52.9251 9.90663H58.0627C59.4551 9.90663 60.4547 9.81558 61.0612 9.6335C61.8615 9.39679 62.4633 9.00533 62.867 8.45908C63.2707 7.91286 63.4745 7.22651 63.4786 6.40007C63.4936 5.67143 63.2967 4.95397 62.9114 4.33347C62.5378 3.74678 61.9616 3.31524 61.2906 3.11962C60.5892 2.89911 59.3848 2.78936 57.6774 2.79035H52.9251V9.90663ZM52.9251 20.7933H58.8411C59.5564 20.8114 60.2722 20.7738 60.9816 20.681C61.6223 20.5824 62.238 20.3641 62.7966 20.0378C63.3051 19.7125 63.7184 19.2603 63.9955 18.7269C64.3182 18.1147 64.4796 17.4314 64.4649 16.7407C64.4845 15.9252 64.2466 15.1241 63.7845 14.4495C63.326 13.7982 62.6614 13.3175 61.8961 13.0839C61.0917 12.8219 59.9333 12.6904 58.4206 12.6894H52.9251V20.7933Z" fill="#212121"/>
<path d="M84.7188 23.5747V0H100.069V2.78278H87.5307V10.0022H99.2739V12.7683H87.5307V20.7874H100.563V23.5686L84.7188 23.5747Z" fill="#212121"/>
<path d="M117.57 23.5747V0H120.714V20.7874H132.419V23.5686L117.57 23.5747Z" fill="#212121"/>
<path d="M149.414 23.5747V0H152.558V20.7874H164.258V23.5686L149.414 23.5747Z" fill="#212121"/>
<path d="M194.159 3.58089V3.57786L192.459 0L190.757 3.57786L181.262 23.5747H184.659L192.459 7.1557L200.253 23.5747H203.655L194.159 3.58089Z" fill="#212121"/>
</svg>
