<svg width="30" height="19" viewBox="0 0 30 19" fill="none" xmlns="http://www.w3.org/2000/svg">
<path d="M8.31565 1.90625L8.11973 1.93687C7.50661 2.00827 6.91542 2.22133 6.42417 2.56618C6.31449 2.62714 6.21615 2.70883 6.1074 2.79069C6.09615 2.77066 6.08543 2.74949 6.08543 2.72946C6.06293 2.61712 6.05206 2.49653 6.0305 2.38419C5.99769 2.20131 5.88863 2.10865 5.69175 2.10865H5.17723C4.86035 2.10865 4.80552 2.17086 4.80552 2.45562V11.2728C4.81677 11.4052 4.90342 11.475 5.02342 11.4854H5.97557C6.10682 11.4854 6.18315 11.4052 6.19346 11.2728C6.20471 11.2319 6.20445 11.1913 6.20445 11.1504V8.08713C6.24851 8.12806 6.28176 8.14874 6.30333 8.16877C7.10208 8.7888 8.02106 8.99116 9.02794 8.80828C9.94668 8.63586 10.5803 8.11774 10.9853 7.35576C11.3022 6.77666 11.4318 6.18783 11.4431 5.54776C11.4647 4.84674 11.3993 4.17194 11.0824 3.51185C10.7102 2.69936 10.0765 2.16056 9.12498 1.97769C8.98248 1.94721 8.82986 1.93648 8.68736 1.91646C8.55611 1.90601 8.43565 1.90625 8.31565 1.90625ZM15.6014 1.90625C15.5574 1.9167 15.5155 1.92666 15.4714 1.92666C15.0336 1.94669 14.6061 1.99743 14.1805 2.09845C13.9068 2.1594 13.6447 2.25047 13.3822 2.33146C13.2181 2.38197 13.1405 2.49435 13.1405 2.65632C13.1517 2.78869 13.1405 2.93046 13.1405 3.06283C13.1517 3.26573 13.24 3.31831 13.4481 3.26693C13.7978 3.18594 14.1476 3.09487 14.4973 3.03391C15.0439 2.94247 15.6021 2.90127 16.1599 2.97268C16.4552 3.02319 16.7287 3.09477 16.9143 3.32816C17.0784 3.52148 17.1447 3.76466 17.156 4.0085C17.1672 4.35422 17.167 4.62803 17.167 4.97288C17.167 4.99291 17.1672 5.01262 17.156 5.0222H17.1011C16.6304 4.91073 16.1501 4.85028 15.6692 4.8198C15.1657 4.79977 14.6633 4.82024 14.1824 4.98308C13.603 5.16596 13.1313 5.4903 12.8585 6.0189C12.6504 6.42558 12.6171 6.85314 12.6827 7.28943C12.7812 7.87898 13.088 8.32539 13.6459 8.60929C14.1821 8.8836 14.7508 8.91308 15.3414 8.8321C16.0192 8.74066 16.62 8.4768 17.145 8.07012C17.1666 8.05009 17.1894 8.04082 17.2109 8.02079C17.2437 8.18364 17.266 8.33637 17.2988 8.47832C17.3204 8.61069 17.4093 8.69068 17.5405 8.70113H18.2729C18.3826 8.70113 18.4817 8.6102 18.4817 8.49873C18.4929 8.46825 18.4927 8.42653 18.4927 8.38648V4.05102C18.4898 3.87772 18.4779 3.69448 18.4451 3.52205C18.3579 2.98388 18.1168 2.53628 17.5918 2.25152C17.2965 2.08868 16.9692 2.00778 16.6195 1.95728C16.4554 1.93638 16.302 1.92628 16.1379 1.90625H15.6014ZM19.3935 1.90795C19.2838 1.90795 19.2292 1.99826 19.2507 2.10015C19.2723 2.18201 19.3058 2.27429 19.3386 2.35527C20.2133 4.3669 21.0985 6.37718 21.9845 8.39838C22.0614 8.57081 22.0717 8.7141 21.9845 8.88652C21.8429 9.19044 21.7216 9.50529 21.5688 9.81008C21.4376 10.0844 21.2195 10.2887 20.8913 10.3697C20.6729 10.421 20.4326 10.441 20.2029 10.4105C20.0932 10.4 19.983 10.3801 19.8733 10.3697C19.7195 10.3592 19.6447 10.4197 19.6334 10.5721V10.9803C19.6447 11.2145 19.7209 11.3152 19.9722 11.3562C20.2131 11.3962 20.464 11.4256 20.7265 11.4361C21.4915 11.4457 22.0943 11.1632 22.488 10.5431C22.6521 10.2993 22.7837 10.045 22.9037 9.78117C23.964 7.29233 25.0141 4.81375 26.0641 2.31445C26.0969 2.24305 26.1169 2.17093 26.1282 2.08994C26.1497 1.96803 26.0843 1.90791 25.9652 1.90965H25.0808C24.928 1.8992 24.7854 1.98989 24.7311 2.12226C24.7095 2.18322 24.6867 2.23309 24.6651 2.29404L23.1014 6.44921C22.9917 6.74355 22.8705 7.04795 22.7608 7.37277C22.7383 7.32139 22.7282 7.3012 22.7169 7.27072C22.1375 5.78769 21.5696 4.30604 20.9902 2.82301C20.903 2.57917 20.8048 2.34374 20.7064 2.11035C20.6633 1.99801 20.5633 1.91816 20.4208 1.91816C20.0814 1.90771 19.7432 1.90795 19.3935 1.90795ZM8.30467 2.96248C8.97217 3.01298 9.51841 3.31806 9.80247 4.03911C9.97778 4.48585 10.0222 4.91684 10.0222 5.38448C10.0222 5.82164 9.98981 6.20814 9.84825 6.6244C9.54169 7.50829 8.84114 7.85335 7.94395 7.81329C7.30926 7.78281 6.7738 7.55812 6.27037 7.2333C6.21599 7.20282 6.18315 7.15372 6.19346 7.10234V3.65302C6.18315 3.59206 6.21599 3.54233 6.27037 3.51185C6.88255 3.11562 7.56029 2.91197 8.30467 2.96248ZM15.4 5.70594C15.5873 5.6907 15.776 5.69398 15.9621 5.71445C16.3343 5.74492 16.7069 5.80511 17.0791 5.85562C17.156 5.86607 17.1761 5.89671 17.1761 5.95767C17.1649 6.16144 17.1761 6.35429 17.1761 6.55807C17.1761 6.76097 17.1651 6.94448 17.1651 7.14826C17.1764 7.19877 17.1433 7.23854 17.0992 7.26902C16.5958 7.60429 16.0491 7.82887 15.4256 7.88983C15.1744 7.90986 14.9222 7.90983 14.6822 7.81839C14.4085 7.72695 14.2025 7.5131 14.1256 7.25881C14.0384 6.99495 14.0387 6.72075 14.1146 6.45601C14.2346 6.11029 14.4964 5.91863 14.847 5.80629C15.0275 5.75535 15.2127 5.72118 15.4 5.70594ZM27.225 12.358C26.3499 12.3693 25.3171 12.5514 24.5333 13.0621C24.2914 13.218 24.3338 13.4344 24.6029 13.4057C25.4841 13.3073 27.4456 13.0864 27.7962 13.5026C28.1478 13.9189 27.4075 15.6362 27.0803 16.4043C26.9791 16.6333 27.1931 16.7281 27.4191 16.5539C28.8853 15.4131 29.2663 13.0217 28.9663 12.6777C28.8158 12.5057 28.1 12.3466 27.225 12.358ZM1.13975 13.2288C0.935317 13.2549 0.847265 13.4956 1.06101 13.6863C4.7332 16.8858 9.58556 18.4521 14.9734 18.4521C18.8162 18.4521 23.2774 17.2874 26.357 15.0929C26.8661 14.728 26.4324 14.1813 25.9103 14.3973C22.4574 15.8124 18.7072 16.4944 15.2938 16.4944C10.2351 16.4944 5.33783 15.5134 1.37596 13.2849C1.28924 13.2361 1.20789 13.2201 1.13975 13.2288Z" fill="#212121"/>
</svg>
