<svg width="38" height="17" viewBox="0 0 38 17" fill="none" xmlns="http://www.w3.org/2000/svg">
<g clip-path="url(#clip0_6182_5472)">
<path d="M0 -9.64453H37.9056V9.7018L36.0294 12.4735L37.9056 14.9403V26.1933H0V7.95564L1.17264 6.68067L0 5.46112V-9.64453Z" fill="#016FD0"/>
<path d="M7.35938 15.3296V9.70312H13.6605L14.3366 10.5364L15.035 9.70312H37.9067V14.9416C37.9067 14.9416 37.3086 15.324 36.6168 15.3296H23.9523L23.19 14.4427V15.3296H20.6923V13.8156C20.6923 13.8156 20.3511 14.0269 19.6135 14.0269H18.7633V15.3296H14.9815L14.3065 14.4785L13.621 15.3296H7.35938Z" fill="white"/>
<path d="M0 5.46012L1.42094 2.32812H3.8783L4.6847 4.08254V2.32812H7.73944L8.21948 3.59616L8.68488 2.32812H22.3975V2.96561C22.3975 2.96561 23.1183 2.32812 24.303 2.32812L28.7522 2.34283L29.5447 4.07428V2.32812H32.1011L32.8046 3.32271V2.32812H35.3845V7.95463H32.8046L32.1304 6.95683V7.95463H28.3745L27.9968 7.06769H26.9871L26.6156 7.95463H24.0685C23.0491 7.95463 22.3975 7.33016 22.3975 7.33016V7.95463H18.5571L17.7948 7.06769V7.95463H3.51426L3.13682 7.06769H2.13033L1.75556 7.95463H0V5.46012Z" fill="white"/>
<path d="M1.92435 3.02344L0.0078125 7.23639H1.25558L1.6092 6.39276H3.66499L4.01678 7.23639H5.29203L3.37732 3.02344H1.92435ZM2.63343 4.00392L3.26006 5.47811H2.00497L2.63343 4.00392Z" fill="#016FD0"/>
<path d="M5.42188 7.23639V3.02344L7.19502 3.02967L8.22634 5.74591L9.23296 3.02344H10.9919V7.23639H9.87791V4.13211L8.69704 7.23639H7.72005L6.53588 4.13211V7.23639H5.42188Z" fill="#016FD0"/>
<path d="M11.7578 7.23639V3.02344H15.393V3.96581H12.8835V4.68644H15.3344V5.57338H12.8835V6.32174H15.393V7.23639H11.7578Z" fill="#016FD0"/>
<path d="M16.0352 3.02344V7.23639H17.1492V5.73968H17.6182L18.9539 7.23639H20.3153L18.8495 5.68425C19.4511 5.63626 20.0716 5.1481 20.0716 4.39023C20.0716 3.50367 19.3356 3.02344 18.5142 3.02344H16.0352ZM17.1492 3.96581H18.4226C18.7281 3.96581 18.9503 4.19172 18.9503 4.40928C18.9503 4.68917 18.6624 4.85275 18.4391 4.85275H17.1492V3.96581Z" fill="#016FD0"/>
<path d="M21.6648 7.23639H20.5273V3.02344H21.6648V7.23639Z" fill="#016FD0"/>
<path d="M24.3618 7.23639H24.1162C22.9283 7.23639 22.207 6.35154 22.207 5.14724C22.207 3.91319 22.9202 3.02344 24.4204 3.02344H25.6517V4.02124H24.3754C23.7664 4.02124 23.3357 4.47057 23.3357 5.15763C23.3357 5.97352 23.8282 6.3162 24.5377 6.3162H24.8308L24.3618 7.23639Z" fill="#016FD0"/>
<path d="M26.7837 3.02344L24.8672 7.23639H26.115L26.4686 6.39276H28.5244L28.8762 7.23639H30.1514L28.2367 3.02344H26.7837ZM27.4928 4.00392L28.1194 5.47811H26.8643L27.4928 4.00392Z" fill="#016FD0"/>
<path d="M30.2812 7.23639V3.02344H31.6976L33.506 5.67039V3.02344H34.62V7.23639H33.2495L31.3953 4.52015V7.23639H30.2812Z" fill="#016FD0"/>
<path d="M8.12109 14.6075V10.3945H11.7563V11.3369H9.24683V12.0575H11.6977V12.9445H9.24683V13.6928H11.7563V14.6075H8.12109Z" fill="#016FD0"/>
<path d="M25.9336 14.6075V10.3945H29.5688V11.3369H27.0593V12.0575H29.4984V12.9445H27.0593V13.6928H29.5688V14.6075H25.9336Z" fill="#016FD0"/>
<path d="M11.8976 14.6075L13.6676 12.527L11.8555 10.3945H13.259L14.3382 11.7128L15.421 10.3945H16.7696L14.9813 12.501L16.7545 14.6075H15.3512L14.3034 13.31L13.281 14.6075H11.8976Z" fill="#016FD0"/>
<path d="M16.8867 10.3945V14.6075H18.03V13.2771H19.2027C20.1949 13.2771 20.947 12.7794 20.947 11.8116C20.947 11.0098 20.3571 10.3945 19.3474 10.3945H16.8867ZM18.03 11.3473H19.265C19.5855 11.3473 19.8147 11.533 19.8147 11.8323C19.8147 12.1135 19.5867 12.3174 19.2613 12.3174H18.03V11.3473Z" fill="#016FD0"/>
<path d="M21.4297 10.3945V14.6075H22.5437V13.1108H23.0128L24.3485 14.6075H25.7098L24.244 13.0553C24.8456 13.0073 25.4661 12.5192 25.4661 11.7613C25.4661 10.8748 24.7301 10.3945 23.9087 10.3945H21.4297ZM22.5437 11.3369H23.8171C24.1226 11.3369 24.3448 11.5628 24.3448 11.7804C24.3448 12.0603 24.0569 12.2238 23.8336 12.2238H22.5437V11.3369Z" fill="#016FD0"/>
<path d="M30.0868 14.6075V13.6928H32.3162C32.6461 13.6928 32.789 13.5243 32.789 13.3394C32.789 13.1623 32.6466 12.9833 32.3162 12.9833H31.3088C30.433 12.9833 29.9453 12.4788 29.9453 11.7215C29.9453 11.046 30.3919 10.3945 31.6933 10.3945H33.8627L33.3936 11.3424H31.5174C31.1587 11.3424 31.0483 11.5204 31.0483 11.6903C31.0483 11.8649 31.1848 12.0575 31.4588 12.0575H32.5141C33.4904 12.0575 33.914 12.5811 33.914 13.2667C33.914 14.0038 33.4419 14.6075 32.461 14.6075H30.0868Z" fill="#016FD0"/>
<path d="M34.1728 14.6075V13.6928H36.4023C36.7322 13.6928 36.875 13.5243 36.875 13.3394C36.875 13.1623 36.7326 12.9833 36.4023 12.9833H35.3948C34.5191 12.9833 34.0314 12.4788 34.0314 11.7215C34.0314 11.046 34.478 10.3945 35.7793 10.3945H37.9487L37.4797 11.3424H35.6034C35.2448 11.3424 35.1344 11.5204 35.1344 11.6903C35.1344 11.8649 35.2708 12.0575 35.5448 12.0575H36.6002C37.5764 12.0575 38 12.5811 38 13.2667C38 14.0038 37.528 14.6075 36.547 14.6075H34.1728Z" fill="#016FD0"/>
</g>
<defs>
<clipPath id="clip0_6182_5472">
<rect width="38" height="17" fill="white" transform="translate(0 0.00390625)"/>
</clipPath>
</defs>
</svg>
