<svg width="35" height="14" viewBox="0 0 35 14" fill="none" xmlns="http://www.w3.org/2000/svg">
<g clip-path="url(#clip0_6182_5494)">
<path d="M6.39843 1.80885C5.98827 2.28174 5.33202 2.65472 4.67577 2.60143C4.59374 1.96204 4.91503 1.28269 5.291 0.863088C5.70116 0.376884 6.41893 0.0305475 6.99999 0.00390625C7.06835 0.669939 6.80175 1.32265 6.39843 1.80885ZM6.99315 2.72798C6.04296 2.6747 5.22948 3.25414 4.77831 3.25414C4.3203 3.25414 3.62987 2.75462 2.87792 2.76794C1.90038 2.78126 0.991199 3.32075 0.492176 4.17993C-0.533215 5.89829 0.225574 8.44254 1.21679 9.8412C1.70214 10.5339 2.28319 11.2932 3.04882 11.2665C3.77343 11.2399 4.06053 10.807 4.93553 10.807C5.81737 10.807 6.0703 11.2665 6.83593 11.2532C7.62889 11.2399 8.12792 10.5605 8.61327 9.86785C9.16698 9.08193 9.39257 8.31599 9.40624 8.27603C9.39257 8.26271 7.87499 7.69658 7.86132 5.99154C7.84764 4.56623 9.05761 3.88687 9.11229 3.84691C8.4287 2.86119 7.36229 2.75462 6.99315 2.72798ZM12.4824 0.796485V11.1799H14.1367V7.62998H16.4267C18.5185 7.62998 19.9883 6.23131 19.9883 4.20657C19.9883 2.18183 18.5459 0.796485 16.4814 0.796485H12.4824ZM14.1367 2.15519H16.0439C17.4795 2.15519 18.2998 2.90115 18.2998 4.21323C18.2998 5.52531 17.4795 6.27793 16.0371 6.27793H14.1367V2.15519ZM23.0098 11.2599C24.0488 11.2599 25.0127 10.747 25.4502 9.93445H25.4844V11.1799H27.0156V6.01152C27.0156 4.51295 25.7851 3.5472 23.8916 3.5472C22.1348 3.5472 20.8359 4.52627 20.7881 5.87165H22.2783C22.4014 5.23226 23.0098 4.81266 23.8437 4.81266C24.8555 4.81266 25.4228 5.27222 25.4228 6.11808V6.69087L23.3584 6.81076C21.4375 6.92398 20.3984 7.68992 20.3984 9.02198C20.3984 10.3674 21.4717 11.2599 23.0098 11.2599ZM23.4541 10.0277C22.5723 10.0277 22.0117 9.61475 22.0117 8.98202C22.0117 8.32931 22.5517 7.94967 23.584 7.88973L25.4228 7.7765V8.36261C25.4228 9.33502 24.5752 10.0277 23.4541 10.0277ZM29.0596 14.0039C30.6728 14.0039 31.4316 13.4045 32.0947 11.5862L35 3.6471H33.3183L31.3701 9.78126H31.3359L29.3877 3.6471H27.6582L30.4609 11.2066L30.3105 11.6661C30.0576 12.4454 29.6474 12.7451 28.916 12.7451C28.7861 12.7451 28.5332 12.7318 28.4307 12.7185V13.9639C28.5264 13.9906 28.9365 14.0039 29.0596 14.0039Z" fill="#212121"/>
</g>
<defs>
<clipPath id="clip0_6182_5494">
<rect width="35" height="14" fill="white" transform="translate(0 0.00390625)"/>
</clipPath>
</defs>
</svg>
