<svg width="48" height="29" viewBox="0 0 48 29" fill="none" xmlns="http://www.w3.org/2000/svg">
<g clip-path="url(#clip0_6182_5459)">
<path d="M4 0.503906H44C45.9804 0.503906 47.5 1.94819 47.5 3.62891V25.3789C47.5 27.0596 45.9804 28.5039 44 28.5039H4C2.01955 28.5039 0.5 27.0596 0.5 25.3789V3.62891C0.5 1.94819 2.01955 0.503906 4 0.503906Z" stroke="#F2F2F2"/>
<path d="M22.9482 15.4789V19.6692H21.625V9.32101H25.1344C25.5533 9.31222 25.9698 9.38686 26.3598 9.54062C26.7498 9.69438 27.1057 9.92421 27.4069 10.2169C27.7111 10.4917 27.9532 10.8289 28.1169 11.2056C28.2806 11.5822 28.3622 11.9898 28.3561 12.4008C28.3648 12.814 28.2845 13.2242 28.1207 13.6033C27.9568 13.9823 27.7133 14.3214 27.4069 14.5971C26.7932 15.1849 26.0357 15.4786 25.1344 15.4781H22.9482V15.4789ZM22.9482 10.595V14.2073H25.1673C25.4105 14.2146 25.6526 14.1707 25.8781 14.0786C26.1035 13.9865 26.3073 13.8481 26.4765 13.6723C26.6448 13.5079 26.7785 13.3114 26.8699 13.0942C26.9612 12.877 27.0083 12.6436 27.0083 12.4078C27.0083 12.172 26.9612 11.9386 26.8699 11.7214C26.7785 11.5042 26.6448 11.3076 26.4765 11.1433C26.3095 10.9638 26.1064 10.822 25.8806 10.7273C25.6549 10.6327 25.4118 10.5873 25.1673 10.5942H22.9482V10.595Z" fill="#5F6368"/>
<path d="M31.4064 12.3594C32.3844 12.3594 33.1564 12.6219 33.7224 13.1471C34.2884 13.6722 34.5711 14.3922 34.5706 15.307V19.6707H33.3049V18.6882H33.2474C32.6995 19.4973 31.9707 19.9019 31.0612 19.9019C30.2848 19.9019 29.6353 19.6707 29.1126 19.2083C28.8617 18.9961 28.6611 18.7303 28.5255 18.4304C28.3899 18.1304 28.3226 17.8038 28.3285 17.4744C28.3285 16.7418 28.6041 16.1591 29.1553 15.7265C29.7065 15.2938 30.4423 15.0769 31.3628 15.0758C32.1485 15.0758 32.7956 15.2203 33.3041 15.5093V15.2055C33.3056 14.9809 33.2573 14.7588 33.1628 14.5553C33.0683 14.3518 32.9298 14.172 32.7576 14.0289C32.4076 13.7117 31.9516 13.5387 31.4804 13.5442C30.7412 13.5442 30.1563 13.8574 29.7257 14.4838L28.5603 13.7465C29.2013 12.8218 30.15 12.3594 31.4064 12.3594ZM29.6944 17.5033C29.6935 17.6725 29.7329 17.8395 29.8093 17.9903C29.8856 18.1411 29.9967 18.2714 30.1333 18.3703C30.426 18.6015 30.7892 18.7241 31.1615 18.7171C31.7199 18.7161 32.2551 18.4928 32.6499 18.0962C33.0882 17.6817 33.3074 17.1953 33.3074 16.6372C32.8948 16.3069 32.3195 16.1418 31.5815 16.1418C31.0439 16.1418 30.5958 16.272 30.2369 16.5323C29.8744 16.7965 29.6944 17.1177 29.6944 17.5033Z" fill="#5F6368"/>
<path d="M41.8313 12.5898L37.4129 22.791H36.0469L37.6866 19.2217L34.7812 12.5898H36.2195L38.3194 17.676H38.3482L40.3905 12.5898H41.8313Z" fill="#5F6368"/>
<path d="M17.6004 14.576C17.6009 14.1709 17.5668 13.7664 17.4985 13.3672H11.918V15.6568H15.1142C15.0488 16.0225 14.9104 16.3711 14.7073 16.6815C14.5042 16.992 14.2406 17.258 13.9324 17.4634V18.9496H15.8399C16.9569 17.915 17.6004 16.385 17.6004 14.576Z" fill="#4285F4"/>
<path d="M11.9199 20.3852C13.5168 20.3852 14.8614 19.8584 15.8419 18.9502L13.9343 17.464C13.4034 17.8256 12.7196 18.032 11.9199 18.032C10.3764 18.032 9.06637 16.9867 8.59791 15.5781H6.63281V17.1097C7.12533 18.0943 7.88056 18.922 8.81417 19.5004C9.74779 20.0788 10.8231 20.3851 11.9199 20.3852Z" fill="#34A853"/>
<path d="M8.5952 15.5806C8.34754 14.8425 8.34754 14.0432 8.5952 13.3051V11.7734H6.63011C6.21578 12.6017 6 13.5159 6 14.4428C6 15.3698 6.21578 16.284 6.63011 17.1122L8.5952 15.5806Z" fill="#FBBC04"/>
<path d="M11.9199 10.8497C12.7638 10.8358 13.5792 11.1561 14.1899 11.7414L15.8789 10.0446C14.8079 9.03406 13.3891 8.47924 11.9199 8.49648C10.8231 8.49653 9.74779 8.80285 8.81417 9.38125C7.88056 9.95964 7.12533 10.7873 6.63281 11.7719L8.59791 13.3036C9.06637 11.895 10.3764 10.8497 11.9199 10.8497Z" fill="#EA4335"/>
</g>
<defs>
<clipPath id="clip0_6182_5459">
<rect width="48" height="29" fill="white" transform="translate(0 0.00390625)"/>
</clipPath>
</defs>
</svg>
