<svg width="36" height="19" viewBox="0 0 36 19" fill="none" xmlns="http://www.w3.org/2000/svg">
<g clip-path="url(#clip0_6182_5407)">
<path d="M32.5349 0.015625H3.46291C1.55471 0.015625 0.0078125 1.48417 0.0078125 3.29571V15.7131C0.0078125 17.5247 1.55471 18.9932 3.46291 18.9932H32.5349C34.4431 18.9932 35.99 17.5247 35.99 15.7131V3.29571C35.99 1.48417 34.4431 0.015625 32.5349 0.015625Z" fill="#FFB3C7"/>
<path fill-rule="evenodd" clip-rule="evenodd" d="M32.6206 11.1556C32.1499 11.1556 31.7683 11.5212 31.7683 11.9722C31.7683 12.4231 32.1499 12.7887 32.6206 12.7887C33.0914 12.7887 33.4731 12.4231 33.4731 11.9722C33.4731 11.5211 33.0914 11.1556 32.6206 11.1556ZM29.8162 10.5243C29.8162 9.90683 29.2653 9.40642 28.5857 9.40642C27.9061 9.40642 27.3551 9.90685 27.3551 10.5243C27.3551 11.1417 27.906 11.6423 28.5857 11.6423C29.2654 11.6423 29.8162 11.1417 29.8162 10.5243ZM29.8207 8.35157H31.1788V12.6968H29.8207V12.4191C29.4371 12.6698 28.974 12.8171 28.4745 12.8171C27.1526 12.8171 26.081 11.7906 26.081 10.5242C26.081 9.25791 27.1526 8.23145 28.4745 8.23145C28.974 8.23145 29.4371 8.3788 29.8207 8.62953V8.35157ZM18.9525 8.91757V8.35163H17.5621V12.6968H18.9556V10.6681C18.9556 9.98365 19.73 9.61576 20.2674 9.61576C20.2729 9.61576 20.278 9.61627 20.2835 9.61633V8.35197C19.732 8.35197 19.2248 8.5781 18.9525 8.91757ZM15.4889 10.5243C15.4889 9.90685 14.938 9.40643 14.2584 9.40643C13.5788 9.40643 13.0278 9.90687 13.0278 10.5243C13.0278 11.1417 13.5787 11.6423 14.2584 11.6423C14.938 11.6423 15.4889 11.1417 15.4889 10.5243ZM15.4934 8.35158H16.8516V12.6968H15.4934V12.4191C15.1098 12.6698 14.6466 12.8171 14.1472 12.8171C12.8253 12.8171 11.7537 11.7906 11.7537 10.5243C11.7537 9.25793 12.8253 8.23147 14.1472 8.23147C14.6467 8.23147 15.1098 8.37881 15.4934 8.62954V8.35158ZM23.6678 8.23471C23.1253 8.23471 22.6118 8.39606 22.2686 8.84119V8.35184H20.9163V12.6969H22.2852V10.4134C22.2852 9.75264 22.7477 9.42908 23.3047 9.42908C23.9016 9.42908 24.2447 9.77065 24.2447 10.4045V12.6969H25.6012V9.93366C25.6012 8.92246 24.7619 8.23471 23.6678 8.23471ZM9.77545 12.6969H11.1969V6.41522H9.77545V12.6969ZM3.53125 12.6986H5.03643V6.41408H3.53125V12.6986ZM8.79585 6.41408C8.79585 7.77462 8.24237 9.04027 7.25613 9.98103L9.3367 12.6988H7.47762L5.2165 9.74517L5.80006 9.32651C6.76782 8.63205 7.32291 7.57056 7.32291 6.41406L8.79585 6.41408Z" fill="#212121"/>
</g>
<defs>
<clipPath id="clip0_6182_5407">
<rect width="36" height="19" fill="white" transform="translate(0 0.00390625)"/>
</clipPath>
</defs>
</svg>
