<svg width="48" height="29" viewBox="0 0 48 29" fill="none" xmlns="http://www.w3.org/2000/svg">
<rect x="0.5" y="0.503906" width="47" height="28" rx="2.5" stroke="#E6E6E6"/>
<path d="M23.7575 21.4206C25.6641 19.6954 26.8558 17.2021 26.8558 14.431C26.8558 11.6602 25.6641 9.16892 23.7575 7.44349C22.0893 5.92684 19.8602 5.00391 17.4349 5.00391C12.2197 5.00391 8 9.22438 8 14.431C8 19.6397 12.2197 23.8602 17.4349 23.8602C19.8599 23.8604 22.089 22.9355 23.7575 21.4206Z" fill="#0066CB"/>
<path d="M23.7578 21.4224C25.6644 19.6972 26.8561 17.2039 26.8561 14.4329C26.8561 11.662 25.6644 9.17074 23.7578 7.44531" fill="#0066CB"/>
<path d="M23.7578 21.4224C25.6644 19.6972 26.8561 17.2039 26.8561 14.4329C26.8561 11.662 25.6644 9.17074 23.7578 7.44531" stroke="#0066CB" stroke-width="0.3097"/>
<path d="M30.0918 5.00391C27.6525 5.00391 25.4234 5.92684 23.7552 7.44349C23.4187 7.75365 23.0962 8.0869 22.8019 8.44298H24.7085C24.975 8.7589 25.2134 9.09213 25.4237 9.44068H22.087C21.8907 9.76037 21.7086 10.0936 21.5402 10.4384H25.9702C26.1243 10.7621 26.2505 11.0951 26.3627 11.4379H21.1475C21.0353 11.7616 20.9372 12.0948 20.8672 12.4356H26.6432C26.7835 13.079 26.8535 13.7472 26.8535 14.431C26.8535 15.4782 26.6851 16.4857 26.3627 17.4259H21.1477C21.2599 17.7685 21.3861 18.1017 21.5402 18.4252H25.9702C25.8018 18.7702 25.6337 19.1032 25.4234 19.4231H22.0867C22.297 19.7717 22.5495 20.1049 22.8019 20.4211H24.7085C24.4142 20.7769 24.0917 21.1102 23.7552 21.4203C25.4234 22.9352 27.6525 23.8602 30.0918 23.8602C35.2929 23.8602 39.5127 19.6397 39.5127 14.431C39.5127 9.22438 35.2927 5.00391 30.0918 5.00391Z" fill="#CC0001"/>
<path d="M38.5202 19.6681H38.5623C38.5766 19.6681 38.5902 19.6701 38.5902 19.6641C38.6045 19.6566 38.6183 19.645 38.6183 19.6337C38.6183 19.622 38.6042 19.6107 38.5902 19.6049C38.5902 19.5991 38.5623 19.6009 38.5623 19.6009H38.5202V19.6681ZM38.5202 19.8212H38.4642V19.5532H38.5764C38.6042 19.5532 38.6183 19.5532 38.6464 19.5667C38.6604 19.582 38.6742 19.6069 38.6742 19.634C38.6742 19.6644 38.6602 19.6915 38.6321 19.7025L38.6742 19.8214H38.6042L38.5764 19.7143H38.5199V19.8212H38.5202ZM38.5623 19.9191C38.6885 19.9191 38.8007 19.8157 38.8007 19.6872C38.8007 19.5587 38.6885 19.4553 38.5623 19.4553C38.4363 19.4553 38.338 19.5587 38.338 19.6872C38.338 19.8157 38.4363 19.9191 38.5623 19.9191ZM38.2539 19.6872C38.2539 19.5186 38.3942 19.3828 38.5623 19.3828C38.7307 19.3828 38.8707 19.5186 38.8707 19.6872C38.8707 19.8558 38.7304 19.9916 38.5623 19.9916C38.3942 19.9916 38.2539 19.8558 38.2539 19.6872Z" fill="#212121"/>
<path d="M15.9655 17.053H14.7738L15.4747 13.378L13.8624 17.053H12.881L12.6848 13.3991L11.8998 17.053H10.8203L11.7315 12.2734H13.5962L13.624 15.232L14.9138 12.2734H16.8904L15.9655 17.053Z" fill="#212121"/>
<path d="M29.0713 17.0053C28.7488 17.0936 28.4964 17.1318 28.2301 17.1318C27.6274 17.1318 27.3047 16.8312 27.3047 16.2779C27.3047 16.1687 27.3047 16.052 27.3325 15.9291L27.4026 15.5481L27.4588 15.2417L28.0055 12.2734H29.1691L29.001 13.1658H29.6038L29.4356 14.1098H28.8329L28.5245 15.7318C28.5104 15.8043 28.5104 15.8563 28.5104 15.8927C28.5104 16.0937 28.6226 16.1818 28.9029 16.1818C29.0432 16.1818 29.141 16.1705 29.2253 16.1454L29.0713 17.0053Z" fill="#212121"/>
<path d="M24.4174 14.3957C24.4174 14.8878 24.6839 15.225 25.3145 15.4795C25.7913 15.6749 25.8751 15.7324 25.8751 15.9086C25.8751 16.152 25.6648 16.2606 25.1885 16.2606C24.838 16.2606 24.5015 16.2132 24.1231 16.1058L23.9688 17.0036L24.0109 17.0114L24.2352 17.0516C24.3052 17.0631 24.4036 17.0747 24.5436 17.0859C24.8239 17.107 25.0483 17.1188 25.2023 17.1188C26.4502 17.1188 27.0251 16.707 27.0251 15.8205C27.0251 15.288 26.7867 14.9741 26.1978 14.7382C25.6932 14.541 25.6372 14.4988 25.6372 14.3171C25.6372 14.1063 25.8334 13.9992 26.2121 13.9992C26.4502 13.9992 26.7727 14.0223 27.067 14.0587L27.2354 13.1586C26.927 13.1164 26.4643 13.082 26.1978 13.082C24.8661 13.082 24.4034 13.6795 24.4174 14.3957Z" fill="#212121"/>
<path d="M18.9638 15.3225C18.8378 15.3089 18.7816 15.3054 18.6973 15.3054C18.0386 15.3054 17.7021 15.5044 17.7021 15.8969C17.7021 16.138 17.8702 16.2934 18.1227 16.2934C18.5992 16.2936 18.9497 15.8971 18.9638 15.3225ZM19.7628 17.0537H18.7814L18.8095 16.6497C18.5011 16.9694 18.1086 17.1207 17.5756 17.1207C16.9307 17.1207 16.4961 16.6878 16.4961 16.0597C16.4961 15.112 17.2532 14.5604 18.5568 14.5604C18.697 14.5604 18.8652 14.5697 19.0335 14.5908C19.0755 14.4625 19.0895 14.4071 19.0895 14.3381C19.0895 14.0796 18.8792 13.9838 18.3324 13.9838C17.9959 13.9838 17.6175 14.0259 17.351 14.0929L17.1967 14.1331L17.0845 14.1579L17.2527 13.2849C17.8414 13.1353 18.2198 13.0781 18.6544 13.0781C19.6636 13.0781 20.1966 13.4726 20.1966 14.2194C20.1966 14.4108 20.1826 14.5564 20.0985 14.9893L19.8601 16.3679L19.8182 16.6148L19.7901 16.812L19.762 16.948V17.0537" fill="#212121"/>
<path d="M23.0437 14.6577C23.0437 14.5774 23.0577 14.5104 23.0577 14.4605C23.0577 14.1446 22.8474 13.9586 22.4969 13.9586C22.1185 13.9586 21.852 14.2076 21.7538 14.6555L23.0437 14.6577ZM23.6183 16.9711C23.2118 17.0785 22.8191 17.13 22.4125 17.1279C21.0949 17.1279 20.4219 16.5305 20.4219 15.3874C20.4219 14.0527 21.2911 13.0703 22.4688 13.0703C23.4359 13.0703 24.0529 13.6199 24.0529 14.4833C24.0529 14.7709 24.0108 15.0482 23.8986 15.4427H21.5714C21.5574 15.5019 21.5574 15.529 21.5574 15.5651C21.5574 16.015 21.9079 16.2449 22.5947 16.2449C23.0153 16.2449 23.3939 16.1704 23.8145 15.9997L23.6183 16.9711Z" fill="#212121"/>
<path d="M34.944 14.826C34.944 14.42 34.7759 14.0351 34.2993 14.0351C33.6966 14.0351 33.3322 14.7437 33.3322 15.3678C33.3322 15.8945 33.5844 16.2488 34.0052 16.2408C34.2574 16.2408 34.8042 15.8943 34.9023 15.289C34.9299 15.1495 34.944 14.9947 34.944 14.826ZM36.1357 15.291C35.9673 16.5836 35.0561 17.1565 33.8506 17.1565C32.5327 17.1565 32 16.3522 32 15.3661C32 13.9872 32.8974 13.0547 34.2993 13.0547C35.5189 13.0547 36.164 13.8226 36.164 14.809C36.1638 15.0481 36.1638 15.0652 36.1357 15.291Z" fill="#212121"/>
<path d="M36.528 16.4572H36.5699C36.5699 16.4572 36.5842 16.4572 36.598 16.4514C36.6118 16.4456 36.612 16.4323 36.612 16.4208C36.612 16.4113 36.612 16.3997 36.598 16.3942C36.598 16.3884 36.5699 16.3884 36.5561 16.3884H36.528V16.4572ZM36.528 16.6085H36.4717V16.3405H36.5839C36.598 16.3405 36.6261 16.3425 36.6539 16.3561C36.668 16.3694 36.6818 16.3962 36.6818 16.4231C36.6818 16.4517 36.6677 16.4805 36.6399 16.4918L36.6818 16.6087H36.6118L36.5696 16.5034H36.528V16.6085ZM36.5699 16.7061C36.6963 16.7061 36.7945 16.6027 36.7945 16.4743C36.7945 16.3478 36.6963 16.2444 36.5699 16.2444C36.4439 16.2444 36.3317 16.3478 36.3317 16.4743C36.3317 16.6027 36.4439 16.7061 36.5699 16.7061ZM36.2617 16.4743C36.2617 16.3076 36.402 16.1719 36.5701 16.1719C36.7385 16.1719 36.8785 16.3076 36.8785 16.4743C36.8785 16.6429 36.7382 16.7786 36.5701 16.7786C36.4017 16.7786 36.2617 16.6429 36.2617 16.4743Z" fill="white"/>
<path d="M16.2577 16.7796H15.0801L15.7809 13.1049L14.1687 16.7796H13.1032L12.907 13.128L12.2061 16.7796H11.1406L12.0518 12H13.8881L13.9722 14.9605L15.276 12H17.1826L16.2577 16.7796Z" fill="white"/>
<path d="M29.3645 16.7339C29.042 16.822 28.7896 16.8601 28.5231 16.8601C27.9204 16.8601 27.5977 16.5577 27.5977 16.0064C27.5977 15.897 27.6117 15.7806 27.6258 15.6579L27.6958 15.2765L27.7517 14.9681L28.2988 12H29.4624L29.2942 12.8923H29.897L29.7286 13.8383H29.1259L28.8175 15.4601C28.8034 15.5312 28.8034 15.5846 28.8034 15.6213C28.8034 15.8225 28.9296 15.9086 29.2099 15.9086C29.3361 15.9086 29.4345 15.897 29.5183 15.8719L29.3645 16.7339Z" fill="white"/>
<path d="M32.3791 14.0065L32.3513 13.884L32.5897 13.275C32.5332 13.2692 32.5053 13.2675 32.5053 13.2637C32.4353 13.2502 32.4072 13.2426 32.3932 13.2426C32.3653 13.2349 32.3232 13.2331 32.2813 13.2331C31.8888 13.2331 31.6223 13.4035 31.2577 13.8632L31.3842 13.1719H30.1644L29.4492 17.0533H30.6131C30.7671 16.1628 30.8374 15.6556 30.9355 15.2341C31.0896 14.5352 31.6085 14.2173 31.9869 14.288C32.0288 14.2958 32.0569 14.2958 32.1129 14.3169L32.1829 14.3435L32.3791 14.0065Z" fill="#212121"/>
<path d="M32.7845 12.9263C32.6864 12.888 32.6724 12.8879 32.6586 12.8842C32.6021 12.8706 32.5602 12.8631 32.5602 12.8611C32.5183 12.8553 32.4761 12.8516 32.434 12.8516C32.0556 12.8516 31.7753 13.024 31.4107 13.4837L31.5228 12.8937H30.4573L29.7422 16.781H30.9198C31.3404 14.4046 31.5226 13.9873 32.0834 13.9873C32.1256 13.9873 32.1675 13.9911 32.2237 13.9968L32.364 14.0254L32.7845 12.9263Z" fill="white"/>
<path d="M24.7101 14.1206C24.7101 14.6107 24.9904 14.9497 25.6215 15.2044C26.0981 15.3978 26.1683 15.4553 26.1683 15.6335C26.1683 15.8746 25.958 15.9838 25.4953 15.9838C25.1307 15.9838 24.8083 15.9359 24.4298 15.8305L24.2617 16.7268L24.3177 16.7361L24.528 16.7742C24.598 16.788 24.7104 16.7993 24.8504 16.8091C25.1307 16.8302 25.341 16.8415 25.4953 16.8415C26.7568 16.8415 27.3317 16.4317 27.3317 15.5451C27.3317 15.0109 27.0935 14.6987 26.4905 14.4631C26 14.2659 25.9435 14.222 25.9435 14.0398C25.9435 13.831 26.14 13.7239 26.5184 13.7239C26.7565 13.7239 27.0652 13.7449 27.3736 13.7813L27.5417 12.8815C27.2333 12.8393 26.7708 12.8047 26.4905 12.8047C25.1729 12.8049 24.7101 13.4024 24.7101 14.1206Z" fill="white"/>
<path d="M19.218 15.0471C19.0918 15.0338 19.0356 15.0317 18.9515 15.0317C18.2925 15.0317 17.956 15.2307 17.956 15.6232C17.956 15.8646 18.1104 16.0197 18.3766 16.0197C18.8534 16.0199 19.1899 15.6214 19.218 15.0471ZM20.0729 16.778H19.0915L19.1196 16.376C18.8253 16.6954 18.4188 16.845 17.8858 16.845C17.2549 16.845 16.8203 16.4121 16.8203 15.784C16.8203 14.8378 17.5774 14.2847 18.881 14.2847C19.0072 14.2847 19.1753 14.296 19.3575 14.3153C19.3856 14.1868 19.3994 14.1334 19.3994 14.0626C19.3994 13.8059 19.1891 13.7103 18.6423 13.7103C18.3058 13.7103 17.9272 13.7505 17.675 13.8175L17.5069 13.8596L17.4088 13.8847L17.5631 13.0094C18.1518 12.8601 18.5302 12.8047 18.9648 12.8047C19.9741 12.8047 20.507 13.1992 20.507 13.9442C20.507 14.1357 20.493 14.2812 20.423 14.7138L20.1705 16.0947L20.1286 16.3416L20.1005 16.5388L20.0865 16.6726L20.0729 16.778Z" fill="white"/>
<path d="M23.2945 14.3843C23.2945 14.302 23.2945 14.2367 23.2945 14.185C23.2945 13.8691 23.0982 13.6852 22.7477 13.6852C22.3693 13.6852 22.1028 13.9321 21.9906 14.3823L23.2945 14.3843ZM23.9115 16.6974C23.5188 16.8028 23.1263 16.8545 22.7196 16.8545C21.4019 16.8545 20.7148 16.257 20.7148 15.112C20.7148 13.7793 21.5838 12.7969 22.7615 12.7969C23.7288 12.7969 24.3456 13.3464 24.3456 14.2081C24.3456 14.4954 24.3035 14.775 24.2051 15.1692H21.8782C21.8641 15.2287 21.8641 15.2555 21.8641 15.2917C21.8641 15.7418 22.2144 15.9717 22.8874 15.9717C23.308 15.9717 23.6867 15.8949 24.107 15.7245L23.9115 16.6974Z" fill="white"/>
<path d="M35.2268 14.52C35.2268 14.114 35.0587 13.7293 34.5821 13.7293C33.9794 13.7293 33.615 14.4377 33.615 15.062C33.615 15.5905 33.8675 15.945 34.288 15.937C34.5405 15.937 35.087 15.5905 35.1851 14.9852C35.213 14.8434 35.2268 14.6886 35.2268 14.52ZM36.4466 15.0181C36.2642 16.3104 35.3668 16.8848 34.1616 16.8848C32.8296 16.8848 32.2969 16.0785 32.2969 15.0924C32.2969 13.7155 33.208 12.7812 34.6102 12.7812C35.8295 12.7812 36.4747 13.5491 36.4747 14.5353C36.4747 14.7764 36.4747 14.792 36.4466 15.0181Z" fill="white"/>
</svg>
