<svg width="48" height="29" viewBox="0 0 48 29" fill="none" xmlns="http://www.w3.org/2000/svg">
<rect x="0.5" y="0.503906" width="47" height="28" rx="2.5" stroke="#E6E6E6"/>
<path d="M27.7412 7.96356L20.2695 7.98828L20.5003 21.5199L27.972 21.4952L27.7412 7.96356Z" fill="#FF5F00"/>
<path d="M20.7617 14.7801C20.7146 12.0278 21.9603 9.58244 23.9122 7.99634C22.4381 6.85235 20.5903 6.16434 18.5875 6.17094C13.8427 6.18657 10.0699 10.0524 10.1515 14.8151C10.233 19.5777 14.1378 23.4183 18.8826 23.4027C20.8854 23.3961 22.7095 22.696 24.1442 21.5424C22.1386 19.9933 20.8088 17.5324 20.7617 14.7801Z" fill="#EB001B"/>
<path d="M38.0907 14.6639C38.1723 19.4266 34.3995 23.2924 29.6547 23.308C27.6519 23.3146 25.8041 22.6266 24.33 21.4826C26.3057 19.8965 27.5276 17.4511 27.4805 14.6989C27.4334 11.9466 26.104 9.50965 24.098 7.93659C25.5327 6.78302 27.3568 6.08291 29.3596 6.07631C34.1044 6.06068 38.0096 9.92517 38.0907 14.6639Z" fill="#F79E1B"/>
</svg>
