<svg width="48" height="29" viewBox="0 0 48 29" fill="none" xmlns="http://www.w3.org/2000/svg">
<rect x="0.5" y="0.503906" width="47" height="28" rx="2.5" stroke="#E6E6E6"/>
<path d="M12.0655 10.4728C11.6164 10.1605 11.0303 10.0039 10.3073 10.0039H7.50804C7.28639 10.0039 7.16393 10.116 7.14067 10.3401L6.00357 17.561C5.99175 17.6319 6.00929 17.6968 6.05603 17.7557C6.1025 17.8148 6.16095 17.8442 6.23095 17.8442H7.56056C7.79376 17.8442 7.92194 17.7323 7.94547 17.508L8.26033 15.5612C8.27183 15.4669 8.31285 15.3902 8.38285 15.3311C8.45279 15.2721 8.54028 15.2336 8.64525 15.2159C8.75022 15.1984 8.8492 15.1895 8.94268 15.1895C9.03589 15.1895 9.14663 15.1955 9.27513 15.2073C9.40331 15.219 9.48502 15.2248 9.52005 15.2248C10.523 15.2248 11.3103 14.9389 11.8819 14.3664C12.4532 13.7943 12.7392 13.0009 12.7392 11.986C12.7392 11.2898 12.5145 10.7855 12.0655 10.4727V10.4728ZM10.6223 12.641C10.5638 13.0541 10.4123 13.3253 10.1674 13.4551C9.92245 13.5851 9.57256 13.6498 9.11776 13.6498L8.54038 13.6675L8.83787 11.7737C8.86107 11.644 8.93685 11.5791 9.06524 11.5791H9.39775C9.86406 11.5791 10.2025 11.6471 10.4124 11.7826C10.6223 11.9183 10.6923 12.2046 10.6223 12.641Z" fill="#003087"/>
<path d="M41.6064 10.0039H40.3119C40.1833 10.0039 40.1075 10.0688 40.0844 10.1987L38.9472 17.5613L38.9297 17.5967C38.9297 17.656 38.953 17.7117 38.9998 17.7649C39.0462 17.8179 39.1048 17.8444 39.1747 17.8444H40.3295C40.5507 17.8444 40.6732 17.7326 40.6969 17.5082L41.834 10.2695V10.2519C41.834 10.0867 41.7579 10.0041 41.6064 10.0041V10.0039Z" fill="#009CDE"/>
<path d="M25.9654 12.8532C25.9654 12.7944 25.942 12.7382 25.8956 12.6853C25.8489 12.6322 25.7963 12.6055 25.7382 12.6055H24.3911C24.2625 12.6055 24.1575 12.6648 24.076 12.7824L22.2216 15.5435L21.4518 12.8887C21.3932 12.7001 21.2651 12.6055 21.067 12.6055H19.7546C19.6962 12.6055 19.6437 12.6321 19.5973 12.6853C19.5506 12.7382 19.5273 12.7945 19.5273 12.8532C19.5273 12.877 19.6411 13.2249 19.8685 13.8975C20.0958 14.5702 20.3408 15.2959 20.6032 16.0747C20.8657 16.8533 21.0026 17.2665 21.0143 17.3133C20.0579 18.635 19.5799 19.3429 19.5799 19.4371C19.5799 19.5906 19.6555 19.6672 19.8073 19.6672H21.1544C21.2826 19.6672 21.3875 19.6084 21.4694 19.4903L25.9307 12.9771C25.9538 12.9537 25.9654 12.9126 25.9654 12.8532V12.8532Z" fill="#003087"/>
<path d="M38.5109 12.6083H37.1813C37.0178 12.6083 36.919 12.803 36.884 13.1925C36.5804 12.7206 36.0268 12.4844 35.2218 12.4844C34.3821 12.4844 33.6676 12.803 33.0788 13.4402C32.4897 14.0773 32.1953 14.8268 32.1953 15.688C32.1953 16.3843 32.3965 16.9388 32.7988 17.3516C33.2012 17.7649 33.7405 17.9711 34.4172 17.9711C34.7554 17.9711 35.0995 17.9002 35.4494 17.7587C35.7992 17.6171 36.0731 17.4284 36.2717 17.1923C36.2717 17.2042 36.2598 17.2571 36.2368 17.3514C36.2132 17.446 36.2017 17.517 36.2017 17.5638C36.2017 17.7528 36.2773 17.847 36.4292 17.847H37.6364C37.8577 17.847 37.9862 17.7351 38.0211 17.5108L38.7385 12.8914C38.75 12.8205 38.7325 12.7558 38.686 12.6967C38.6391 12.6378 38.5809 12.6083 38.5109 12.6083ZM36.2279 16.095C35.9305 16.39 35.5718 16.5374 35.1519 16.5374C34.8135 16.5374 34.5397 16.4432 34.3296 16.2543C34.1196 16.0659 34.0146 15.8063 34.0146 15.4756C34.0146 15.0393 34.1605 14.6703 34.4522 14.3694C34.7433 14.0686 35.1052 13.9182 35.5368 13.9182C35.8631 13.9182 36.1343 14.0155 36.3503 14.2101C36.5658 14.4048 36.6741 14.6733 36.6741 15.0155C36.674 15.4402 36.5253 15.8002 36.2279 16.095Z" fill="#009CDE"/>
<path d="M18.6361 12.6083H17.3065C17.1429 12.6083 17.044 12.803 17.009 13.1925C16.6941 12.7206 16.14 12.4844 15.3469 12.4844C14.5072 12.4844 13.7927 12.803 13.2038 13.4402C12.6147 14.0773 12.3203 14.8268 12.3203 15.688C12.3203 16.3843 12.5215 16.9388 12.9239 17.3516C13.3263 17.7649 13.8656 17.9711 14.5422 17.9711C14.8686 17.9711 15.2071 17.9002 15.5569 17.7587C15.9068 17.6171 16.1867 17.4284 16.3967 17.1923C16.3499 17.3338 16.3267 17.4577 16.3267 17.5638C16.3267 17.7528 16.4024 17.847 16.5541 17.847H17.7612C17.9827 17.847 18.1111 17.7351 18.1461 17.5108L18.8634 12.8914C18.8749 12.8205 18.8575 12.7558 18.8109 12.6967C18.7643 12.6378 18.706 12.6083 18.6361 12.6083ZM16.353 16.1038C16.0555 16.3932 15.6909 16.5374 15.2596 16.5374C14.9212 16.5374 14.65 16.4432 14.446 16.2543C14.2418 16.0659 14.1399 15.8063 14.1399 15.4756C14.1399 15.0393 14.2856 14.6703 14.5773 14.3694C14.8687 14.0686 15.2303 13.9181 15.662 13.9181C15.9884 13.9181 16.2595 14.0155 16.4755 14.2101C16.6911 14.4048 16.7992 14.6733 16.7992 15.0155C16.7991 15.4521 16.6504 15.815 16.353 16.1038Z" fill="#003087"/>
<path d="M31.9406 10.4728C31.4915 10.1605 30.9056 10.0039 30.1824 10.0039H27.4006C27.1673 10.0039 27.0389 10.116 27.0158 10.3401L25.8786 17.561C25.8668 17.6319 25.8843 17.6968 25.9311 17.7557C25.9773 17.8148 26.0359 17.8442 26.1059 17.8442H27.5405C27.6804 17.8442 27.7737 17.7676 27.8205 17.6142L28.1354 15.5612C28.147 15.4669 28.1878 15.3902 28.2579 15.3311C28.3279 15.2721 28.4153 15.2336 28.5203 15.2159C28.6252 15.1984 28.7242 15.1895 28.8177 15.1895C28.911 15.1895 29.0217 15.1955 29.1501 15.2073C29.2783 15.219 29.3602 15.2248 29.395 15.2248C30.3982 15.2248 31.1853 14.9389 31.7569 14.3664C32.3284 13.7943 32.6141 13.0009 32.6141 11.986C32.6142 11.2898 32.3895 10.7854 31.9406 10.4727V10.4728ZM30.1474 13.3843C29.8908 13.5612 29.5058 13.6497 28.9928 13.6497L28.4329 13.6674L28.7303 11.7736C28.7534 11.644 28.8292 11.5789 28.9577 11.5789H29.2725C29.5291 11.5789 29.7332 11.5908 29.885 11.6143C30.0364 11.638 30.1824 11.7116 30.3224 11.8355C30.4624 11.9594 30.5323 12.1394 30.5323 12.3753C30.5323 12.871 30.4038 13.2071 30.1474 13.3843Z" fill="#009CDE"/>
</svg>
