<svg width="48" height="29" viewBox="0 0 48 29" fill="none" xmlns="http://www.w3.org/2000/svg">
<rect x="0.5" y="0.503906" width="47" height="28" rx="2.5" stroke="#E6E6E6"/>
<path d="M39.8039 9.16016H37.5257C36.8369 9.16016 36.307 9.36968 35.9891 10.0506L31.6445 19.8459H34.7175C34.7175 19.8459 35.2474 18.5364 35.3533 18.2221C35.6712 18.2221 38.6913 18.2221 39.1151 18.2221C39.2211 18.5887 39.486 19.7935 39.486 19.7935H42.2411L39.8039 9.16016ZM36.2011 16.0221C36.466 15.3935 37.3667 13.0363 37.3667 13.0363C37.3667 13.0887 37.6316 12.4078 37.7376 12.0411L37.9495 12.984C37.9495 12.984 38.5323 15.5506 38.6383 16.0744H36.2011V16.0221Z" fill="#3362AB"/>
<path d="M31.854 16.3372C31.854 18.5372 29.8406 20.0039 26.7146 20.0039C25.3901 20.0039 24.1185 19.742 23.4297 19.4277L23.8536 17.0182L24.2244 17.1753C25.1781 17.5944 25.8139 17.7515 26.9796 17.7515C27.8273 17.7515 28.728 17.4372 28.728 16.7039C28.728 16.2325 28.3571 15.9182 27.1915 15.3944C26.0788 14.8706 24.5953 14.0325 24.5953 12.5134C24.5953 10.4182 26.6617 9.00391 29.5757 9.00391C30.6884 9.00391 31.6421 9.21343 32.2249 9.47534L31.801 11.7801L31.5891 11.5706C31.0592 11.3611 30.3705 11.1515 29.3638 11.1515C28.2511 11.2039 27.7213 11.6753 27.7213 12.0944C27.7213 12.5658 28.3571 12.9325 29.3638 13.4039C31.0592 14.1896 31.854 15.0801 31.854 16.3372Z" fill="#3362AB"/>
<path d="M6 9.26421L6.05298 9.05469H10.6095C11.2453 9.05469 11.7222 9.26421 11.8811 9.94516L12.8878 14.6595C11.8811 12.1452 9.54987 10.1023 6 9.26421Z" fill="#F9B50B"/>
<path d="M19.2987 9.16176L14.6892 19.7951H11.5632L8.91406 10.8903C10.8215 12.0951 12.4109 13.9808 12.9938 15.2903L13.3117 16.3903L16.1727 9.10938H19.2987V9.16176Z" fill="#3362AB"/>
<path d="M20.5185 9.10938H23.4325L21.5781 19.7951H18.6641L20.5185 9.10938Z" fill="#3362AB"/>
</svg>
