<svg width="40" height="25" viewBox="0 0 40 25" fill="none" xmlns="http://www.w3.org/2000/svg">
<g clip-path="url(#clip0_307_5717)">
<path opacity="0.07" d="M36.4368 0.00195312H3.12316C1.35337 0.00195312 0 1.35594 0 3.12654V21.8741C0 23.6447 1.45747 24.9986 3.12316 24.9986H36.4368C38.2066 24.9986 39.56 23.6447 39.56 21.8741V3.12654C39.56 1.35594 38.1025 0.00195312 36.4368 0.00195312Z" fill="black"/>
<path d="M36.4368 1.04297C37.582 1.04297 38.5189 1.98034 38.5189 3.12603V21.8735C38.5189 23.0192 37.582 23.9566 36.4368 23.9566H3.12312C1.97796 23.9566 1.04102 23.0192 1.04102 21.8735V3.12603C1.04102 1.98034 1.97796 1.04297 3.12312 1.04297H36.4368Z" fill="#5433EB"/>
<path d="M8.36747 11.855C7.1981 11.6013 6.67715 11.5021 6.67715 11.0514C6.67715 10.6276 7.0297 10.4165 7.73478 10.4165C8.35488 10.4165 8.80815 10.6875 9.1418 11.2185C9.16698 11.2594 9.21892 11.2736 9.26141 11.2516L10.5772 10.5867C10.6244 10.563 10.6417 10.5032 10.6149 10.4575C10.0688 9.51055 9.05996 8.99219 7.73164 8.99219C5.98624 8.99219 4.90186 9.85244 4.90186 11.22C4.90186 12.6727 6.22231 13.0398 7.39326 13.2935C8.5642 13.5472 9.08672 13.6464 9.08672 14.097C9.08672 14.5477 8.70584 14.7603 7.94568 14.7603C7.24374 14.7603 6.7228 14.4389 6.40803 13.815C6.38442 13.7693 6.32933 13.7504 6.28369 13.774L4.97111 14.4248C4.92546 14.4484 4.90658 14.5035 4.93018 14.5508C5.45113 15.5985 6.51977 16.1878 7.94725 16.1878C9.76504 16.1878 10.8636 15.3417 10.8636 13.9316C10.8636 12.5215 9.53684 12.1118 8.36747 11.8581V11.855Z" fill="white"/>
<path d="M15.4182 8.99177C14.6722 8.99177 14.0128 9.25645 13.5391 9.72755C13.5092 9.75591 13.4603 9.73543 13.4603 9.69447V6.68671C13.4603 6.63471 13.4194 6.59375 13.3675 6.59375H11.7213C11.6693 6.59375 11.6284 6.63471 11.6284 6.68671V16.022C11.6284 16.074 11.6693 16.1149 11.7213 16.1149H13.3675C13.4194 16.1149 13.4603 16.074 13.4603 16.022V11.927C13.4603 11.1361 14.0663 10.5295 14.8831 10.5295C15.7 10.5295 16.2917 11.1235 16.2917 11.927V16.022C16.2917 16.074 16.3326 16.1149 16.3845 16.1149H18.0308C18.0828 16.1149 18.1237 16.074 18.1237 16.022V11.927C18.1237 10.2065 16.9968 8.99334 15.4182 8.99334V8.99177Z" fill="white"/>
<path d="M21.4632 8.72266C20.5693 8.72266 19.732 8.99681 19.1307 9.39228C19.0898 9.41906 19.0757 9.47421 19.1008 9.51674L19.8264 10.7567C19.8532 10.8008 19.9098 10.8166 19.9538 10.7898C20.4103 10.5141 20.9328 10.3707 21.4664 10.3739C22.9033 10.3739 23.9593 11.3885 23.9593 12.7293C23.9593 13.8716 23.1142 14.7177 22.0423 14.7177C21.1689 14.7177 20.563 14.2088 20.563 13.4903C20.563 13.0791 20.7376 12.7419 21.1925 12.504C21.2397 12.4788 21.257 12.4205 21.2287 12.3748L20.544 11.2152C20.522 11.1774 20.4748 11.1601 20.4323 11.1758C19.5148 11.5161 18.8711 12.3354 18.8711 13.4352C18.8711 15.099 20.1946 16.3406 22.0408 16.3406C24.197 16.3406 25.7472 14.8453 25.7472 12.701C25.7472 10.4022 23.9436 8.72266 21.4632 8.72266Z" fill="white"/>
<path d="M30.5613 8.97814C29.7286 8.97814 28.9858 9.28538 28.4429 9.82737C28.4129 9.85731 28.3642 9.83525 28.3642 9.79428V9.142C28.3642 9.09001 28.3233 9.04904 28.2713 9.04904H26.6675C26.6156 9.04904 26.5747 9.09001 26.5747 9.142V18.463C26.5747 18.515 26.6156 18.556 26.6675 18.556H28.3138C28.3657 18.556 28.4066 18.515 28.4066 18.463V15.4065C28.4066 15.3655 28.4555 15.345 28.4853 15.3718C29.0268 15.876 29.7429 16.1706 30.5628 16.1706C32.4939 16.1706 34.0001 14.606 34.0001 12.5736C34.0001 10.5411 32.4923 8.97656 30.5628 8.97656L30.5613 8.97814ZM30.2512 14.5919C29.1527 14.5919 28.3201 13.7174 28.3201 12.561C28.3201 11.4045 29.151 10.5301 30.2512 10.5301C31.3513 10.5301 32.1808 11.3903 32.1808 12.561C32.1808 13.7316 31.3624 14.5919 30.2496 14.5919H30.2512Z" fill="white"/>
</g>
<defs>
<clipPath id="clip0_307_5717">
<rect width="39.56" height="25" fill="white"/>
</clipPath>
</defs>
</svg>
