<svg width="40" height="25" viewBox="0 0 40 25" fill="none" xmlns="http://www.w3.org/2000/svg">
<g clip-path="url(#clip0_306_5670)">
<path opacity="0.07" d="M36.4368 0.00195312H3.12316C1.35337 0.00195312 0 1.35594 0 3.12654V21.8741C0 23.6447 1.45747 24.9986 3.12316 24.9986H36.4368C38.2066 24.9986 39.56 23.6447 39.56 21.8741V3.12654C39.56 1.35594 38.1025 0.00195312 36.4368 0.00195312Z" fill="black"/>
<path d="M36.4368 1.04297C37.582 1.04297 38.5189 1.98034 38.5189 3.12603V21.8735C38.5189 23.0192 37.582 23.9566 36.4368 23.9566H3.12312C1.97796 23.9566 1.04102 23.0192 1.04102 21.8735V3.12603C1.04102 1.98034 1.97796 1.04297 3.12312 1.04297H36.4368Z" fill="white"/>
<path d="M18.8357 12.4756V15.8085H17.7759V7.58044H20.5774C20.913 7.57476 21.2465 7.63551 21.5586 7.7592C21.8707 7.88289 22.1553 8.06708 22.3961 8.30118C22.6241 8.51406 22.808 8.76982 22.9371 9.05383C23.0663 9.33784 23.1383 9.64453 23.1489 9.95638C23.1595 10.2682 23.1086 10.5791 22.9991 10.8713C22.8896 11.1634 22.7236 11.4311 22.5106 11.6591L22.3961 11.7799C21.9068 12.2455 21.253 12.4985 20.5774 12.4819L18.8357 12.4756ZM18.8357 8.58864V11.4924H20.6034C20.9959 11.5049 21.3748 11.3518 21.6496 11.0716C21.8462 10.8666 21.9782 10.6083 22.0292 10.3289C22.0802 10.0494 22.048 9.76108 21.9365 9.4998C21.825 9.23852 21.6392 9.01581 21.4021 8.85936C21.1651 8.70291 20.8873 8.61963 20.6034 8.61989L18.8357 8.58864ZM25.5859 9.99262C26.2625 9.96138 26.9246 10.1884 27.4368 10.6311C27.9001 11.0789 28.1468 11.7039 28.1135 12.3486V15.821H27.1048V15.0232H27.0537C26.8728 15.3224 26.617 15.5693 26.3116 15.7393C26.0061 15.9094 25.6616 15.9968 25.3121 15.9929C24.7415 16.0114 24.185 15.813 23.7546 15.4377C23.5507 15.2713 23.3873 15.0607 23.2768 14.8218C23.1662 14.5829 23.1114 14.322 23.1165 14.0588C23.1045 13.7927 23.1561 13.5277 23.2671 13.2857C23.3781 13.0437 23.5452 12.8316 23.7546 12.6673C24.2683 12.2977 24.89 12.109 25.5224 12.1309C26.0606 12.1101 26.5946 12.2277 27.0735 12.4756V12.259C27.077 12.0799 27.0398 11.9023 26.9646 11.7397C26.8894 11.5771 26.7782 11.4338 26.6394 11.3206C26.3607 11.0671 25.9957 10.93 25.6192 10.9373C25.3457 10.9347 25.0761 11.0019 24.8358 11.1326C24.5956 11.2633 24.3926 11.4531 24.246 11.6841L23.3143 11.0966C23.5673 10.734 23.9088 10.4421 24.3065 10.2489C24.7041 10.0556 25.1445 9.96742 25.5859 9.99262ZM24.246 14.0838C24.2435 14.2186 24.2742 14.3521 24.3354 14.4723C24.3966 14.5926 24.4864 14.6959 24.5969 14.7732C24.829 14.9566 25.1174 15.0534 25.4141 15.0472C25.8607 15.0461 26.2886 14.8701 26.6071 14.5556C26.9246 14.2577 27.1048 13.8421 27.1048 13.4068C26.704 13.1217 26.217 12.9841 25.7264 13.0172C25.3455 13.0022 24.9697 13.1095 24.6541 13.3234C24.5291 13.4071 24.4265 13.5202 24.3554 13.6527C24.2842 13.7853 24.2467 13.9333 24.246 14.0838ZM33.9132 10.178L30.3841 18.2915H29.293L30.6266 15.4502L28.3113 10.178H29.4596L31.1378 14.2244L32.7712 10.178H33.9132Z" fill="#5F6368"/>
<path d="M14.5602 11.7551C14.5602 11.4343 14.5352 11.1135 14.4842 10.7969H10.0181V12.6164H12.5697C12.5177 12.9056 12.408 13.1813 12.247 13.427C12.086 13.6727 11.8771 13.8834 11.6327 14.0464V15.2275H13.1568C13.6203 14.7789 13.9846 14.2382 14.2263 13.6401C14.468 13.042 14.5817 12.3999 14.5602 11.7551Z" fill="#4285F4"/>
<path d="M10.0245 16.3746C11.1762 16.4063 12.2968 15.9977 13.1581 15.2321L11.6319 14.0447C11.2652 14.28 10.8497 14.4284 10.417 14.4788C9.98431 14.5293 9.54583 14.4803 9.1349 14.3357C8.72397 14.1911 8.35141 13.9547 8.04555 13.6443C7.73969 13.334 7.50859 12.958 7.36981 12.5449H5.80615V13.7635C6.19743 14.5478 6.79937 15.2076 7.54446 15.6688C8.28955 16.13 9.14833 16.3744 10.0245 16.3746Z" fill="#34A853"/>
<path d="M7.37052 12.553C7.17241 11.9669 7.17241 11.332 7.37052 10.7459V9.52734H5.80614C5.47263 10.185 5.29883 10.912 5.29883 11.6495C5.29883 12.3869 5.47263 13.1139 5.80614 13.7716L7.37052 12.553Z" fill="#FBBC04"/>
<path d="M10.0245 8.79312C10.6981 8.78081 11.3492 9.03539 11.8359 9.50136L13.1893 8.15466C12.3264 7.34437 11.1818 6.90239 9.99847 6.92253C9.12749 6.92691 8.27474 7.17251 7.53475 7.63211C6.79476 8.09171 6.19645 8.74736 5.80615 9.52636L7.36981 10.746C7.55265 10.1836 7.90709 9.6928 8.38329 9.3425C8.85948 8.99219 9.43347 8.80006 10.0245 8.79312Z" fill="#EA4335"/>
</g>
<defs>
<clipPath id="clip0_306_5670">
<rect width="39.56" height="25" fill="white"/>
</clipPath>
</defs>
</svg>
