<svg width="40" height="25" viewBox="0 0 40 25" fill="none" xmlns="http://www.w3.org/2000/svg">
<g clip-path="url(#clip0_306_5678)">
<path opacity="0.07" d="M36.4368 0.00195312H3.12316C1.35337 0.00195312 0 1.35594 0 3.12654V21.8741C0 23.6447 1.45747 24.9986 3.12316 24.9986H36.4368C38.2066 24.9986 39.56 23.6447 39.56 21.8741V3.12654C39.56 1.35594 38.1025 0.00195312 36.4368 0.00195312Z" fill="black"/>
<path d="M36.4368 1.04297C37.582 1.04297 38.5189 1.98034 38.5189 3.12603V21.8735C38.5189 23.0192 37.582 23.9566 36.4368 23.9566H3.12312C1.97796 23.9566 1.04102 23.0192 1.04102 21.8735V3.12603C1.04102 1.98034 1.97796 1.04297 3.12312 1.04297H36.4368Z" fill="white"/>
<path d="M15.616 19.7904C19.6407 19.7904 22.9034 16.5262 22.9034 12.4997C22.9034 8.47314 19.6407 5.20898 15.616 5.20898C11.5913 5.20898 8.32861 8.47314 8.32861 12.4997C8.32861 16.5262 11.5913 19.7904 15.616 19.7904Z" fill="#EB001B"/>
<path d="M23.9441 19.7904C27.9688 19.7904 31.2315 16.5262 31.2315 12.4997C31.2315 8.47314 27.9688 5.20898 23.9441 5.20898C19.9194 5.20898 16.6567 8.47314 16.6567 12.4997C16.6567 16.5262 19.9194 19.7904 23.9441 19.7904Z" fill="#F79E1B"/>
<path d="M22.9031 12.4992C22.9031 9.99955 21.6538 7.81233 19.7799 6.5625C17.906 7.91649 16.6567 10.1037 16.6567 12.4992C16.6567 14.8947 17.906 17.1861 19.7799 18.4359C21.6538 17.1861 22.9031 14.9989 22.9031 12.4992Z" fill="#FF5F00"/>
</g>
<defs>
<clipPath id="clip0_306_5678">
<rect width="39.56" height="25" fill="white"/>
</clipPath>
</defs>
</svg>
