<svg width="40" height="25" viewBox="0 0 40 25" fill="none" xmlns="http://www.w3.org/2000/svg">
<g clip-path="url(#clip0_306_5700)">
<path opacity="0.07" d="M36.4368 0.00195312H3.12316C1.35337 0.00195312 0 1.35594 0 3.12654V21.8741C0 23.6447 1.45747 24.9986 3.12316 24.9986H36.4368C38.2066 24.9986 39.56 23.6447 39.56 21.8741V3.12654C39.56 1.35594 38.1025 0.00195312 36.4368 0.00195312Z" fill="black"/>
<path d="M36.4368 1.04297C37.582 1.04297 38.5189 1.98034 38.5189 3.12603V21.8735C38.5189 23.0192 37.582 23.9566 36.4368 23.9566H3.12312C1.97796 23.9566 1.04102 23.0192 1.04102 21.8735V3.12603C1.04102 1.98034 1.97796 1.04297 3.12312 1.04297H36.4368Z" fill="white"/>
<path d="M29.4616 10.5212H29.1493C28.7329 11.5627 28.4206 12.0835 28.1082 13.6458H30.0862C29.7739 12.0835 29.7739 11.3544 29.4616 10.5212ZM32.4807 16.6662H30.7109C30.6068 16.6662 30.6068 16.6662 30.5027 16.5621L30.2944 15.6247L30.1903 15.4164H27.6918C27.5877 15.4164 27.4836 15.4164 27.4836 15.6247L27.1713 16.5621C27.1713 16.6662 27.0672 16.6662 27.0672 16.6662H24.881L25.0892 16.1455L28.1082 9.06305C28.1082 8.54229 28.4206 8.33398 28.9411 8.33398H30.5027C30.6068 8.33398 30.7109 8.33398 30.7109 8.54229L32.1683 15.3122C32.2724 15.7288 32.3766 16.0413 32.3766 16.4579C32.4807 16.5621 32.4807 16.5621 32.4807 16.6662ZM18.5306 16.3538L18.947 14.479C19.0511 14.479 19.1552 14.5832 19.1552 14.5832C19.8839 14.8956 20.6127 15.1039 21.3414 14.9998C21.5496 14.9998 21.8619 14.8956 22.0701 14.7915C22.5907 14.5832 22.5907 14.0624 22.1742 13.6458C21.966 13.4375 21.6537 13.3333 21.3414 13.125C20.925 12.9167 20.5086 12.7084 20.1962 12.3959C18.947 11.3544 19.3634 9.89628 20.0921 9.16721C20.7168 8.7506 21.0291 8.33398 21.8619 8.33398C23.1112 8.33398 24.4646 8.33398 25.0892 8.54229H25.1933C25.0892 9.16721 24.9851 9.68797 24.7769 10.3129C24.2563 10.1046 23.7358 9.89628 23.2153 9.89628C22.903 9.89628 22.5907 9.89628 22.2783 10.0004C22.0701 10.0004 21.966 10.1046 21.8619 10.2087C21.6537 10.417 21.6537 10.7295 21.8619 10.9378L22.3824 11.3544C22.7989 11.5627 23.2153 11.771 23.5276 11.9793C24.0481 12.2918 24.5687 12.8126 24.6728 13.4375C24.881 14.3749 24.5687 15.2081 23.7358 15.833C23.2153 16.2496 23.0071 16.4579 22.2783 16.4579C20.8209 16.4579 19.6757 16.5621 18.7388 16.2496C18.6347 16.4579 18.6347 16.4579 18.5306 16.3538ZM14.8869 16.6662C14.991 15.9371 14.991 15.9371 15.0951 15.6247C15.6156 13.3333 16.1361 10.9378 16.5526 8.64644C16.6567 8.43814 16.6567 8.33398 16.8649 8.33398H18.7388C18.5306 9.58382 18.3223 10.5212 18.01 11.6669C17.6977 13.2292 17.3854 14.7915 16.969 16.3538C16.969 16.5621 16.8649 16.5621 16.6567 16.5621M5.20508 8.54229C5.20508 8.43814 5.41329 8.33398 5.51739 8.33398H9.05697C9.5775 8.33398 9.99392 8.64644 10.098 9.16721L11.035 13.7499C11.035 13.8541 11.035 13.8541 11.1391 13.9582C11.1391 13.8541 11.2432 13.8541 11.2432 13.8541L13.4294 8.54229C13.3253 8.43814 13.4294 8.33398 13.5335 8.33398H15.7197C15.7197 8.43814 15.7197 8.43814 15.6156 8.54229L12.3883 16.1455C12.2842 16.3538 12.2842 16.4579 12.1801 16.5621C12.076 16.6662 11.8678 16.5621 11.6596 16.5621H10.098C9.99392 16.5621 9.88982 16.5621 9.88982 16.3538L8.22413 9.89628C8.01592 9.68797 7.7036 9.37551 7.28718 9.27136C6.66255 8.9589 5.51739 8.7506 5.30918 8.7506L5.20508 8.54229Z" fill="#142688"/>
</g>
<defs>
<clipPath id="clip0_306_5700">
<rect width="39.56" height="25" fill="white"/>
</clipPath>
</defs>
</svg>
