<svg width="40" height="25" viewBox="0 0 40 25" fill="none" xmlns="http://www.w3.org/2000/svg">
<g clip-path="url(#clip0_307_5740)">
<path d="M36 0H4C2.3 0 1 1.3 1 3V21C1 22.7 2.4 24 4 24H36C37.7 24 39 22.7 39 21V3C39 1.3 37.6 0 36 0Z" fill="white"/>
<mask id="mask0_307_5740" style="mask-type:alpha" maskUnits="userSpaceOnUse" x="1" y="1" width="38" height="23">
<path d="M36.8889 1C38.05 1 39 1.94091 39 3.09091V21.9091C39 23.0591 38.05 24 36.8889 24H3.11111C1.95 24 1 23.0591 1 21.9091V3.09091C1 1.94091 1.95 1 3.11111 1H36.8889Z" fill="white"/>
</mask>
<g mask="url(#mask0_307_5740)">
<path d="M16.7769 8.05664C17.2301 8.05664 17.6102 8.14904 18.0727 8.37194V9.54991C17.6346 9.14278 17.2545 8.9724 16.7519 8.9724C15.764 8.9724 14.9871 9.74977 14.9871 10.7354C14.9871 11.7747 15.74 12.5058 16.8009 12.5058C17.2784 12.5058 17.6515 12.3443 18.0727 11.9437V13.1222C17.5937 13.3366 17.2055 13.4213 16.7519 13.4213C15.1479 13.4213 13.9015 12.2514 13.9015 10.7426C13.9015 9.25017 15.1811 8.05664 16.7769 8.05664ZM11.7968 8.0891C12.3889 8.0891 12.9306 8.28173 13.3836 8.65832L12.8324 9.34423C12.558 9.05192 12.2985 8.92862 11.983 8.92862C11.529 8.92862 11.1983 9.17428 11.1983 9.49753C11.1983 9.77476 11.3839 9.92149 12.016 10.1438C13.2142 10.5602 13.5693 10.9295 13.5693 11.745C13.5693 12.7387 12.8013 13.4304 11.7067 13.4304C10.9052 13.4304 10.3225 13.1303 9.83714 12.4533L10.5175 11.8304C10.7602 12.2762 11.1648 12.515 11.6673 12.515C12.1372 12.515 12.4851 12.2068 12.4851 11.791C12.4851 11.5754 12.3797 11.3906 12.1693 11.2599C12.0633 11.198 11.8535 11.1058 11.4411 10.9675C10.4518 10.629 10.1124 10.2672 10.1124 9.56002C10.1124 8.71999 10.8413 8.0891 11.7968 8.0891ZM23.8338 8.17859H24.9845L26.4247 11.6263L27.8834 8.17859H29.0253L26.6923 13.4433H26.1255L23.8338 8.17859ZM3.45703 8.18648H5.00321C6.71149 8.18648 7.90234 9.24172 7.90234 10.7566C7.90234 11.512 7.53804 12.2423 6.92198 12.727C6.40358 13.1361 5.81292 13.3195 4.99509 13.3195H3.45703V8.18648ZM8.38702 8.18648H9.4404V13.3195H8.38702V8.18648ZM29.5016 8.18648H32.4889V9.05623H30.5542V10.1956H32.4176V11.0649H30.5542V12.4505H32.4889V13.3195H29.5016V8.18648ZM33.1866 8.18648H34.7484C35.9633 8.18648 36.6595 8.74099 36.6595 9.702C36.6595 10.4879 36.2228 11.0037 35.4294 11.1571L37.1293 13.3195H35.8339L34.376 11.2575H34.2387V13.3195H33.1866V8.18648ZM34.2387 8.99495V10.5495H34.5465C35.2191 10.5495 35.5756 10.2719 35.5756 9.75589C35.5756 9.25635 35.2191 8.99495 34.5631 8.99495H34.2387ZM4.50962 9.05623V12.4505H4.79227C5.47294 12.4505 5.90282 12.3265 6.23377 12.0426C6.59807 11.7342 6.81721 11.2418 6.81721 10.7492C6.81721 10.2574 6.59807 9.77971 6.23377 9.47134C5.88585 9.17209 5.47294 9.05623 4.79227 9.05623H4.50962Z" fill="#241F20"/>
<path d="M21.289 8.02344C22.8756 8.02344 24.1618 9.20573 24.1618 10.6663V10.6679C24.1618 12.1284 22.8756 13.3124 21.289 13.3124C19.7023 13.3124 18.4161 12.1284 18.4161 10.6679V10.6663C18.4161 9.20573 19.7023 8.02344 21.289 8.02344ZM39.9993 14.3986C38.6634 15.3177 28.662 21.8865 11.3452 25.0595H37.1792C38.7364 25.0595 39.9993 23.8246 39.9993 22.3016V14.3986Z" fill="#F47216"/>
</g>
</g>
<defs>
<clipPath id="clip0_307_5740">
<rect width="39.56" height="25" fill="white"/>
</clipPath>
</defs>
</svg>
