<svg width="40" height="25" viewBox="0 0 40 25" fill="none" xmlns="http://www.w3.org/2000/svg">
<g clip-path="url(#clip0_306_5654)">
<path d="M35.8011 0H3.75922C3.62574 0 3.49203 0 3.3588 0.000707781C3.24631 0.00165149 3.13406 0.00283112 3.02158 0.00589817C2.77656 0.0125041 2.52942 0.0271316 2.28747 0.0705422C2.04482 0.112134 1.80973 0.189661 1.58992 0.300571C1.14803 0.525428 0.78886 0.884765 0.564105 1.32685C0.453048 1.54685 0.375547 1.78224 0.334182 2.0252C0.290319 2.26749 0.275934 2.51451 0.269332 2.7594C0.266458 2.87184 0.264728 2.9843 0.264144 3.09678C0.263672 3.22984 0.263672 3.36337 0.263672 3.49715V21.5026C0.263672 21.6364 0.263672 21.7697 0.264144 21.9035C0.264851 22.0158 0.266266 22.1283 0.269332 22.2408C0.275934 22.4853 0.290555 22.7325 0.334182 22.9746C0.375463 23.2175 0.452884 23.4529 0.56387 23.6729C0.675455 23.8926 0.821108 24.0933 0.995418 24.2674C1.16943 24.4419 1.37001 24.5876 1.58968 24.6992C1.813 24.8131 2.04175 24.8856 2.28771 24.9297C2.52942 24.9729 2.77656 24.9875 3.02158 24.9941C3.13406 24.9967 3.24631 24.9981 3.3588 24.9988C3.49203 24.9998 3.62574 24.9998 3.75922 24.9998H35.8011C35.9344 24.9998 36.0681 24.9998 36.2013 24.9988C36.3136 24.9983 36.4258 24.9967 36.5388 24.9941C36.7833 24.9875 37.0305 24.9729 37.2729 24.9297C37.5156 24.8881 37.7507 24.8104 37.9704 24.6992C38.4121 24.474 38.7712 24.1148 38.9962 23.6729C39.1101 23.4495 39.1823 23.2206 39.2259 22.9746C39.2698 22.7325 39.2839 22.4853 39.2905 22.2408C39.2936 22.1283 39.2953 22.0158 39.2957 21.9035C39.2967 21.7697 39.2967 21.6364 39.2967 21.5026V3.49738C39.2967 3.36361 39.2967 3.23008 39.2957 3.09654C39.2953 2.98415 39.2936 2.87176 39.2905 2.7594C39.2839 2.51451 39.2698 2.26749 39.2259 2.0252C39.1849 1.7822 39.1074 1.54677 38.9962 1.32685C38.7714 0.884842 38.4122 0.525534 37.9704 0.300571C37.7506 0.189775 37.5155 0.112329 37.2729 0.0707781C37.0305 0.0271316 36.7833 0.0127401 36.5388 0.0061341C36.4263 0.00327638 36.3138 0.00154617 36.2013 0.000943708C36.0681 0 35.9344 0 35.8011 0Z" fill="black"/>
<path d="M35.8007 0.833984L36.195 0.834692C36.3016 0.8354 36.4084 0.83658 36.5157 0.839411C36.7027 0.844601 36.9211 0.854746 37.1249 0.891315C37.3017 0.923165 37.4503 0.97153 37.5927 1.0442C37.8778 1.18919 38.1093 1.42111 38.254 1.70644C38.3261 1.848 38.3742 1.99569 38.4061 2.17429C38.4424 2.37577 38.4525 2.59494 38.4575 2.78298C38.4605 2.88914 38.462 2.99531 38.4622 3.10384C38.4634 3.23525 38.4634 3.36642 38.4634 3.49807V21.5035C38.4634 21.6352 38.4634 21.7664 38.4624 21.9004C38.462 22.0065 38.4605 22.1127 38.4577 22.2189C38.4525 22.4067 38.4424 22.6259 38.4056 22.8297C38.3789 22.9918 38.3276 23.149 38.2535 23.2956C38.1086 23.5811 37.8767 23.813 37.5913 23.9579C37.4498 24.0301 37.3017 24.0785 37.1265 24.1101C36.9188 24.1471 36.691 24.1573 36.5195 24.162C36.4117 24.1643 36.3045 24.166 36.1943 24.1665C36.0634 24.1674 35.9319 24.1674 35.8007 24.1674H3.75364C3.62394 24.1674 3.49424 24.1674 3.36218 24.1665C3.25605 24.166 3.14992 24.1646 3.04382 24.1622C2.86837 24.1575 2.64057 24.1471 2.43446 24.1103C2.27151 24.0831 2.11361 24.0314 1.96613 23.957C1.82466 23.8851 1.69555 23.7911 1.58363 23.6786C1.47136 23.5664 1.37759 23.4372 1.30583 23.2956C1.23173 23.1481 1.18037 22.9902 1.1535 22.8273C1.11671 22.6237 1.10633 22.4055 1.10162 22.2191C1.09895 22.1126 1.09738 22.006 1.0969 21.8994L1.09619 21.5864V3.4155L1.09666 3.10289C1.09715 2.99616 1.09872 2.88944 1.10138 2.78274C1.10657 2.59589 1.11671 2.37765 1.15373 2.1724C1.18066 2.00981 1.23202 1.85224 1.30607 1.70503C1.37776 1.56394 1.47114 1.43513 1.58434 1.32212C1.69653 1.2097 1.82578 1.11574 1.96731 1.04372C2.11443 0.969778 2.27183 0.9184 2.43423 0.891315C2.63821 0.854746 2.85682 0.844601 3.04406 0.839411C3.15065 0.83658 3.25747 0.8354 3.36336 0.834692L3.75882 0.833984H35.8007Z" fill="white"/>
<path d="M10.5243 8.43863C10.8555 8.02458 11.0801 7.4685 11.0209 6.90039C10.5363 6.92446 9.94507 7.22007 9.6025 7.6346C9.29509 7.98943 9.02307 8.56863 9.09384 9.11291C9.63789 9.1601 10.1815 8.84113 10.5243 8.43863Z" fill="black"/>
<path d="M11.014 9.21997C10.224 9.17278 9.55286 9.66823 9.17579 9.66823C8.79848 9.66823 8.22096 9.24356 7.59627 9.25512C6.7834 9.26692 6.02925 9.72697 5.61657 10.4583C4.76809 11.9211 5.39254 14.0916 6.21791 15.2831C6.61857 15.8729 7.10152 16.5217 7.73776 16.4983C8.3391 16.4747 8.57469 16.109 9.30525 16.109C10.0356 16.109 10.2478 16.4983 10.8843 16.4865C11.5441 16.4747 11.9568 15.8967 12.3575 15.3069C12.8173 14.6345 13.0053 13.9857 13.017 13.9503C13.0053 13.9385 11.7446 13.4546 11.7328 12.0037C11.721 10.7886 12.7227 10.2106 12.7699 10.175C12.2042 9.33793 11.3203 9.24356 11.0138 9.21997" fill="black"/>
<path d="M18.8869 7.57422C20.6032 7.57422 21.7985 8.75786 21.7985 10.4811C21.7985 12.2104 20.5787 13.4002 18.844 13.4002H16.9437V16.4238H15.5708V7.57422H18.8869ZM16.9437 12.2472H18.519C19.7146 12.2472 20.3947 11.6034 20.3947 10.4872C20.3947 9.37127 19.7144 8.73333 18.5251 8.73333H16.9437V12.2472Z" fill="black"/>
<path d="M22.1392 14.5907C22.1392 13.4561 23.0034 12.8061 24.5971 12.708L26.3073 12.6037V12.113C26.3073 11.3958 25.8354 11.0032 24.9956 11.0032C24.3028 11.0032 23.8 11.3587 23.6963 11.9044H22.4578C22.4948 10.7578 23.5734 9.92383 25.0324 9.92383C26.6016 9.92383 27.6253 10.7456 27.6253 12.0212V16.4243H26.3565V15.3634H26.3259C25.9641 16.0563 25.1671 16.4916 24.3028 16.4916C23.028 16.4916 22.1392 15.7314 22.1392 14.5907ZM26.3073 14.0205V13.5236L24.781 13.6217C23.9227 13.677 23.4755 13.9957 23.4755 14.5537C23.4755 15.0935 23.9413 15.4431 24.6707 15.4431C25.6022 15.4431 26.3073 14.8481 26.3073 14.0205Z" fill="black"/>
<path d="M28.792 18.7898V17.729C28.8778 17.7411 29.086 17.7533 29.1964 17.7533C29.8031 17.7533 30.1465 17.4962 30.355 16.8335L30.4776 16.4411L28.1543 10.002H29.5885L31.207 15.2268H31.2376L32.8558 10.002H34.2535L31.8444 16.766C31.2926 18.3177 30.6613 18.8268 29.3251 18.8268C29.2209 18.8268 28.8837 18.8145 28.792 18.7898Z" fill="black"/>
</g>
<defs>
<clipPath id="clip0_306_5654">
<rect width="39.56" height="25" fill="white"/>
</clipPath>
</defs>
</svg>
