<svg width="40" height="25" viewBox="0 0 40 25" fill="none" xmlns="http://www.w3.org/2000/svg">
<g clip-path="url(#clip0_306_5684)">
<path opacity="0.07" d="M36.4368 0.00195312H3.12316C1.35337 0.00195312 0 1.35594 0 3.12654V21.8741C0 23.6447 1.45747 24.9986 3.12316 24.9986H36.4368C38.2066 24.9986 39.56 23.6447 39.56 21.8741V3.12654C39.56 1.35594 38.1025 0.00195312 36.4368 0.00195312Z" fill="black"/>
<path d="M36.4368 1.04297C37.582 1.04297 38.5189 1.98034 38.5189 3.12603V21.8735C38.5189 23.0192 37.582 23.9566 36.4368 23.9566H3.12312C1.97796 23.9566 1.04102 23.0192 1.04102 21.8735V3.12603C1.04102 1.98034 1.97796 1.04297 3.12312 1.04297H36.4368Z" fill="white"/>
<path d="M24.8811 8.64603C25.0893 7.6045 24.8811 6.87543 24.2565 6.25051C23.6319 5.52144 22.4867 5.20898 21.0292 5.20898H16.7609C16.4486 5.20898 16.2404 5.41729 16.1363 5.72975L14.5747 16.2492C14.5747 16.4575 14.6788 16.6658 14.887 16.6658H17.6979L18.1143 13.1246L19.9882 10.8332L24.8811 8.64603Z" fill="#003087"/>
<path d="M24.8809 8.64648L24.6727 8.85479C24.1522 11.7711 22.3824 12.8126 19.8839 12.8126H18.7387C18.4264 12.8126 18.2182 13.0209 18.1141 13.3334L17.4895 17.3953L17.2812 18.4369C17.2812 18.6452 17.3854 18.8535 17.5936 18.8535H19.7798C20.0921 18.8535 20.3003 18.6452 20.3003 18.4369V18.3327L20.7167 15.833V15.7289C20.7167 15.5206 21.029 15.3123 21.2372 15.3123H21.5496C23.7358 15.3123 25.4015 14.479 25.8179 11.9794C26.0261 10.9378 25.922 10.1046 25.4015 9.47971C25.2974 8.95894 25.0891 8.75064 24.8809 8.64648Z" fill="#3086C8"/>
<path d="M24.2565 8.43746C24.1524 8.33331 24.0483 8.33331 23.9442 8.33331C23.84 8.33331 23.7359 8.33331 23.6318 8.22915C23.3195 8.125 22.9031 8.125 22.4867 8.125H19.3635C19.2594 8.125 19.1553 8.125 19.1553 8.22915C18.9471 8.33331 18.843 8.43746 18.843 8.64576L18.1143 13.2285V13.3326C18.1143 13.0202 18.4266 12.8119 18.7389 12.8119H20.0923C22.6949 12.8119 24.3606 11.7704 24.8811 8.85407V8.64576C24.777 8.54161 24.5688 8.43746 24.3606 8.43746H24.2565Z" fill="#012169"/>
</g>
<defs>
<clipPath id="clip0_306_5684">
<rect width="39.56" height="25" fill="white"/>
</clipPath>
</defs>
</svg>
