<svg width="40" height="25" viewBox="0 0 40 25" fill="none" xmlns="http://www.w3.org/2000/svg">
<g clip-path="url(#clip0_306_5649)">
<path opacity="0.07" d="M36.4368 0.00195312H3.12316C1.35337 0.00195312 0 1.35594 0 3.12654V21.8741C0 23.6447 1.45747 24.9986 3.12316 24.9986H36.4368C38.2066 24.9986 39.56 23.6447 39.56 21.8741V3.12654C39.56 1.35594 38.1025 0.00195312 36.4368 0.00195312Z" fill="black"/>
<path d="M36.4368 1.04297C37.582 1.04297 38.5189 1.98034 38.5189 3.12603V21.8735C38.5189 23.0192 37.582 23.9566 36.4368 23.9566H3.12312C1.97796 23.9566 1.04102 23.0192 1.04102 21.8735V3.12603C1.04102 1.98034 1.97796 1.04297 3.12312 1.04297H36.4368Z" fill="#006FCF"/>
<path d="M9.33914 10.6962L10.1449 12.6501H8.53961L9.33914 10.6962ZM26.0741 10.7774H22.9748V11.6388H26.0241V12.9292H22.9811V13.8895H26.0803V14.6592L28.2426 12.321L26.0803 9.88378L26.0741 10.7774ZM11.4337 8.34023H15.5927L16.5162 10.3556L17.3719 8.33398H28.1676L29.2899 9.5734L30.4506 8.33398H35.4092L31.7457 12.346L35.3717 16.3329H30.3393L29.217 15.0935L28.0458 16.3329H10.4416L9.92733 15.0935H8.75094L8.23562 16.3329H4.16406L7.58496 8.33398H11.1558L11.4337 8.34023ZM20.4524 9.463H18.1215L16.5599 13.1458L14.8682 9.463H12.5549V14.4728L10.4104 9.463H8.33556L5.85577 15.2039H7.47461L7.98889 13.9645H10.6915L11.2057 15.2039H14.0374V11.1055L15.8603 15.2102H17.0991L18.9106 11.118V15.2112H20.4284L20.4534 9.46196L20.4524 9.463ZM30.1758 12.346L32.8107 9.463H30.9139L29.2472 11.2607L27.6356 9.463H21.4997V15.2102H27.5482L29.2284 13.4L30.84 15.2102H32.792L30.1758 12.346Z" fill="white"/>
</g>
<defs>
<clipPath id="clip0_306_5649">
<rect width="39.56" height="25" fill="white"/>
</clipPath>
</defs>
</svg>
