<svg width="96" height="15" viewBox="0 0 96 15" fill="none" xmlns="http://www.w3.org/2000/svg">
<g clip-path="url(#clip0_7335_14624)">
<path d="M0 0.238333H12.7989L13.6263 3.02L13.4851 3.11778C13.2425 2.94055 12.9333 2.78555 12.5562 2.65167C12.1523 2.51169 11.7373 2.40429 11.3153 2.33055C10.8424 2.24692 10.3625 2.20582 9.8819 2.20778H3.14931V6.56446H11.3455L11.4463 6.74445L10.0129 9.00168H9.83122C9.69623 8.89 9.51457 8.795 9.28617 8.71723C8.75613 8.54277 8.20033 8.45418 7.64092 8.455H3.14931V10.4933C3.14931 10.6922 3.15216 10.9861 3.15956 11.375C3.16583 11.7645 3.19259 12.1667 3.24043 12.5822C3.28713 12.9983 3.35775 13.3911 3.45172 13.7605C3.54625 14.13 3.68691 14.3945 3.87599 14.5522V14.7317H0V14.5522C0.188503 14.3933 0.336571 14.1217 0.444206 13.7361C0.551841 13.3517 0.628724 12.9405 0.675992 12.5028C0.72326 12.0655 0.750025 11.6478 0.75686 11.2495C0.763694 10.8522 0.767111 10.5533 0.767111 10.3545V3.15333C0.767111 2.95389 0.763694 2.73222 0.75686 2.48611C0.749527 2.23575 0.722492 1.98632 0.675992 1.74C0.628724 1.48833 0.551841 1.24667 0.444206 1.01445C0.336571 0.782223 0.188503 0.586668 0 0.427222V0.238333ZM24.2206 1.94945C23.3727 1.94945 22.5719 2.07222 21.8185 2.31778C21.0645 2.56333 20.4016 2.92111 19.8298 3.39167C19.2524 3.86958 18.7875 4.46348 18.467 5.13277C18.1304 5.82223 17.9625 6.61168 17.9625 7.5C17.9625 8.38891 18.1304 9.17777 18.467 9.86723C18.7874 10.5366 19.2522 11.1305 19.8298 11.6083C20.4016 12.0789 21.0645 12.4367 21.8185 12.6822C22.5719 12.9278 23.3727 13.05 24.2206 13.05C25.0686 13.05 25.8722 12.9278 26.633 12.6822C27.3933 12.4367 28.0562 12.0789 28.6211 11.6083C29.1867 11.1372 29.6371 10.5572 29.9737 9.86723C30.3102 9.17777 30.4788 8.38891 30.4788 7.5C30.4788 6.61168 30.3102 5.82223 29.9737 5.13277C29.6371 4.44333 29.1867 3.86278 28.6211 3.39167C28.0562 2.92111 27.3933 2.56333 26.633 2.31778C25.8544 2.06944 25.0398 1.94507 24.2206 1.94945ZM24.2206 0C25.3779 0 26.4844 0.172222 27.5414 0.517223C28.5978 0.862223 29.526 1.35611 30.3274 1.99889C31.1293 2.64455 31.7827 3.44796 32.2448 4.35667C32.7226 5.285 32.9618 6.33332 32.9618 7.5C32.9618 8.66668 32.7226 9.715 32.2448 10.6433C31.7831 11.5521 31.1297 12.3555 30.3274 13.0005C29.526 13.6439 28.5978 14.1378 27.5414 14.4828C26.4844 14.8272 25.3779 15 24.2206 15C23.0629 15 21.9597 14.8272 20.9096 14.4828C19.86 14.1378 18.9346 13.6439 18.1339 13.0005C17.3313 12.3556 16.6779 11.5523 16.2164 10.6433C15.738 9.715 15.4994 8.66668 15.4994 7.5C15.4994 6.33332 15.738 5.285 16.2164 4.35667C16.6783 3.44784 17.3317 2.6444 18.1339 1.99889C18.9346 1.35611 19.86 0.862223 20.9096 0.517223C21.9597 0.171667 23.0629 0 24.2206 0ZM38.9125 8.51445C38.9125 9.15055 38.9865 9.745 39.1346 10.295C39.2715 10.8244 39.5343 11.3148 39.9017 11.7267C40.265 12.1317 40.756 12.4467 41.3756 12.6717C41.994 12.8978 42.768 13.0105 43.6968 13.0105C44.6388 13.0105 45.4195 12.8978 46.0384 12.6717C46.6577 12.4467 47.1518 12.1317 47.5223 11.7267C47.8956 11.316 48.1655 10.8257 48.3096 10.295C48.4642 9.745 48.542 9.15055 48.542 8.51445V3.16278C48.542 2.96333 48.5383 2.74167 48.5319 2.49611C48.5241 2.24545 48.4935 1.99595 48.4409 1.75055C48.3878 1.50156 48.31 1.25819 48.209 1.02389C48.1101 0.794414 47.9537 0.592736 47.7542 0.437222V0.258333H51.7112V0.437222C51.5209 0.598464 51.369 0.798795 51.267 1.02389C51.159 1.25611 51.0822 1.49833 51.0346 1.75055C50.9875 2.00222 50.961 2.25111 50.9541 2.49611C50.9477 2.74167 50.944 2.96333 50.944 3.16278V8.89223C50.944 9.84668 50.7789 10.6995 50.4495 11.4483C50.1325 12.1807 49.6453 12.8312 49.0259 13.3483C48.407 13.8655 47.6536 14.2605 46.7653 14.5317C45.8769 14.8039 44.8677 14.9405 43.7372 14.9405C42.6068 14.9405 41.5942 14.8039 40.699 14.5317C39.8037 14.2605 39.0469 13.8655 38.4279 13.3483C37.8088 12.8312 37.3216 12.1807 37.0047 11.4483C36.6749 10.6995 36.5103 9.84668 36.5103 8.89223V3.16278C36.5103 2.96333 36.507 2.74167 36.5001 2.49611C36.4928 2.24594 36.4658 1.99668 36.4192 1.75055C36.3727 1.49992 36.2947 1.25585 36.1869 1.02389C36.0847 0.798905 35.9331 0.598609 35.7427 0.437222V0.258333H39.6995V0.437222C39.4979 0.596109 39.3464 0.791668 39.2456 1.02389C39.0465 1.4912 38.937 1.99022 38.9227 2.49611C38.9159 2.74167 38.9125 2.96333 38.9125 3.16278V8.51445ZM92.5323 6.545C92.5323 6.545 92.5287 2.74222 92.5223 2.49667C92.5145 2.24588 92.4843 1.99624 92.4322 1.75055C92.3777 1.50075 92.2968 1.25732 92.1893 1.02445C92.084 0.795768 91.9249 0.5947 91.7245 0.437778V0.258889H95.702V0.437222C95.5131 0.596109 95.3649 0.791668 95.2574 1.02389C95.1494 1.25611 95.0725 1.49833 95.0254 1.75C94.9783 2.00167 94.9509 2.25055 94.9445 2.49611C94.9371 2.74167 94.9371 10.8617 94.9445 11.2595C94.9509 11.6572 94.9783 12.075 95.0254 12.5122C95.0725 12.95 95.1494 13.3611 95.2574 13.7461C95.3649 14.1311 95.5131 14.4028 95.702 14.5622V14.7405H91.7245V14.5622C91.9262 14.4028 92.0818 14.1311 92.1893 13.7461C92.2963 13.3611 92.3768 12.95 92.4322 12.5122C92.4834 12.0964 92.5136 11.6782 92.5223 11.2595C92.5287 10.8617 92.5323 8.51445 92.5323 8.51445H82.8825C82.8825 8.51445 82.8862 10.8617 82.8935 11.2595C82.8999 11.6572 82.9301 12.075 82.9845 12.5122C83.0376 12.95 83.1158 13.3611 83.216 13.7461C83.3175 14.1311 83.468 14.4028 83.6707 14.5622V14.7405H79.6941V14.5622C79.8958 14.4028 80.05 14.1311 80.1575 13.7461C80.2645 13.3611 80.3455 12.95 80.4004 12.5122C80.4544 12.075 80.4832 11.6572 80.4914 11.2595C80.4978 10.8617 80.4978 2.74167 80.4914 2.49611C80.4832 2.24529 80.453 1.99562 80.4004 1.75C80.3464 1.50013 80.265 1.25667 80.1575 1.02389C80.0527 0.795382 79.894 0.594346 79.6941 0.437222V0.258889H83.6707V0.437222C83.4685 0.596109 83.3175 0.791668 83.216 1.02389C83.1144 1.25795 83.0371 1.50116 82.9845 1.75C82.931 1.99545 82.9003 2.2452 82.8935 2.49611C82.8862 2.74167 82.8825 6.54446 82.8825 6.54446L92.5323 6.545ZM133.15 11.26C133.163 11.6578 133.194 12.0755 133.241 12.5128C133.288 12.9505 133.365 13.3617 133.473 13.7461C133.581 14.1311 133.729 14.4028 133.918 14.5622V14.7411H129.919V14.5622C129.919 14.0978 129.775 13.6567 129.486 13.2395C129.167 12.7834 128.827 12.3418 128.466 11.9161L120.897 3.16278H120.817C120.817 3.16278 120.819 10.8617 120.826 11.26C120.833 11.6578 120.86 12.0755 120.908 12.5128C120.954 12.9505 121.029 13.3617 121.13 13.7461C121.231 14.1311 121.375 14.4028 121.564 14.5622V14.7411H117.809V14.5622C117.984 14.4028 118.119 14.1311 118.213 13.7461C118.307 13.3617 118.374 12.9505 118.415 12.5128C118.454 12.0755 118.478 11.6578 118.485 11.26C118.492 10.8617 118.492 2.74167 118.485 2.49667C118.478 2.25111 118.454 2.00222 118.415 1.75055C118.375 1.50183 118.308 1.25812 118.213 1.02389C118.125 0.801245 117.987 0.600732 117.809 0.437222V0.258333H122.149V0.437222C122.149 0.928332 122.291 1.37222 122.573 1.77C122.921 2.25046 123.292 2.7152 123.683 3.16278L130.728 11.2395H130.81C130.81 11.2395 130.806 2.74167 130.799 2.49667C130.792 2.24632 130.765 1.99687 130.719 1.75055C130.672 1.50102 130.597 1.25731 130.495 1.02389C130.402 0.801986 130.261 0.602018 130.082 0.437222V0.258333H133.877V0.437222C133.688 0.597509 133.539 0.798286 133.442 1.02389C133.342 1.25611 133.268 1.49889 133.22 1.75055C133.173 2.00222 133.146 2.25111 133.139 2.49667C133.134 2.74167 133.138 10.8617 133.15 11.26ZM141.5 12.8311H147.113C147.753 12.832 148.389 12.7208 148.99 12.5028C149.595 12.2845 150.137 11.9561 150.614 11.5183C151.092 11.0805 151.473 10.5272 151.756 9.85723C152.038 9.18777 152.179 8.40168 152.179 7.5C152.179 6.59832 152.032 5.81223 151.735 5.14223C151.439 4.47278 151.045 3.91889 150.555 3.48111C150.072 3.04858 149.506 2.71395 148.889 2.49667C148.281 2.27976 147.639 2.16863 146.992 2.16833H141.5V12.8311ZM139.108 2.49611C139.101 2.24574 139.074 1.99629 139.027 1.75C138.98 1.49833 138.902 1.25611 138.795 1.02389C138.688 0.791668 138.54 0.596109 138.352 0.437222V0.258889H147.396C148.404 0.258889 149.347 0.424445 150.222 0.755555C151.075 1.07397 151.849 1.56578 152.493 2.19833C153.132 2.82833 153.634 3.58722 153.997 4.47611C154.36 5.365 154.542 6.36609 154.542 7.48C154.542 8.59445 154.364 9.59891 154.007 10.4939C153.65 11.3895 153.159 12.1522 152.533 12.7817C151.906 13.4129 151.149 13.9077 150.312 14.2339C149.458 14.5722 148.526 14.7411 147.517 14.7411H138.352V14.5628C138.54 14.4033 138.689 14.1317 138.796 13.7461C138.903 13.3617 138.981 12.9505 139.028 12.5128C139.075 12.0755 139.101 11.6578 139.109 11.26C139.115 10.8622 139.115 2.74222 139.108 2.49611ZM114.793 13.7461C114.543 13.3414 114.305 12.9301 114.079 12.5128C113.841 12.0755 113.623 11.6572 113.426 11.26C113.228 10.8617 113.082 10.5633 112.988 10.3645L109.173 2.36722C108.99 1.99572 108.84 1.60947 108.725 1.21278C108.629 0.868332 108.636 0.609445 108.745 0.437222V0.258333H104.402V0.437222C104.551 0.596109 104.635 0.791668 104.656 1.02389C104.677 1.25611 104.656 1.495 104.596 1.74C104.534 1.98611 104.453 2.23445 104.351 2.48611C104.248 2.73833 99.9828 12.0755 99.7518 12.5128C99.529 12.936 99.2838 13.3477 99.0176 13.7461C98.7596 14.1311 98.5217 14.4028 98.304 14.5622V14.7405H102.138V14.5622C102.015 14.4028 101.961 14.2139 101.975 13.995C101.987 13.7767 102.029 13.5478 102.097 13.3083C102.166 13.07 102.253 12.8283 102.363 12.5828C102.47 12.3372 103.749 9.21055 103.749 9.21055L106.666 2.48611H106.748L109.806 9.21055C109.806 9.21055 107.131 9.20277 106.817 9.17891C106.503 9.15391 106.256 9.08609 106.074 8.97277H105.851L105.059 11.2439L105.232 11.365C105.463 11.2678 105.743 11.1955 106.074 11.1478C106.404 11.0989 106.759 11.0745 107.139 11.0745L110.683 11.08C110.683 11.08 111.573 13.0495 111.642 13.2889C111.71 13.5272 111.744 13.7589 111.744 13.9855C111.744 14.2111 111.683 14.4028 111.561 14.5622V14.7405H115.436V14.5622C115.245 14.4028 115.03 14.1311 114.793 13.7461ZM60.5266 6.59168H60.6693C60.8596 6.69777 61.0742 6.76109 61.3125 6.78109C61.5504 6.80109 61.7924 6.81109 62.0376 6.81109H64.6514C65.5768 6.81109 66.2644 6.58891 66.7136 6.14391C67.1623 5.69891 67.3879 5.15109 67.3879 4.5C67.3879 3.75667 67.139 3.17945 66.6418 2.76778C66.145 2.35611 65.5091 2.15 64.7328 2.15H58.1991V10.3567C58.1991 10.5961 58.2019 10.9211 58.2092 11.3328C58.2156 11.7439 58.243 12.1622 58.2906 12.5878C58.3382 13.0128 58.4096 13.4078 58.5047 13.7728C58.5999 14.1383 58.7435 14.4 58.9338 14.56V14.7389H54.9723V14.56C55.1631 14.4 55.3126 14.1283 55.4215 13.7433C55.5304 13.3583 55.6091 12.9461 55.6566 12.5078C55.7042 12.0695 55.7312 11.6517 55.7381 11.2528C55.7449 10.855 55.7486 10.5555 55.7486 10.3567V3.14611C55.7486 2.94722 55.7449 2.72445 55.7381 2.47889C55.7308 2.22815 55.7038 1.97833 55.6566 1.73167C55.6091 1.48 55.5304 1.23667 55.4215 1.00445C55.3126 0.772223 55.1631 0.576668 54.9723 0.417222V0.237778H64.5695C65.3458 0.237778 66.0562 0.340555 66.7031 0.546668C67.3504 0.752223 67.9011 1.04167 68.3567 1.41278C68.8119 1.78329 69.1751 2.24984 69.4185 2.77722C69.6705 3.315 69.7963 3.90945 69.7963 4.56C69.7963 5.68891 69.4359 6.59168 68.7149 7.26945C67.9926 7.94609 67.0132 8.36445 65.774 8.52391L65.7539 8.58391L67.0809 10.4761C67.3673 10.8878 67.6697 11.2928 67.9899 11.6911C68.3092 12.09 68.6362 12.4683 68.9697 12.8267C69.3036 13.185 69.6367 13.5105 69.9706 13.8022C70.2716 14.072 70.6037 14.3061 70.961 14.5V14.6589C70.4711 14.8845 69.94 14.9978 69.3682 14.9978C68.9482 15.0024 68.5306 14.9381 68.1326 14.8078C67.7589 14.6825 67.4075 14.5012 67.091 14.2705C66.7593 14.0271 66.4579 13.7465 66.193 13.4345C65.8975 13.0873 65.6217 12.725 65.366 12.3489L62.8752 8.72332H59.281L59.1991 8.58391L60.5266 6.59168ZM171.762 8.96891C171.592 8.55509 171.33 8.18309 170.995 7.87946C170.649 7.57146 170.252 7.32309 169.821 7.145C169.353 6.94977 168.869 6.79495 168.374 6.68223C167.86 6.56391 167.322 6.47 166.759 6.40332C166.195 6.33668 165.645 6.29277 165.107 6.27332C164.481 6.25205 163.856 6.20609 163.234 6.13555C162.643 6.06723 162.129 5.96223 161.69 5.81832C161.251 5.67555 160.908 5.47891 160.662 5.22891C160.416 4.97891 160.3 4.64668 160.315 4.23167C160.342 3.54945 160.747 2.99111 161.531 2.55722C162.315 2.12333 163.507 1.93555 165.108 1.99333C166.264 2.035 167.305 2.205 168.23 2.50333C168.644 2.63577 169.043 2.80985 169.42 3.02278C170.117 3.42333 170.135 3.92389 170.198 4.21389L170.377 4.295L171.84 1.81833L171.077 1.44222C170.713 1.26333 170.253 1.07778 169.694 0.884445C169.059 0.671068 168.411 0.495009 167.754 0.357222C167.02 0.197778 166.208 0.101667 165.321 0.07C164.313 0.0333334 163.367 0.0994445 162.486 0.267778C161.604 0.436111 160.827 0.704445 160.153 1.07333C159.477 1.44278 158.942 1.91 158.544 2.47555C158.145 3.04111 157.931 3.71 157.902 4.48222C157.869 5.34832 158.076 6.03609 158.521 6.545C158.967 7.05445 159.551 7.44609 160.274 7.71891C160.997 7.99168 161.809 8.18391 162.707 8.29668C163.589 8.40786 164.476 8.47977 165.365 8.51223C165.902 8.53223 166.423 8.58055 166.924 8.65946C167.426 8.73832 167.873 8.85832 168.264 9.02055C168.656 9.18332 168.964 9.39555 169.19 9.65891C169.415 9.92332 169.52 10.2633 169.505 10.6795C169.492 11.0199 169.386 11.3506 169.196 11.6367C168.991 11.9522 168.616 12.2255 168.259 12.3928C167.864 12.5778 167.482 12.7383 166.906 12.8445C166.329 12.9517 165.651 12.9905 164.872 12.9628C163.513 12.9139 162.283 12.7139 161.181 12.3017C160.728 12.135 160.29 11.929 159.874 11.6861C159.093 11.205 158.972 10.695 158.924 10.4017L158.735 10.2961L158.497 10.7283L157.365 12.8028C157.68 13 158.032 13.215 158.421 13.4478C158.809 13.6805 159.275 13.8995 159.82 14.1055C160.363 14.3111 160.997 14.4895 161.718 14.6411C162.44 14.7933 163.292 14.8878 164.273 14.9233C166.707 15.0111 168.589 14.6711 169.918 13.9039C171.246 13.1367 171.939 11.9995 171.996 10.4911C172.019 9.90391 171.941 9.39668 171.762 8.96891Z" fill="black"/>
</g>
<defs>
<clipPath id="clip0_7335_14624">
<rect width="172" height="15" fill="white"/>
</clipPath>
</defs>
</svg>
