<svg width="63" height="25" viewBox="0 0 63 25" fill="none" xmlns="http://www.w3.org/2000/svg">
<path d="M35.2884 19.8629C34.9704 20.6405 34.4894 21.3362 33.8798 21.9002C33.2853 22.4375 32.5879 22.8404 31.8327 23.0829C31.0438 23.3396 30.2209 23.4685 29.3936 23.465C28.5664 23.4685 27.7437 23.3396 26.955 23.0829C26.1982 22.8395 25.4989 22.4367 24.9015 21.9002C24.288 21.3379 23.8041 20.6419 23.4848 19.8629C23.1131 18.9244 22.9342 17.9169 22.9594 16.9037V8.57812H26.6015V16.5608C26.5908 17.0656 26.662 17.5687 26.812 18.0495C26.9311 18.4269 27.1305 18.7722 27.3958 19.0601C27.6442 19.3206 27.9478 19.5186 28.2827 19.6385C28.6375 19.7658 29.0109 19.8292 29.3866 19.826C29.7597 19.8296 30.1305 19.7661 30.4825 19.6385C30.8158 19.5166 31.1185 19.3196 31.3683 19.0618C31.6369 18.7754 31.8384 18.4298 31.9575 18.0511C32.1075 17.5704 32.1787 17.0673 32.168 16.5624V8.57812H35.8139V16.9037C35.8389 17.9165 35.66 18.9237 35.2884 19.8618" fill="black"/>
<path d="M46.7751 12.4799C46.4438 12.342 46.0946 12.218 45.7275 12.1077C45.3562 11.9948 44.9789 11.9044 44.5974 11.837C44.2222 11.77 43.8421 11.7359 43.4614 11.735C42.931 11.6975 42.4016 11.8191 41.937 12.0851C41.781 12.1826 41.6524 12.3204 41.564 12.4848C41.4756 12.6492 41.4305 12.8345 41.433 13.0224C41.427 13.2085 41.4876 13.3904 41.6033 13.5335C41.7294 13.679 41.8852 13.7939 42.0597 13.8698C42.2783 13.9661 42.5066 14.0371 42.7404 14.0816C43.0036 14.1352 43.2848 14.1863 43.584 14.2349L44.7548 14.4245C45.9598 14.5592 47.1037 15.0401 48.0558 15.8123C48.4406 16.1692 48.7435 16.6098 48.9423 17.1022C49.1411 17.5946 49.2309 18.1264 49.2052 18.659C49.2142 19.3437 49.0746 20.0218 48.7965 20.6439C48.5245 21.238 48.1184 21.7565 47.6123 22.1563C47.0412 22.5975 46.3948 22.9244 45.7066 23.1201C44.8742 23.3607 44.0126 23.4771 43.148 23.4658C42.6683 23.4644 42.1891 23.4375 41.7121 23.3853C41.1987 23.3299 40.6895 23.2395 40.1877 23.1146C39.6694 22.9865 39.162 22.8156 38.6704 22.6035C38.2257 22.4284 37.8058 22.1929 37.4219 21.9032L38.3999 18.7103C39.0864 19.2007 39.8285 19.6029 40.6098 19.9078C41.4382 20.1826 42.3053 20.313 43.1753 20.2938C43.8067 20.3345 44.4379 20.2138 45.013 19.9426C45.1927 19.8546 45.3444 19.716 45.4505 19.5427C45.5566 19.3694 45.6127 19.1687 45.6123 18.9639C45.6091 18.7913 45.5589 18.6232 45.4674 18.4786C45.376 18.3339 45.2469 18.2186 45.0949 18.1457C44.5683 17.8861 44.0017 17.7232 43.4206 17.6643L42.3457 17.5033C39.3049 17.0472 37.7847 15.6162 37.785 13.2104C37.7731 12.5396 37.903 11.8742 38.1658 11.2602C38.4177 10.6934 38.7955 10.1953 39.2686 9.80629C39.7879 9.38669 40.3823 9.07643 41.0179 8.89323C41.7772 8.67344 42.5634 8.56759 43.3521 8.57895C44.325 8.57098 45.2956 8.67903 46.2444 8.90095C47.1128 9.10204 47.9509 9.42289 48.736 9.85481L47.7869 12.9535C47.5239 12.8178 47.1067 12.6166 46.7751 12.4804" fill="black"/>
<mask id="mask0_7331_14416" style="mask-type:luminance" maskUnits="userSpaceOnUse" x="50" y="1" width="12" height="12">
<path d="M50.3047 1.46484H61.9985V12.2986H50.3047V1.46484Z" fill="white"/>
</mask>
<g mask="url(#mask0_7331_14416)">
<path d="M54.6715 1.46484H57.6473L57.5728 5.08069L61.0811 3.89967L61.9985 6.66587L58.4636 7.71787L60.6981 10.585L58.2879 12.2992L56.1567 9.3455L54.0346 12.2986L51.6244 10.5844L53.8397 7.71732L50.3047 6.66531L51.2372 3.89912L54.7304 5.08069L54.6715 1.46484Z" fill="black"/>
</g>
<mask id="mask1_7331_14416" style="mask-type:luminance" maskUnits="userSpaceOnUse" x="1" y="1" width="20" height="23">
<path d="M1 1.53516H20.7815V23.3141H1V1.53516Z" fill="white"/>
</mask>
<g mask="url(#mask1_7331_14416)">
<path d="M20.7682 11.8668C20.7582 11.6716 20.7441 11.4741 20.7259 11.2741H11.7288V14.7709H16.7025C16.535 16.1027 15.9076 17.328 14.935 18.223C13.848 19.0701 12.5033 19.4906 11.1423 19.4089C10.3242 19.415 9.51352 19.249 8.75998 18.921C8.02552 18.5997 7.36424 18.1242 6.81841 17.5249C6.24533 16.8886 5.80122 16.1411 5.51207 15.3261C5.18436 14.3981 5.02356 13.4165 5.03753 12.4292C5.02694 11.4729 5.18313 10.5223 5.49868 9.62277C5.78286 8.81233 6.22011 8.06782 6.7852 7.4322C7.33315 6.82324 7.99965 6.34003 8.74123 6.01409C9.52329 5.67298 10.3653 5.50179 11.2147 5.51125C12.147 5.49304 13.0712 5.69327 13.9173 6.0968C14.6961 6.48036 15.3848 7.03322 15.936 7.71726L18.3264 4.30596C17.5294 3.48904 16.5897 2.83432 15.5568 2.37619C14.2178 1.79622 12.7764 1.50895 11.3239 1.5326C9.90244 1.51727 8.49218 1.79296 7.17512 2.34366C5.947 2.85859 4.83489 3.62806 3.90794 4.60425C2.98002 5.59475 2.25348 6.76593 1.77087 8.04918C1.24629 9.44579 0.984899 10.9325 1.00067 12.4298C0.992419 13.4959 1.12155 14.5585 1.3847 15.5896C1.62443 16.5249 1.98375 17.4232 2.45323 18.261C2.89815 19.0516 3.44557 19.7761 4.0804 20.4146C4.70042 21.0384 5.40097 21.5712 6.16229 21.9982C6.92762 22.4258 7.74178 22.7534 8.58591 22.9735C9.44887 23.1995 10.336 23.3131 11.2264 23.3115C12.5455 23.3259 13.8526 23.0521 15.0614 22.5082C16.2102 21.988 17.2406 21.2263 18.0865 20.2718C18.9586 19.2729 19.6319 18.1076 20.0682 16.8418C20.5557 15.4358 20.7971 13.9518 20.7811 12.459C20.7811 12.2588 20.7757 12.0615 20.7666 11.8663" fill="black"/>
</g>
</svg>
