<svg width="109" height="51" viewBox="0 0 109 51" fill="none" xmlns="http://www.w3.org/2000/svg">
<g clip-path="url(#clip0_7331_14442)">
<path d="M4.40149 45.3047V46.387H2.81381V50.8574H1.58768V46.387H0V45.3047H4.40149Z" fill="black"/>
<path d="M7.03472 45.3047V47.3755H9.41624V45.3047H10.6424V50.8574H9.41624V48.4574H7.03472V50.8574H5.80859V45.3047H7.03472Z" fill="black"/>
<path d="M16.386 45.3047V46.4344H13.8316V47.4693H16.2445V48.599H13.8316V49.7282H16.5274V50.8574H12.6055V45.3047L16.386 45.3047Z" fill="black"/>
<path d="M24.0045 48.0818C24.0045 49.8462 22.747 50.9991 21.0023 50.9991C19.2496 50.9991 18 49.8541 18 48.0818C18 46.3091 19.2496 45.1641 21.0023 45.1641C22.7707 45.1641 24.0045 46.3169 24.0045 48.0818ZM21.0023 49.8699C22.0397 49.8699 22.7314 49.1247 22.7314 48.0818C22.7314 47.0385 22.0397 46.2937 20.9944 46.2937C19.9648 46.2937 19.2731 47.0306 19.2731 48.0818C19.2731 49.1247 19.9569 49.8699 21.0023 49.8699Z" fill="black"/>
<path d="M27.5075 45.3047C29.2681 45.3047 30.7534 46.0968 30.7534 48.0892C30.7534 49.8536 29.323 50.8574 27.6569 50.8574H25.6211V45.3047L27.5075 45.3047ZM27.5231 49.7282C28.6157 49.7282 29.4802 49.2811 29.4802 48.0418C29.4802 46.9363 28.5999 46.4344 27.6017 46.4344H26.8472V49.7282L27.5231 49.7282Z" fill="black"/>
<path d="M38.0787 48.0818C38.0787 49.8462 36.8212 50.9991 35.0765 50.9991C33.3238 50.9991 32.0742 49.8541 32.0742 48.0818C32.0742 46.3091 33.3238 45.1641 35.0765 45.1641C36.8449 45.1641 38.0787 46.3169 38.0787 48.0818ZM35.0765 49.8699C36.1139 49.8699 36.8056 49.1247 36.8056 48.0818C36.8056 47.0385 36.1139 46.2937 35.0686 46.2937C34.039 46.2937 33.3473 47.0306 33.3473 48.0818C33.3473 49.1247 34.0311 49.8699 35.0765 49.8699Z" fill="black"/>
<path d="M41.8921 45.3047C42.8981 45.3047 43.9513 45.6422 43.9513 46.9911C43.9513 47.8069 43.5032 48.3715 42.7487 48.5126L44.1635 50.8574H42.6938L41.5305 48.638H40.9253V50.8574H39.6992V45.3047L41.8921 45.3047ZM41.6878 47.6026C42.2536 47.6026 42.678 47.5088 42.678 46.9832C42.678 46.5282 42.3402 46.3401 41.7585 46.3401H40.9253V47.6026H41.6878Z" fill="black"/>
<path d="M49.4055 45.3047V46.4344H46.8511V47.4693H49.2641V48.599H46.8511V49.7282H49.547V50.8574H45.625V45.3047L49.4055 45.3047Z" fill="black"/>
<path d="M57.2744 45.3047L59.6953 50.8574H58.3119L57.8326 49.6808H55.6712L55.2075 50.8574H53.8555L56.2605 45.3047H57.2744ZM56.0562 48.6459H57.4159L56.7321 46.9205L56.0562 48.6459Z" fill="black"/>
<path d="M62.3121 45.3047V49.7282H64.5835V50.8574H61.0859V45.3047H62.3121Z" fill="black"/>
<path d="M69.8743 45.3047V46.4344H67.3199V47.4693H69.7328V48.599H67.3199V49.7282H70.0157V50.8574H66.0938V45.3047L69.8743 45.3047Z" fill="black"/>
<path d="M72.8692 45.3047L74.0561 47.2497L75.1956 45.3047H76.6812L74.8813 47.9322L76.8934 50.8574H75.3529L73.9932 48.6222L72.6729 50.8574H71.2188L73.168 47.9555L71.3288 45.3047L72.8692 45.3047Z" fill="black"/>
<path d="M81.0908 45.3047L83.5117 50.8574H82.1283L81.649 49.6808H79.4876L79.0239 50.8574H77.6719L80.0769 45.3047H81.0908ZM79.8726 48.6459H81.2323L80.5485 46.9205L79.8726 48.6459Z" fill="black"/>
<path d="M86.5218 45.3047L88.8875 49.1636H88.9033V45.3047H90.1292V50.8574H88.5259L86.0974 46.9047H86.0816V50.8574H84.8555V45.3047H86.5218Z" fill="black"/>
<path d="M93.9333 45.3047C95.6938 45.3047 97.1792 46.0968 97.1792 48.0892C97.1792 49.8536 95.7488 50.8574 94.0827 50.8574H92.0469V45.3047L93.9333 45.3047ZM93.9489 49.7282C95.0415 49.7282 95.906 49.2811 95.906 48.0418C95.906 46.9363 95.0256 46.4344 94.0275 46.4344H93.273V49.7282L93.9489 49.7282Z" fill="black"/>
<path d="M102.624 45.3047V46.4344H100.07V47.4693H102.483V48.599H100.07V49.7282H102.766V50.8574H98.8438V45.3047L102.624 45.3047Z" fill="black"/>
<path d="M106.728 45.3047C107.734 45.3047 108.787 45.6422 108.787 46.9911C108.787 47.8069 108.339 48.3715 107.585 48.5126L108.999 50.8574H107.53L106.366 48.638H105.761V50.8574H104.535V45.3047L106.728 45.3047ZM106.524 47.6026C107.09 47.6026 107.514 47.5088 107.514 46.9832C107.514 46.5282 107.176 46.3401 106.594 46.3401H105.761V47.6026H106.524Z" fill="black"/>
<path d="M60.1356 11.2266C60.1806 11.3364 65.6414 25.2375 66.4285 27.2601C66.5693 27.6218 66.7293 27.9846 67.1504 28.1549C67.345 28.2336 67.5637 28.2643 67.7729 28.3118C67.8907 28.3386 68.0239 28.3407 68.0076 28.4979C67.999 28.5813 67.8383 28.6158 67.7574 28.6161C66.1139 28.6219 64.4704 28.6216 62.8269 28.614C62.7087 28.6134 62.5039 28.5948 62.4899 28.5067C62.4653 28.352 62.6361 28.3389 62.7603 28.2969C63.138 28.1693 63.3201 27.8571 63.1902 27.467C63.0325 26.9933 61.8256 23.9954 61.4227 22.9581C61.3715 22.8262 61.3013 22.7797 61.149 22.7799C59.573 22.7829 57.997 22.7828 56.421 22.7756C56.2197 22.7747 56.1287 22.8486 56.0657 23.0125C55.5875 24.2562 55.1022 25.4976 54.6185 26.7396C54.4884 27.0736 54.4067 27.4067 54.6027 27.7456C54.8228 28.126 55.1871 28.2936 55.6409 28.3331C55.9429 28.3683 55.973 28.4383 55.9752 28.4885C55.977 28.5318 55.935 28.6057 55.8303 28.6073C55.7511 28.6085 53.1684 28.6215 51.9602 28.621C51.8606 28.6209 51.7018 28.6497 51.6919 28.495C51.6825 28.3472 51.8074 28.3102 51.9486 28.303C53.016 28.249 53.6798 27.7001 54.0267 26.8327C54.7568 25.0074 60.0537 11.337 60.0827 11.241C60.1003 11.2362 60.118 11.2314 60.1356 11.2266ZM58.7666 16.3458C58.7415 16.3411 58.7164 16.3364 58.6912 16.3317C57.918 18.3047 57.1447 20.2776 56.3643 22.2688H61.1536C60.3506 20.2763 59.5586 18.311 58.7666 16.3458Z" fill="black"/>
<path d="M54.9789 15.6804C54.9436 15.6081 54.8865 15.5382 54.8767 15.4632C54.8291 15.0989 54.8119 14.7308 54.7501 14.3688C54.6758 13.9335 54.611 13.4905 54.4647 13.0732C54.1581 12.1988 53.384 11.698 52.3686 11.6795C51.5885 11.6653 49.8723 11.6772 49.8723 11.6772C49.8723 11.6772 49.8593 26.8556 49.8614 27.1004C49.8673 27.7742 50.274 28.2128 51.0031 28.3248C51.1309 28.3439 51.2251 28.3888 51.2181 28.4934C51.2138 28.5578 51.1319 28.6135 50.9798 28.6135C49.344 28.6135 47.7082 28.6181 46.0724 28.6171C45.84 28.6171 45.6641 28.5643 45.6645 28.4957C45.665 28.4271 45.7529 28.3674 45.8154 28.3449C45.9597 28.2929 46.1275 28.2886 46.2645 28.2265C46.689 28.0343 46.8867 27.6911 46.96 27.2828C46.9851 27.1427 46.988 11.6782 46.988 11.6782C46.988 11.6782 45.3069 11.664 44.5569 11.6791C43.3743 11.703 42.5174 12.3715 42.3332 13.4258C42.2161 14.0962 42.1425 14.773 42.0539 15.4474C42.0385 15.5644 42.0153 15.6625 41.8152 15.6789C41.8032 15.545 41.7811 15.4145 41.7813 15.284C41.783 14.0733 41.7896 12.8625 41.7925 11.6518C41.7936 11.178 41.791 11.1761 42.3251 11.1761C46.4372 11.1758 50.5493 11.1751 54.6615 11.1778C55.221 11.1782 55.1033 11.1566 55.1049 11.5748C55.1098 12.84 55.1137 14.1052 55.1153 15.3704C55.1154 15.4674 55.0948 15.5644 55.0837 15.6614C55.0488 15.6677 55.0138 15.674 54.9789 15.6804Z" fill="black"/>
<path d="M54.8963 0C43.8817 0 34.9531 8.90919 34.9531 19.8994C34.9531 30.8896 43.8817 39.7993 54.8963 39.7993C65.911 39.7993 74.839 30.8896 74.839 19.8994C74.839 8.90918 65.9105 0 54.8963 0ZM37.1408 18.969C37.6559 9.18434 46.0224 1.669 55.8283 2.18295C65.6342 2.6969 73.1664 11.0452 72.6513 20.8299C72.1363 30.6145 63.7698 38.1303 53.9639 37.6164C44.158 37.1024 36.6258 28.7536 37.1408 18.969Z" fill="black"/>
</g>
<defs>
<clipPath id="clip0_7331_14442">
<rect width="109" height="51" fill="white"/>
</clipPath>
</defs>
</svg>
