<svg preserveAspectRatio="none" width="100%" height="100%" overflow="visible" style="display: block;" viewBox="0 0 40 40" fill="none" xmlns="http://www.w3.org/2000/svg">
<g id="mdi:face-happy-outline">
<rect width="40" height="40" rx="20" fill="var(--fill-0, white)"/>
<path id="Vector" d="M32 20C32 16.8174 30.7357 13.7652 28.4853 11.5147C26.2348 9.26428 23.1826 8 20 8C16.8174 8 13.7652 9.26428 11.5147 11.5147C9.26428 13.7652 8 16.8174 8 20C8 23.1826 9.26428 26.2348 11.5147 28.4853C13.7652 30.7357 16.8174 32 20 32C23.1826 32 26.2348 30.7357 28.4853 28.4853C30.7357 26.2348 32 23.1826 32 20ZM35 20C35 23.9782 33.4196 27.7936 30.6066 30.6066C27.7936 33.4196 23.9782 35 20 35C18.0302 35 16.0796 34.612 14.2597 33.8582C12.4399 33.1044 10.7863 31.9995 9.3934 30.6066C6.58035 27.7936 5 23.9782 5 20C5 16.0218 6.58035 12.2064 9.3934 9.3934C12.2064 6.58035 16.0218 5 20 5C21.9698 5 23.9204 5.38799 25.7403 6.14181C27.5601 6.89563 29.2137 8.00052 30.6066 9.3934C31.9995 10.7863 33.1044 12.4399 33.8582 14.2597C34.612 16.0796 35 18.0302 35 20ZM17 16.25C17 17.45 15.95 18.5 14.75 18.5C13.55 18.5 12.5 17.45 12.5 16.25C12.5 15.05 13.55 14 14.75 14C15.95 14 17 15.05 17 16.25ZM27.5 16.25C27.5 17.45 26.45 18.5 25.25 18.5C24.05 18.5 23 17.45 23 16.25C23 15.05 24.05 14 25.25 14C26.45 14 27.5 15.05 27.5 16.25ZM20 27.845C17.375 27.845 15.065 26.75 13.715 25.13L15.845 23C16.52 24.08 18.125 24.845 20 24.845C21.875 24.845 23.48 24.08 24.155 23L26.285 25.13C24.935 26.75 22.625 27.845 20 27.845Z" fill="var(--fill-0, #2BC556)"/>
</g>
</svg>
