<svg width="50" height="50" viewBox="0 0 50 50" fill="none" xmlns="http://www.w3.org/2000/svg">
<path d="M49.9895 15.3703C49.9891 14.5153 49.6528 13.7613 49.0171 13.19L41.4171 6.3584C40.4718 5.50889 39.2799 4.64062 37.6041 4.64062H37.6023C35.9255 4.64121 34.7335 5.51064 33.7887 6.36113L26.1936 13.1979C25.5581 13.7698 25.2225 14.5241 25.2228 15.3791L25.2263 24.1535H20.1822C21.0951 22.2577 21.731 19.263 21.0169 17.0205C20.5144 15.4423 19.4076 14.4019 17.8164 14.0116C17.7159 13.987 17.6114 13.9826 17.5092 13.9986C17.4069 14.0147 17.3089 14.0509 17.2207 14.1052C17.1326 14.1595 17.0561 14.2307 16.9957 14.3148C16.9354 14.3989 16.8923 14.4941 16.869 14.595C16.7824 14.9713 16.7022 15.324 16.627 15.6556C15.6886 19.7878 15.568 20.3188 12.9761 22.0129C11.145 23.2097 11.015 23.3642 9.87627 25.0255C9.74724 25.214 9.61781 25.4022 9.48799 25.5901C9.02686 26.2571 8.43691 26.5579 7.57959 26.5654L7.51348 26.5656V26.3785C7.51348 25.4055 6.72188 24.6139 5.74873 24.6139H1.76465C0.791602 24.6139 0 25.4055 0 26.3785V43.5917C0 44.5648 0.791602 45.3564 1.76465 45.3564H5.74883C6.72188 45.3564 7.51357 44.5648 7.51357 43.5917V42.7909C7.86572 42.9138 8.21777 43.0448 8.58027 43.1802C10.3552 43.8431 12.3668 44.5944 15.3536 44.5944H25.7243C26.1664 44.5944 26.5871 44.5021 26.969 44.3366C27.344 44.5053 27.7503 44.5944 28.1668 44.5944H28.1675L47.0679 44.5879C48.6853 44.5872 50.0006 43.2709 49.9999 41.6535L49.9895 15.3703ZM5.95107 43.5917C5.95107 43.7014 5.8585 43.7939 5.74883 43.7939H1.76465C1.65508 43.7939 1.5625 43.7014 1.5625 43.5917V26.3785C1.5625 26.2689 1.65508 26.1764 1.76465 26.1764H5.74883C5.8585 26.1764 5.95107 26.2689 5.95107 26.3785V43.5917ZM15.3536 43.0319C12.6491 43.0319 10.8586 42.3631 9.12705 41.7164C8.6043 41.5212 8.06826 41.321 7.51367 41.1423V28.1281L7.58896 28.1279C8.95371 28.116 10.0252 27.561 10.7734 26.4785C10.9184 26.2689 11.0478 26.0802 11.1651 25.9089C12.2153 24.3768 12.2153 24.3768 13.8311 23.3207C16.9519 21.281 17.1819 20.2674 18.1507 16.0016L18.1943 15.8091C18.8382 16.1509 19.2775 16.7077 19.5281 17.4945C20.2652 19.8094 19.1028 23.3731 18.1934 24.4232C18.0953 24.5365 18.0319 24.6755 18.0107 24.8237C17.9894 24.9719 18.0112 25.1231 18.0734 25.2594C18.1356 25.3956 18.2357 25.511 18.3617 25.592C18.4876 25.6729 18.6342 25.716 18.784 25.716H27.7156C28.586 25.716 29.2941 26.4241 29.2941 27.2945C29.2941 28.1649 28.586 28.8731 27.7156 28.8731H21.5579C21.3507 28.8731 21.152 28.9555 21.0055 29.102C20.859 29.2485 20.7767 29.4472 20.7767 29.6544C20.7767 29.8616 20.859 30.0603 21.0055 30.2068C21.152 30.3533 21.3507 30.4356 21.5579 30.4356H29.0061C29.8765 30.4356 30.5846 31.1437 30.5846 32.0142C30.5846 32.8846 29.8765 33.5928 29.0061 33.5928H21.5579C21.3507 33.5928 21.152 33.6751 21.0055 33.8216C20.859 33.9681 20.7767 34.1668 20.7767 34.374C20.7767 34.5812 20.859 34.7799 21.0055 34.9265C21.152 35.073 21.3507 35.1553 21.5579 35.1553H28.1949C29.0653 35.1553 29.7734 35.8634 29.7734 36.7338C29.7734 37.6042 29.0653 38.3123 28.1949 38.3123H21.5579C21.3507 38.3123 21.152 38.3946 21.0055 38.5411C20.859 38.6876 20.7767 38.8864 20.7767 39.0936C20.7767 39.3008 20.859 39.4995 21.0055 39.646C21.152 39.7925 21.3507 39.8748 21.5579 39.8748H25.7244C26.5948 39.8748 27.303 40.583 27.303 41.4534C27.303 42.3238 26.5949 43.0319 25.7244 43.0319H15.3536ZM47.0673 43.0254L28.4383 43.0318C28.7184 42.553 28.8659 42.0082 28.8654 41.4534C28.8661 40.8952 28.7171 40.3469 28.434 39.8658C30.0547 39.7432 31.3359 38.3853 31.3359 36.7338C31.3366 35.9966 31.0768 35.2828 30.6024 34.7186C31.5263 34.1711 32.1471 33.1637 32.1471 32.0142C32.1471 30.7277 31.3696 29.6195 30.2601 29.1344C30.6485 28.5996 30.8574 27.9555 30.8566 27.2945C30.8566 25.5626 29.4476 24.1535 27.7156 24.1535H26.7889L26.7854 15.3786C26.7853 14.9677 26.9336 14.6343 27.239 14.3594L34.8341 7.52246C35.8748 6.58564 36.6771 6.20352 37.603 6.20312H37.6042C38.5294 6.20312 39.3317 6.58486 40.3728 7.52041L47.9728 14.352C48.2783 14.6268 48.427 14.9601 48.4272 15.371L48.4375 41.6541C48.4378 42.41 47.8231 43.0251 47.0673 43.0254ZM42.2962 32.4528C42.4106 33.3957 42.1579 34.2562 41.5654 34.9413C40.8686 35.747 39.7105 36.2871 38.3927 36.4387V37.4324C38.3927 37.6396 38.3104 37.8383 38.1639 37.9848C38.0173 38.1314 37.8186 38.2137 37.6114 38.2137C37.4042 38.2137 37.2055 38.1314 37.059 37.9848C36.9125 37.8383 36.8302 37.6396 36.8302 37.4324V36.4273C34.8786 36.1592 33.3616 34.9252 32.9225 33.1637C32.8723 32.9626 32.9041 32.7499 33.0108 32.5723C33.1176 32.3947 33.2905 32.2667 33.4915 32.2166C33.6926 32.1665 33.9053 32.1983 34.0829 32.305C34.2605 32.4117 34.3884 32.5846 34.4386 32.7856C34.8433 34.4086 36.4765 34.9501 37.7528 34.9183C38.8487 34.8922 39.8813 34.5001 40.3837 33.9192C40.6886 33.5668 40.8068 33.1486 40.7452 32.6411C40.5994 31.4399 39.5974 30.7505 37.4961 30.4055C34.152 29.8563 33.3732 28.1604 33.309 26.8344C33.2197 24.997 34.5061 23.4569 36.5099 23.0024C36.616 22.9785 36.7229 22.958 36.8304 22.941V21.9249C36.8304 21.7177 36.9127 21.519 37.0592 21.3725C37.2057 21.226 37.4044 21.1437 37.6116 21.1437C37.8188 21.1437 38.0175 21.226 38.1641 21.3725C38.3106 21.519 38.3929 21.7177 38.3929 21.9249V22.9344C39.8232 23.1462 41.2343 23.9748 41.9393 25.654C42.0195 25.845 42.0205 26.0601 41.9421 26.2519C41.8638 26.4437 41.7124 26.5965 41.5214 26.6768C41.4268 26.7165 41.3253 26.7372 41.2227 26.7377C41.1201 26.7382 41.0184 26.7185 40.9234 26.6797C40.8285 26.6409 40.7421 26.5838 40.6692 26.5116C40.5963 26.4394 40.5383 26.3535 40.4986 26.2589C39.821 24.645 38.1807 24.2259 36.8555 24.5265C35.8541 24.7535 34.8065 25.4593 34.8697 26.7588C34.8895 27.1657 34.9495 28.4041 37.7493 28.8638C38.7866 29.0339 41.9441 29.5523 42.2962 32.4528ZM37.605 15.1165C39.1391 15.1165 40.3872 13.8685 40.3872 12.3343C40.3872 10.8001 39.1392 9.55205 37.605 9.55205C36.0708 9.55205 34.8227 10.8001 34.8227 12.3343C34.8227 13.8685 36.0708 15.1165 37.605 15.1165ZM37.605 11.1145C38.2775 11.1145 38.8247 11.6617 38.8247 12.3342C38.8247 13.0066 38.2775 13.5539 37.605 13.5539C36.9324 13.5539 36.3852 13.0066 36.3852 12.3342C36.3852 11.6617 36.9324 11.1145 37.605 11.1145Z" fill="#EC6664"/>
</svg>
