<svg width="50" height="50" viewBox="0 0 50 50" fill="none" xmlns="http://www.w3.org/2000/svg">
<path d="M4.35986 9.41466C4.35986 9.20746 4.44217 9.00875 4.58869 8.86224C4.7352 8.71572 4.93391 8.63341 5.14111 8.63341H13.1774C13.3846 8.63341 13.5834 8.71572 13.7299 8.86224C13.8764 9.00875 13.9587 9.20746 13.9587 9.41466C13.9587 9.62186 13.8764 9.82058 13.7299 9.96709C13.5834 10.1136 13.3846 10.1959 13.1774 10.1959H5.14111C4.93391 10.1959 4.7352 10.1136 4.58869 9.96709C4.44217 9.82058 4.35986 9.62186 4.35986 9.41466ZM11.6312 33.5745H1.5625C1.3553 33.5745 1.15659 33.4922 1.01007 33.3457C0.86356 33.1992 0.78125 33.0005 0.78125 32.7933C0.78125 32.5861 0.86356 32.3874 1.01007 32.2408C1.15659 32.0943 1.3553 32.012 1.5625 32.012H11.0592V25.7817H5.14102C4.93382 25.7817 4.7351 25.6993 4.58859 25.5528C4.44208 25.4063 4.35977 25.2076 4.35977 25.0004C4.35977 24.7932 4.44208 24.5945 4.58859 24.448C4.7351 24.3015 4.93382 24.2192 5.14102 24.2192H11.0593V17.9889H1.5625C1.3553 17.9889 1.15659 17.9066 1.01007 17.7601C0.86356 17.6135 0.78125 17.4148 0.78125 17.2076C0.78125 17.0004 0.86356 16.8017 1.01007 16.6552C1.15659 16.5087 1.3553 16.4264 1.5625 16.4264H11.6312L22.4226 10.196H17.6943C17.4871 10.196 17.2884 10.1137 17.1419 9.96719C16.9954 9.82068 16.9131 9.62196 16.9131 9.41476C16.9131 9.20756 16.9954 9.00885 17.1419 8.86233C17.2884 8.71582 17.4871 8.63351 17.6943 8.63351H25.3382C25.4753 8.63351 25.6101 8.66964 25.7288 8.7382L39.2265 16.5311C39.3452 16.5996 39.4439 16.6982 39.5124 16.817C39.581 16.9358 39.6171 17.0705 39.6171 17.2076V32.7934C39.6171 32.9305 39.581 33.0652 39.5124 33.184C39.4439 33.3028 39.3452 33.4014 39.2265 33.4699L25.7288 41.2628C25.61 41.3314 25.4753 41.3675 25.3382 41.3675C25.201 41.3675 25.0663 41.3314 24.9476 41.2628L11.6312 33.5745ZM25.3382 10.3167L13.403 17.2074L16.6322 19.0718L28.5674 12.181L25.3382 10.3167ZM37.2733 17.2075L34.0441 15.3432L22.109 22.234L25.3382 24.0985L37.2733 17.2075ZM17.4134 25.6604L19.7651 27.0182L19.7652 22.6851L17.4134 21.3273V25.6604ZM32.4816 14.441L30.1298 13.0832L18.1946 19.974L20.5464 21.3319L32.4816 14.441ZM12.6217 18.5607V32.3421L24.5569 39.233V25.4515L21.3278 23.5871L21.3277 28.3712C21.3278 28.5084 21.2917 28.6431 21.2232 28.7619C21.1546 28.8807 21.056 28.9794 20.9372 29.0479C20.8184 29.1165 20.6837 29.1526 20.5465 29.1526C20.4093 29.1525 20.2746 29.1164 20.1559 29.0478L16.2416 26.7879C16.1228 26.7194 16.0242 26.6207 15.9556 26.502C15.8871 26.3832 15.851 26.2485 15.851 26.1113V20.425L12.6217 18.5607ZM38.0546 32.3423V18.5608L26.1194 25.4516V39.2331L38.0546 32.3423ZM47.7493 33.2362C49.4586 28.5974 49.6835 23.6127 48.3995 18.8211C48.373 18.722 48.3272 18.6291 48.2647 18.5477C48.2023 18.4663 48.1244 18.398 48.0355 18.3467C47.9467 18.2954 47.8486 18.2621 47.7469 18.2487C47.6451 18.2353 47.5418 18.2421 47.4427 18.2687C47.3436 18.2952 47.2507 18.341 47.1693 18.4035C47.0879 18.4659 47.0196 18.5438 46.9683 18.6327C46.917 18.7215 46.8837 18.8196 46.8703 18.9213C46.8569 19.023 46.8637 19.1264 46.8902 19.2255C49.1972 27.8351 46.0845 37.071 39.1286 42.5463L39.6188 40.9396C39.6488 40.8414 39.6591 40.7384 39.6492 40.6363C39.6394 40.5342 39.6095 40.435 39.5613 40.3444C39.5131 40.2539 39.4475 40.1737 39.3683 40.1085C39.2891 40.0433 39.1978 39.9943 39.0997 39.9644C39.0016 39.9344 38.8985 39.924 38.7964 39.9339C38.6943 39.9438 38.5951 39.9737 38.5045 40.0219C38.414 40.0701 38.3338 40.1357 38.2686 40.215C38.2034 40.2942 38.1544 40.3855 38.1245 40.4836L36.9672 44.2766C36.9298 44.3991 36.9231 44.5289 36.9477 44.6546C36.9723 44.7803 37.0274 44.898 37.1082 44.9974C37.189 45.0968 37.293 45.1748 37.411 45.2245C37.5291 45.2743 37.6575 45.2942 37.7851 45.2826L42.15 44.8863C42.3563 44.8676 42.5467 44.7676 42.6794 44.6085C42.812 44.4494 42.876 44.244 42.8573 44.0377C42.8184 43.6079 42.438 43.2922 42.0087 43.3303L40.4758 43.4694C43.7643 40.7758 46.2641 37.2673 47.7493 33.2362ZM19.5632 3.44826C28.2006 1.134 37.4075 4.24474 42.8856 11.2104L41.2771 10.7195C41.179 10.6896 41.076 10.6792 40.9738 10.6891C40.8717 10.699 40.7725 10.7289 40.682 10.7771C40.5914 10.8253 40.5112 10.8909 40.446 10.9701C40.3808 11.0493 40.3319 11.1406 40.302 11.2388C40.272 11.3369 40.2617 11.44 40.2716 11.5421C40.2814 11.6442 40.3113 11.7434 40.3595 11.8339C40.4077 11.9245 40.4733 12.0046 40.5525 12.0699C40.6317 12.1351 40.723 12.184 40.8211 12.214L44.6142 13.3713C44.7367 13.4086 44.8665 13.4153 44.9922 13.3907C45.1179 13.3661 45.2356 13.311 45.3351 13.2303C45.4344 13.1495 45.5124 13.0455 45.5621 12.9275C45.6119 12.8094 45.6318 12.681 45.6202 12.5534L45.2238 8.18839C45.1848 7.75861 44.803 7.44123 44.3752 7.48097C44.1689 7.49973 43.9784 7.59968 43.8458 7.75885C43.7131 7.91802 43.6491 8.12336 43.6679 8.3297L43.8069 9.86105C41.1438 6.6089 37.6821 4.12834 33.6985 2.63537C29.0244 0.883609 23.9966 0.642789 19.1589 1.93898C18.9594 1.99319 18.7896 2.12425 18.6865 2.30344C18.5835 2.48264 18.5556 2.69537 18.6091 2.89503C18.6626 3.0947 18.7931 3.26504 18.9719 3.36873C19.1507 3.47242 19.3633 3.50102 19.5632 3.44826ZM31.1131 46.5526C22.4554 48.8724 13.2709 45.7623 7.79141 38.7906L9.39912 39.2812C9.59688 39.3402 9.80997 39.3186 9.99185 39.2211C10.1737 39.1235 10.3096 38.958 10.3699 38.7606C10.4301 38.5632 10.4098 38.35 10.3134 38.1675C10.2169 37.9851 10.0522 37.8482 9.85518 37.7867L6.06221 36.6294C5.9397 36.592 5.80989 36.5853 5.68419 36.6099C5.55849 36.6345 5.44077 36.6896 5.34139 36.7704C5.24201 36.8512 5.16401 36.9552 5.11427 37.0732C5.06453 37.1913 5.04457 37.3197 5.05615 37.4473L5.45244 41.8123C5.46038 41.9155 5.48874 42.0161 5.53587 42.1082C5.58301 42.2004 5.64799 42.2823 5.72703 42.3491C5.80608 42.4159 5.89761 42.4663 5.99631 42.4975C6.09502 42.5286 6.19893 42.5398 6.302 42.5305C6.40508 42.5211 6.50527 42.4914 6.59676 42.443C6.68824 42.3946 6.7692 42.3285 6.83492 42.2485C6.90064 42.1686 6.94982 42.0763 6.9796 41.9772C7.00938 41.8781 7.01917 41.774 7.0084 41.6711L6.86934 40.1385C11.4411 45.7152 18.269 48.8744 25.3513 48.8744C27.4012 48.8744 29.4739 48.6095 31.5175 48.0619C31.6166 48.0354 31.7095 47.9896 31.7909 47.9271C31.8723 47.8647 31.9406 47.7868 31.9919 47.6979C32.0432 47.6091 32.0765 47.511 32.0899 47.4093C32.1033 47.3076 32.0965 47.2042 32.0699 47.1051C32.0162 46.905 31.8853 46.7344 31.7059 46.6307C31.5265 46.5271 31.3132 46.499 31.1131 46.5526Z" fill="#EC6664"/>
</svg>
