<svg width="50" height="50" viewBox="0 0 50 50" fill="none" xmlns="http://www.w3.org/2000/svg">
<path d="M24.9991 10.418C16.9574 10.418 10.4158 16.9596 10.4158 25.0013C10.4158 33.043 16.9574 39.5846 24.9991 39.5846C33.0408 39.5846 39.5824 33.043 39.5824 25.0013C39.5824 16.9596 33.0408 10.418 24.9991 10.418ZM24.9991 37.5013C18.1064 37.5013 12.4991 31.894 12.4991 25.0013C12.4991 18.1086 18.1064 12.5013 24.9991 12.5013C31.8918 12.5013 37.4991 18.1086 37.4991 25.0013C37.4991 31.894 31.8918 37.5013 24.9991 37.5013Z" fill="#EC6664"/>
<path d="M30.5129 20.098L22.916 27.6949L19.4848 24.2647C19.2894 24.0694 19.0245 23.9596 18.7483 23.9596C18.4721 23.9596 18.2072 24.0694 18.0118 24.2647C17.8165 24.46 17.7068 24.7249 17.7068 25.0011C17.7068 25.2774 17.8165 25.5423 18.0118 25.7376L22.1795 29.9043C22.3749 30.0996 22.6398 30.2093 22.916 30.2093C23.1922 30.2093 23.4571 30.0996 23.6525 29.9043L31.9858 21.5709C32.1811 21.3756 32.2908 21.1107 32.2908 20.8345C32.2908 20.5583 32.1811 20.2933 31.9858 20.098C31.7905 19.9027 31.5256 19.793 31.2493 19.793C30.9731 19.793 30.7082 19.9027 30.5129 20.098Z" fill="#EC6664"/>
<path d="M45.6979 21.6116C45.2687 21.2939 45.1354 20.6657 45.4198 20.2137C46.4375 18.5949 47.9156 15.1949 42.826 13.948C42.3073 13.8209 41.9229 13.2845 42.0333 12.7637C42.5219 10.4782 41.8375 7.15949 37.2375 7.96782C36.7135 8.05949 36.1562 7.69907 36.0531 7.17511C35.7083 5.42303 34.2229 1.87407 29.7885 4.58032C29.3323 4.85844 28.6052 4.7074 28.3906 4.30115C27.7021 3.00011 24.6864 0.000110865 21.6094 4.30115C21.2989 4.73553 20.5854 4.84699 20.2114 4.57928C18.1927 3.13344 14.9312 2.77199 13.9458 7.17303C13.8323 7.67824 13.2948 8.06574 12.7604 7.96469C10.9958 7.62928 7.1229 7.73969 7.96769 12.7605C8.05623 13.2866 7.70311 13.8668 7.17602 13.9459C5.12082 14.2532 1.95207 15.9043 4.58019 20.2105C4.85832 20.6657 4.77811 21.3678 4.30207 21.6084C2.47811 22.5303 0.389565 25.8095 4.30207 28.3928C4.74686 28.6866 4.85832 29.3189 4.58019 29.7741C1.95207 34.0803 5.12082 35.7303 7.17602 36.0387C7.70415 36.1178 8.05623 36.698 7.96769 37.2241C7.1229 42.2449 10.9958 42.3553 12.7625 42.0189C13.2969 41.9168 13.8344 42.3053 13.9479 42.8105C14.9333 47.2126 18.1948 46.8501 20.2135 45.4043C20.5875 45.1366 21.301 45.248 21.6114 45.6824C24.6885 49.9845 27.7042 46.9845 28.3927 45.6824C28.6073 45.2772 29.3344 45.1251 29.7906 45.4032C34.225 48.1095 35.7104 44.5605 36.0552 42.8084C36.1583 42.2845 36.7156 41.9241 37.2396 42.0157C41.8396 42.8241 42.5229 39.5053 42.0354 37.2199C41.9239 36.6991 42.3094 36.1626 42.8281 36.0355C47.9187 34.7887 46.4406 31.3887 45.4219 29.7699C45.1375 29.3178 45.2604 28.6762 45.6979 28.3741C47.0583 27.4334 50 24.7949 45.6979 21.6116ZM44.2104 31.9907C44.5646 32.5605 44.3458 33.3439 43.5396 33.6095C42.0625 34.097 39.3406 34.498 40.0667 38.8095C40.2052 39.6293 39.7667 40.1199 38.8271 40.048C37.3979 39.9387 34.4552 39.3605 33.6292 43.522C33.4656 44.3439 32.6604 44.522 32.0104 44.1939C29.2062 42.7782 28.0844 42.597 25.8781 45.4137C25.4562 45.9522 24.5771 45.9293 24.125 45.4137C22.9396 44.0626 21.5969 41.9855 17.9916 44.1949C17.3646 44.5793 16.65 44.2824 16.3729 43.5241C15.6531 41.5491 15.4406 39.4439 11.1739 40.0512C10.5156 40.1449 9.81769 39.6991 9.9354 38.8126C10.1594 37.1168 10.4166 34.3939 6.4604 33.6126C5.84998 33.4918 5.3729 32.6772 5.78957 31.9939C7.36977 29.4095 7.15102 27.7928 4.54686 25.8501C4.25311 25.6314 3.77498 24.6907 4.56977 24.122C7.10623 22.3074 7.36977 20.5751 5.78957 17.9897C5.37186 17.3064 5.84998 16.4907 6.4604 16.3709C10.4166 15.5897 10.1594 12.8668 9.9354 11.1709C9.81769 10.2845 10.5166 9.83865 11.1739 9.9324C15.4406 10.5387 15.6531 8.43449 16.3729 6.45949C16.6489 5.70011 17.3646 5.40428 17.9916 5.78865C21.5979 7.99803 22.9406 5.92094 24.125 4.5699C24.5771 4.05428 25.4552 4.03136 25.8781 4.5699C28.0844 7.38657 29.2062 7.20532 32.0104 5.78969C32.6604 5.46157 33.4656 5.63969 33.6292 6.46157C34.4552 10.623 37.3979 10.0449 38.8271 9.93553C39.7677 9.86365 40.2052 10.3543 40.0667 11.1741C39.3406 15.4866 42.0625 15.8866 43.5396 16.3741C44.3458 16.6397 44.5646 17.4241 44.2104 17.9928C41.8937 21.7137 44.3417 23.1928 45.4302 24.1262C45.8552 24.4907 46.1 25.3522 45.5281 25.798C44.2271 26.698 41.8937 28.2699 44.2104 31.9907Z" fill="#EC6664"/>
</svg>
