<svg width="50" height="50" viewBox="0 0 50 50" fill="none" xmlns="http://www.w3.org/2000/svg">
<g clip-path="url(#clip0_6182_5329)">
<path d="M18.4848 14.697V8.63636C18.4848 8.18182 18.1818 7.87879 17.7273 7.87879C17.2727 7.87879 16.9697 8.18182 16.9697 8.63636V14.697C15.6061 15 14.6212 16.2879 14.6212 17.7273C14.6212 18.6364 15 19.3939 15.5303 20L12.803 24.6212C12.5758 25 12.7273 25.4545 13.1061 25.6818C13.4848 25.9091 13.9394 25.7576 14.1667 25.3788L16.8939 20.7576C17.197 20.8333 17.5 20.9091 17.803 20.9091C19.5455 20.9091 20.9091 19.4697 20.9091 17.803C20.8333 16.2121 19.7727 15 18.4848 14.697ZM17.7273 19.3182C16.8182 19.3182 16.1364 18.5606 16.1364 17.7273C16.1364 16.8182 16.8939 16.1364 17.7273 16.1364C18.6364 16.1364 19.3182 16.8939 19.3182 17.7273C19.3182 18.5606 18.5606 19.3182 17.7273 19.3182ZM17.7273 5.90909C18.1818 5.90909 18.4848 5.60606 18.4848 5.15152V3.63636C18.4848 3.18182 18.1818 2.87879 17.7273 2.87879C17.2727 2.87879 16.9697 3.18182 16.9697 3.63636V5.15152C16.9697 5.5303 17.2727 5.90909 17.7273 5.90909ZM17.7273 29.4697C17.2727 29.4697 16.9697 29.7727 16.9697 30.2273V31.7424C16.9697 32.197 17.2727 32.5 17.7273 32.5C18.1818 32.5 18.4848 32.197 18.4848 31.7424V30.2273C18.4848 29.8485 18.1061 29.4697 17.7273 29.4697ZM5.90909 17.7273C5.90909 17.2727 5.60606 16.9697 5.15151 16.9697H3.63636C3.18181 16.9697 2.87878 17.2727 2.87878 17.7273C2.87878 18.1818 3.18181 18.4848 3.63636 18.4848H5.15151C5.5303 18.4848 5.90909 18.1061 5.90909 17.7273ZM29.4697 17.7273C29.4697 18.1818 29.7727 18.4848 30.2273 18.4848H31.7424C32.197 18.4848 32.5 18.1818 32.5 17.7273C32.5 17.2727 32.197 16.9697 31.7424 16.9697H30.2273C29.8485 16.9697 29.4697 17.2727 29.4697 17.7273ZM5.07575 11.2879L6.43939 12.0455C6.81818 12.2727 7.27272 12.1212 7.5 11.7424C7.72727 11.3636 7.57575 10.9091 7.19697 10.6818L5.83333 9.92424C5.45454 9.69697 5 9.84849 4.77272 10.2273C4.62121 10.6818 4.69697 11.1364 5.07575 11.2879ZM11.8182 27.8788C11.4394 27.6515 10.9848 27.803 10.7576 28.1818L10 29.5455C9.77272 29.9242 9.92424 30.3788 10.303 30.6061C10.6818 30.8333 11.1364 30.6818 11.3636 30.303L12.1212 28.9394C12.2727 28.5606 12.197 28.1061 11.8182 27.8788ZM23.5606 7.5C23.9394 7.72727 24.3939 7.57576 24.6212 7.19697L25.3788 5.83333C25.6061 5.45455 25.4545 5 25.0758 4.77273C24.697 4.54545 24.2424 4.69697 24.0152 5.07576L23.2576 6.43939C23.1061 6.81818 23.1818 7.27273 23.5606 7.5ZM11.6667 7.57576C12.0455 7.34849 12.1212 6.89394 11.8939 6.51515L11.1364 5.15152C10.9091 4.77273 10.4545 4.69697 10.0758 4.92424C9.69697 5.15152 9.62121 5.60606 9.84848 5.98485L10.6061 7.34848C10.8333 7.65152 11.2879 7.80303 11.6667 7.57576ZM6.51515 23.4848L5.15151 24.2424C4.77272 24.4697 4.69697 24.9242 4.92424 25.303C5.15151 25.6818 5.60606 25.7576 5.98485 25.5303L7.34848 24.7727C7.72727 24.5455 7.80303 24.0909 7.57575 23.7121C7.34848 23.3333 6.89394 23.2576 6.51515 23.4848ZM28.8636 11.9697L30.2273 11.2121C30.6061 10.9848 30.6818 10.5303 30.4545 10.1515C30.2273 9.77273 29.7727 9.69697 29.3939 9.92424L28.0303 10.6818C27.6515 10.9091 27.5758 11.3636 27.803 11.7424C28.0303 12.0455 28.4848 12.1212 28.8636 11.9697ZM30.9848 1.51515H44.0909V19.697L40.9848 16.5909C40.6818 16.2879 40.2273 16.2879 39.9242 16.5909C39.6212 16.8939 39.6212 17.3485 39.9242 17.6515L44.3182 22.0455C44.4697 22.197 44.6212 22.2727 44.8485 22.2727C45.0758 22.2727 45.2273 22.197 45.3788 22.0455L49.7727 17.6515C50.0758 17.3485 50.0758 16.8939 49.7727 16.5909C49.4697 16.2879 49.0152 16.2879 48.7121 16.5909L45.6061 19.697V0.757576C45.6061 0.30303 45.303 0 44.8485 0H30.9848C30.5303 0 30.2273 0.30303 30.2273 0.757576C30.2273 1.21212 30.6061 1.51515 30.9848 1.51515Z" fill="#EC6664"/>
<path d="M49.4697 27.5758C49.3182 27.5 35.3788 19.8485 35.2273 19.8485C35.303 19.0909 35.3788 18.4091 35.3788 17.7273C35.3788 7.95455 27.4242 0 17.6515 0C7.95454 0 0 7.95455 0 17.7273C0 27.5 7.95454 35.4545 17.6515 35.4545C18.4091 35.4545 19.3182 35.3788 20.2273 35.2273V40.3788C20.2273 40.6061 20.3788 40.9091 20.6061 40.9848L34.6212 49.8485C34.7727 49.9242 34.8485 50 35 50C35.1515 50 35.303 49.9242 35.3788 49.9242L49.5455 42.4242C49.7727 42.2727 49.9242 42.0455 49.9242 41.7424V28.2576C49.9242 27.9545 49.7727 27.7273 49.4697 27.5758ZM47.5758 28.2576L44.2424 30.0758L31.6667 23.1818L35 21.4394L47.5758 28.2576ZM41.2121 32.1212L28.1818 25L30.0758 23.9394L43.4848 31.2879V35.0758L41.6667 36.2121V32.803C41.6667 32.5 41.4394 32.197 41.2121 32.1212ZM35.0758 35.0758L22.5758 28.0303L26.5909 25.9091L39.3182 32.803L35.0758 35.0758ZM17.6515 33.8636C8.78788 33.8636 1.51515 26.5909 1.51515 17.7273C1.51515 8.78788 8.78788 1.51515 17.6515 1.51515C26.5909 1.51515 33.8636 8.78788 33.8636 17.7273C33.8636 18.4848 33.7879 19.5455 33.6364 20.4545C33.6364 20.4545 20.7576 27.3485 20.6061 27.3485C20.3788 27.5 20.2273 27.803 20.2273 28.0303V33.7121C19.3182 33.7879 18.4091 33.8636 17.6515 33.8636ZM21.7424 39.9242V29.3182L34.2424 36.3636V47.8788L21.7424 39.9242ZM35.7576 47.9545V36.4394L40.0758 34.0909V37.5C40.0758 37.803 40.2273 38.0303 40.4545 38.1818C40.6818 38.3333 40.9848 38.3333 41.2121 38.1818L44.6212 36.2879C44.8485 36.1364 45 35.9091 45 35.6061V31.3636L48.3333 29.5455V41.2879L35.7576 47.9545Z" fill="#EC6664"/>
<path d="M32.5749 38.7115L24.3174 33.9388C23.9386 33.7115 23.484 33.8631 23.2568 34.2418C23.0295 34.6206 23.181 35.0752 23.5598 35.3025L31.8174 39.9994C32.1962 40.2267 32.6507 40.0752 32.878 39.6964C33.0295 39.3934 32.878 38.8631 32.5749 38.7115ZM32.4992 41.8176L24.2416 36.9691C23.8628 36.7418 23.4083 36.8934 23.181 37.2721C22.9537 37.6509 23.1052 38.1055 23.484 38.3328L31.7416 43.1055C32.1204 43.3328 32.5749 43.1812 32.8022 42.8025C32.9537 42.4237 32.8022 41.9691 32.4992 41.8176Z" fill="#EC6664"/>
</g>
<defs>
<clipPath id="clip0_6182_5329">
<rect width="50" height="50" fill="white"/>
</clipPath>
</defs>
</svg>
